<svg width="139" height="222" viewBox="0 0 139 222" fill="none" xmlns="http://www.w3.org/2000/svg">
<path d="M119.953 197.183C90.3124 205.854 47.9785 218.133 19.0468 220.717C13.5867 221.212 1.88639 222.061 1.03545 214.913C0.432711 209.888 5.43193 201.89 9.86387 199.519C13.8349 197.396 33.1227 191.946 38.6183 190.566C43.3693 189.398 65.0681 188.761 67.7627 184.833L84.0722 63.9464L31.0308 127.858C16.7068 132.635 10.2893 123.399 20.1814 111.438C42.1638 84.7901 61.8062 65.7158 79.1793 34.0079C84.0722 25.0547 90.3833 1.02601 100.63 -0.000247351C103.325 -0.283354 109.671 10.227 109.777 12.9165C111.018 49.6142 97.1907 98.0961 92.9361 135.714C91.2697 150.294 91.5533 165.015 89.2842 179.489C105.239 180.516 140.021 163.458 137.929 191.167" fill="#181818"/>
</svg>
