<svg width="176" height="231" viewBox="0 0 176 231" fill="none" xmlns="http://www.w3.org/2000/svg">
<path d="M163.946 213.13C162.666 212.646 161.429 212.074 160.326 211.37C157.985 210.225 155.645 208.993 153.305 207.717C127.872 204.724 103.146 196.845 77.2718 199.794L108.224 163.086C134.804 124.838 145.269 90.5951 127.784 45.3487C117.01 17.2677 92.0634 -1.17418 61.1555 0.0582098C46.7613 0.674407 5.38897 29.5036 0.8411 43.28C-3.53015 56.4842 9.98099 63.5265 21.9909 59.8733C27.2894 58.2448 39.4759 30.3839 61.6412 26.4666C82.791 22.7255 98.9072 44.4684 104.117 62.5142C118.291 111.458 78.5964 169.6 37.0474 192.972C27.1128 198.562 2.38649 201.467 8.70052 219.82C12.1887 229.9 30.2477 223.43 37.3123 223.298C68.176 222.725 98.8631 223.21 128.888 230.868C128.888 230.868 128.8 230.956 128.8 231H166.507C169.819 228.667 172.733 225.63 175.029 221.537C175.426 220.833 175.735 220.085 176 219.292C172.071 217.048 168.008 215.111 163.902 213.13H163.946Z" fill="#181818"/>
</svg>
