<svg width="147" height="227" viewBox="0 0 147 227" fill="none" xmlns="http://www.w3.org/2000/svg">
<path d="M92.884 21.6649C105.893 37.4108 98.251 56.0422 93.5593 73.0705C128.782 84.4703 154.693 136.161 144.919 170.859C131.199 219.557 75.3259 236.336 30.6842 222.122C15.3298 217.241 -0.0958017 207.017 8.7188 189.811C18.4931 188.35 25.2817 195.475 33.3499 198.61C64.8053 210.9 97.2203 207.053 115.667 176.274C131.59 149.698 116.022 111.082 91.6045 95.0507C74.1886 83.6153 70.6698 96.7962 53.5738 93.1982C40.5296 73.6405 67.6131 73.1774 73.5488 54.1541C83.2164 23.0899 41.5603 9.44582 25.2106 26.581C21.8341 30.1078 19.5949 38.6932 16.0406 39.9401C9.92726 42.0419 -1.05546 38.7645 0.0819124 31.0697C7.01275 20.0262 18.031 2.64161 31.9993 0.397285C48.4201 -2.2389 82.079 8.62646 92.884 21.6649Z" fill="#181818"/>
</svg>
