<svg width="231" height="242" viewBox="0 0 231 242" fill="none" xmlns="http://www.w3.org/2000/svg">
<path d="M2.18996 122.09C2.19996 122.17 3.30996 123.21 3.38996 123.24C5.94996 124.42 7.66996 120.76 9.51996 122.27C9.79996 121.27 11.28 120.58 12.35 120.45C12.95 120.38 13.43 120.88 14.28 120.93C18.77 121.19 22.41 117.49 25.81 115.57C29.6 113.43 34.35 112.45 38.11 110.13L47.27 104.41C47.75 104.87 43.83 112.9 43.34 114.12C38.84 125.32 35.36 138.01 29.19 148.38C26.02 153.71 21.77 158.61 18.57 163.9C18.21 164.49 15.96 169.41 15.96 169.73C15.96 171.08 17.99 171.77 19.23 171.4C19.8 171.23 20.3 170.49 20.6 170.45C20.82 170.42 22.48 171.33 23.48 171.19C24 171.12 26.07 169.37 26.68 168.91C29.02 167.11 31.13 164.51 33.09 163.02C43.26 155.27 50.1 144.55 58.3 135.22C58.25 137.15 59.05 139.3 59.19 141.14C59.52 145.3 58.51 149.38 58.29 153.5C57.93 160.13 58.5 167.67 57.7 174.13C56.8 181.4 53.17 189.37 52.62 196.42C52.6 196.67 52.65 198.7 52.68 198.82C52.99 199.82 54.76 199.99 55.69 199.8C56.57 199.62 56.84 198.77 57.7 198.75C57.78 202.46 57.6 206.19 57.69 209.9C58.05 225.34 57.71 208.62 58 224.09C58.08 228.57 57.95 231.58 57.44 235.95C57.25 237.62 57.12 239.56 57.52 241.22H61.56C61.38 240.8 61.29 240.13 61.28 239.08C62.62 239.55 63.9 239.04 65.29 239.08C77.13 239.33 88.74 240.89 100.63 241.23H108.52C113.09 241.03 117.86 240.29 122.31 240.04C123.82 239.96 126.7 240.6 128.45 240.65C132 240.74 134.6 240.64 138.14 241C139.07 241.09 140.03 241.17 141 241.23H163.91C164.78 241.2 165.65 241.16 166.49 241.13C169.75 241 173.41 240.81 176.38 240.92C177.24 240.95 178 241.09 178.77 241.23H183.61C184.04 241.11 184.43 241.05 184.71 241.23H189.53C189.73 240.8 190.05 240.34 190.14 239.99C192.85 228.66 193.09 248.92 194.33 237.41C195.41 227.35 196.83 217.96 196.49 207.7C196.33 202.85 195.5 197.96 195.27 193.15C195 187.6 195.72 183.6 194.6 177.82C193.99 174.67 192.46 171.08 192.03 168.08C191.81 166.52 192.08 164.86 191.7 163.3C194.86 165.22 198.43 164.56 201.99 164.67C204.05 164.73 203.15 164.55 203.83 164.4C206.38 163.84 209.94 164.49 212.65 163.77C214.12 163.38 215.64 162.2 217.05 161.78C218.39 161.37 219.44 161.52 221.02 160.76C222.18 160.2 224.63 158.11 225.64 157.87C226.62 157.63 227.61 157.98 228.69 157.65C230.64 157.06 231.27 152.48 228.11 153.13C228.2 151.71 230.62 151.3 229.75 149.56C228.7 147.47 225.79 148.99 224.07 149.01C218.14 149.09 207.24 143.12 202.64 139.61C192.96 132.21 181.43 117.54 177.83 106.37C177.16 104.28 177.25 102.12 176.19 100.18C176.39 99.8896 176.58 99.8396 176.93 99.7796C184.18 98.5096 190.56 96.4296 196.87 92.8496C199.25 91.4996 199.45 91.1996 202.19 90.0596C207.23 87.9596 207.99 85.7296 210.79 81.6296L209.9 81.4996C210.65 79.5296 208.92 78.2196 206.79 79.1096L205.85 77.7696C204.37 77.6496 204.43 78.9196 204.17 79.0996C204.01 79.2096 202.23 79.6596 201.65 79.9396C197.36 81.9996 192.45 84.4596 187.6 85.1396C186.05 85.3596 180.39 85.5296 179.3 84.9496C178.25 84.3996 176.94 82.3096 176.42 81.2796C172.37 73.2696 172.6 68.6396 172.3 60.0496C171.8 45.4096 168.97 25.6796 157.08 14.9496C153.76 11.9496 145.74 5.35964 141.76 4.03964C132.76 1.05964 123.83 4.06964 115.14 4.30964C109.04 4.47964 102.91 0.239639 96.98 0.0696393C92.25 -0.0603607 86.2 0.859639 82.06 3.03964C76.35 6.03964 66.71 15.4196 63.11 20.4996C61.25 23.1296 59.68 26.0596 58.17 28.8696C49.79 44.4596 43.86 59.4496 28.59 70.6296C21.09 76.1196 12.56 80.1996 3.26996 82.4396C1.32996 85.0796 3.76996 85.6996 6.28996 85.9596C12.9 86.6396 17.41 85.3596 23.43 83.7596C30.03 81.9996 36.78 80.6596 43.06 78.0696C40.97 80.6796 38.94 83.3596 36.97 86.0596C27.76 98.6996 17.95 112.95 2.36996 119.11C1.77996 119.34 0.889962 118.83 0.979962 119.86L2.12996 119.9C2.76996 120.65 2.06996 121.48 2.15996 122.15L2.18996 122.09ZM190.51 163.25H190.22L189.92 161.88C190.71 162.2 190.83 162.55 190.51 163.25ZM163.64 119.46C169.07 126.75 171.72 130.96 175.14 139.33C177.19 144.35 178.81 147.94 181.42 152.79C185.82 161 189.72 171.37 191.07 180.47C191.71 184.8 191.2 189.05 191.41 193.38C191.85 202.59 192.84 211.56 192.3 220.86C192.02 225.65 190.76 230.42 190.22 235.17C189.43 242.1 189.46 217.14 188.72 224.06C188.24 228.56 186.85 232.99 186.34 237.49C184.45 238.85 181.99 237.97 179.61 237.94C169.66 237.82 159.4 238.81 149.17 238.51C144.28 238.37 139.39 237.64 134.58 237.4C123.82 236.87 113.1 237.57 102.34 237.39C90.71 237.19 79.06 236.3 67.41 235.75C66.6 235.71 62.61 235.43 62.31 235.23C62.07 235.07 61.91 234.82 61.91 234.54L62.49 228.73C61.91 209.26 62.22 222.13 61.7 202.67C61.66 201.07 61.42 194.83 61.94 193.96C62.16 193.59 62.62 193.56 62.87 193.15C63.2 192.61 63.5 190.77 63.75 190.54C63.91 190.39 64.51 190.4 64.88 190.08C68.32 187.12 74.67 177.27 76.34 173.14C79.6 165.07 79.99 153.88 80.71 145.27C80.85 143.57 81.7 141.42 81.87 139.74C82.06 137.83 81.41 136.09 81.61 134.27C81.92 131.36 84.56 127.31 84.56 124.34C84.56 122.61 84.65 120.84 84.56 119.12C84.56 119.1 83.84 118.47 84.7 118.71C85.68 118.98 86.85 119.84 87.84 120.21C97.92 123.96 108.72 126.05 119.55 123.86C131.61 121.42 141.85 113.89 149.32 105.09C151.15 104.25 154.47 107.83 155.58 109.02C158.55 112.18 161.11 116.07 163.64 119.46ZM151.72 101.38C151.85 101.11 152.47 102.26 152.61 102.48C151.84 102.56 151.61 102.01 151.72 101.38ZM60.86 65.0896C62.53 62.6396 67.14 59.4496 69.47 57.0696C74.73 51.7296 79.15 45.6796 84.41 40.3096C91.47 33.1096 98.06 25.4996 104.39 17.7496C105.95 15.8296 107.04 13.7296 109.35 12.4096C111.47 12.9096 115.91 13.3196 113.55 16.0496L113.64 16.4096C116.98 18.1096 119.8 20.5196 122.66 22.8296C127.53 26.7596 132.32 31.0196 137.2 35.0096C145.36 41.6796 150.26 44.5396 153.49 55.0596C154.11 57.0696 154.41 60.1496 155.07 61.8496C155.24 62.2896 155.77 62.4396 155.89 63.0196C156.5 65.8796 156.66 75.1796 156.45 78.3796C155.13 98.6896 135.73 120.38 113.08 121.71C102.67 122.33 92.36 118.83 83.22 114.58C81.8 113.5 82.67 112.38 82.09 111.63C81.52 110.9 78.88 108.55 77.9 107.52C72.6 101.98 68.69 96.7896 64.53 90.5396C63.45 88.9196 62.13 87.2796 61.66 85.2196C60.85 81.6696 60.2 73.5796 60.21 69.8396C60.21 68.6896 60.29 65.9196 60.86 65.0896Z" fill="#181818"/>
<path d="M136.86 78.5796C136.94 78.7196 136.66 81.5196 136.59 81.9196C136.07 84.6796 132.07 90.5196 129.96 92.4496C124.49 97.4196 113.32 102.1 106.05 100.29C100.83 98.9896 95.85 97.4296 91.41 94.3396C90.84 93.9496 88.03 91.6496 88.04 91.1996C88.82 90.1396 89.48 89.0496 91.03 89.3096C91.97 89.4696 95.79 91.8796 97.12 92.4996C103.52 95.4896 107.61 97.7796 114.97 96.1096C120.74 94.7996 130.28 88.2396 132.6 82.6996C133.03 81.6896 133.53 78.5396 134.06 77.8896C134.22 77.6996 134.52 77.4296 134.75 77.3696C135.38 77.1996 136.61 78.1496 136.86 78.5796Z" fill="#181818"/>
<path d="M134.04 52.4496C135.04 53.3296 136.31 53.5996 135.25 55.2596C133.59 55.2996 132.16 54.3196 130.51 54.3196C128.76 54.3196 127.73 55.4096 126.03 55.2496C125.09 55.1596 124.38 54.3496 123.99 54.3896C122.09 54.5696 120.23 58.6296 118.01 56.3996C116.98 55.3696 117.79 54.1196 118.73 53.3096C121 51.3596 129.14 48.0496 131.69 50.1696C132.36 50.7196 133.35 51.8396 134.04 52.4496Z" fill="#181818"/>
<path d="M102.23 57.2596C101.58 57.9996 98.41 57.1896 97.11 57.3596C94.73 57.6696 91.11 59.2996 89.2 60.7896C87.7 61.9596 86.87 64.2196 84.79 63.0596C82.71 61.8996 85.21 59.5896 86.43 58.5296C89.04 56.2396 94.49 53.6996 97.99 53.7496C99.08 53.7596 99.95 54.6696 101.22 54.0796C101.93 54.7896 103.01 56.3596 102.23 57.2596Z" fill="#181818"/>
<path d="M95.96 63.0496C98.02 62.7096 100.63 65.4196 100.15 67.5596C99.99 68.2696 97.72 70.6996 97.07 70.7596C96.66 70.7996 93.91 70.3496 93.53 70.1296C90.25 68.2796 92.97 63.5396 95.96 63.0496Z" fill="#181818"/>
<path d="M129.63 60.1396C132.08 62.1096 131.24 64.2996 130.32 66.8396C129.04 67.1696 127.91 66.4196 126.8 66.1496C125.94 65.9396 125.01 66.7196 124.31 65.0096C123.49 62.9996 125.14 61.6096 125.3 59.5996C126.22 58.1096 128.58 59.3096 129.62 60.1396H129.63Z" fill="#181818"/>
</svg>
