<svg width="231" height="242" viewBox="0 0 231 242" fill="none" xmlns="http://www.w3.org/2000/svg">
<path d="M2.18996 122.091C2.19996 122.171 3.30996 123.211 3.38996 123.241C5.94996 124.421 7.66996 120.761 9.51996 122.271C9.79996 121.271 11.28 120.581 12.35 120.451C12.95 120.381 13.43 120.881 14.28 120.931C18.77 121.191 22.41 117.491 25.81 115.571C29.6 113.431 34.35 112.451 38.11 110.131L47.27 104.411C47.75 104.871 43.83 112.901 43.34 114.121C38.84 125.321 35.36 138.011 29.19 148.381C26.02 153.711 21.77 158.611 18.57 163.901C18.21 164.491 15.96 169.411 15.96 169.731C15.96 171.081 17.99 171.771 19.23 171.401C19.8 171.231 20.3 170.491 20.6 170.451C20.82 170.421 22.48 171.331 23.48 171.191C24 171.121 26.07 169.371 26.68 168.911C29.02 167.111 31.13 164.511 33.09 163.021C43.26 155.271 50.1 144.551 58.3 135.221C58.25 137.151 59.05 139.301 59.19 141.141C59.52 145.301 58.51 149.381 58.29 153.501C57.93 160.131 58.5 167.671 57.7 174.131C56.8 181.401 53.17 189.371 52.62 196.421C52.6 196.671 52.65 198.701 52.68 198.821C52.99 199.821 54.76 199.991 55.69 199.801C56.57 199.621 56.84 198.771 57.7 198.751C57.78 202.461 57.6 206.191 57.69 209.901C58.05 225.341 57.71 208.621 58 224.091C58.08 228.571 57.95 231.581 57.44 235.951C57.25 237.621 57.12 239.561 57.52 241.221H61.56C61.38 240.801 61.29 240.131 61.28 239.081C62.62 239.551 63.9 239.041 65.29 239.081C77.13 239.331 88.74 240.891 100.63 241.231H108.52C113.09 241.031 117.86 240.291 122.31 240.041C123.82 239.961 126.7 240.601 128.45 240.651C132 240.741 134.6 240.641 138.14 241.001C139.07 241.091 140.03 241.171 141 241.231H163.91C164.78 241.201 165.65 241.161 166.49 241.131C169.75 241.001 173.41 240.811 176.38 240.921C177.24 240.951 178 241.091 178.77 241.231H183.61C184.04 241.111 184.43 241.051 184.71 241.231H189.53C189.73 240.801 190.05 240.341 190.14 239.991C192.85 228.661 193.09 248.921 194.33 237.411C195.41 227.351 196.83 217.961 196.49 207.701C196.33 202.851 195.5 197.961 195.27 193.151C195 187.601 195.72 183.601 194.6 177.821C193.99 174.671 192.46 171.081 192.03 168.081C191.81 166.521 192.08 164.861 191.7 163.301C194.86 165.221 198.43 164.561 201.99 164.671C204.05 164.731 203.15 164.551 203.83 164.401C206.38 163.841 209.94 164.491 212.65 163.771C214.12 163.381 215.64 162.201 217.05 161.781C218.39 161.371 219.44 161.521 221.02 160.761C222.18 160.201 224.63 158.111 225.64 157.871C226.62 157.631 227.61 157.981 228.69 157.651C230.64 157.061 231.27 152.481 228.11 153.131C228.2 151.711 230.62 151.301 229.75 149.561C228.7 147.471 225.79 148.991 224.07 149.011C218.14 149.091 207.24 143.121 202.64 139.611C192.96 132.211 181.43 117.541 177.83 106.371C177.16 104.281 177.25 102.121 176.19 100.181C176.39 99.8906 176.58 99.8406 176.93 99.7806C184.18 98.5106 190.56 96.4306 196.87 92.8506C199.25 91.5006 199.45 91.2006 202.19 90.0606C207.23 87.9606 207.99 85.7306 210.79 81.6306L209.9 81.5006C210.65 79.5306 208.92 78.2206 206.79 79.1106L205.85 77.7706C204.37 77.6506 204.43 78.9206 204.17 79.1006C204.01 79.2106 202.23 79.6606 201.65 79.9406C197.36 82.0006 192.45 84.4606 187.6 85.1406C186.05 85.3606 180.39 85.5306 179.3 84.9506C178.25 84.4006 176.94 82.3106 176.42 81.2806C172.37 73.2706 172.6 68.6406 172.3 60.0506C171.8 45.4106 168.97 25.6806 157.08 14.9506C153.76 11.9506 145.74 5.36062 141.76 4.04062C132.76 1.06062 123.83 4.07062 115.14 4.31062C109.04 4.48062 102.91 0.240616 96.98 0.0706158C92.25 -0.0593842 86.2 0.860616 82.06 3.04062C76.35 6.04062 66.71 15.4206 63.11 20.5006C61.25 23.1306 59.68 26.0606 58.17 28.8706C49.79 44.4606 43.86 59.4506 28.59 70.6306C21.09 76.1206 12.56 80.2006 3.26996 82.4406C1.32996 85.0806 3.76996 85.7006 6.28996 85.9606C12.9 86.6406 17.41 85.3606 23.43 83.7606C30.03 82.0006 36.78 80.6606 43.06 78.0706C40.97 80.6806 38.94 83.3606 36.97 86.0606C27.76 98.7006 17.95 112.951 2.36996 119.111C1.77996 119.341 0.889962 118.831 0.979962 119.861L2.12996 119.901C2.76996 120.651 2.06996 121.481 2.15996 122.151L2.18996 122.091ZM190.51 163.251H190.22L189.92 161.881C190.71 162.201 190.83 162.551 190.51 163.251ZM163.64 119.461C169.07 126.751 171.72 130.961 175.14 139.331C177.19 144.351 178.81 147.941 181.42 152.791C185.82 161.001 189.72 171.371 191.07 180.471C191.71 184.801 191.2 189.051 191.41 193.381C191.85 202.591 192.84 211.561 192.3 220.861C192.02 225.651 190.76 230.421 190.22 235.171C189.43 242.101 189.46 217.141 188.72 224.061C188.24 228.561 186.85 232.991 186.34 237.491C184.45 238.851 181.99 237.971 179.61 237.941C169.66 237.821 159.4 238.811 149.17 238.511C144.28 238.371 139.39 237.641 134.58 237.401C123.82 236.871 113.1 237.571 102.34 237.391C90.71 237.191 79.06 236.301 67.41 235.751C66.6 235.711 62.61 235.431 62.31 235.231C62.07 235.071 61.91 234.821 61.91 234.541L62.49 228.731C61.91 209.261 62.22 222.131 61.7 202.671C61.66 201.071 61.42 194.831 61.94 193.961C62.16 193.591 62.62 193.561 62.87 193.151C63.2 192.611 63.5 190.771 63.75 190.541C63.91 190.391 64.51 190.401 64.88 190.081C68.32 187.121 74.67 177.271 76.34 173.141C79.6 165.071 79.99 153.881 80.71 145.271C80.85 143.571 81.7 141.421 81.87 139.741C82.06 137.831 81.41 136.091 81.61 134.271C81.92 131.361 84.56 127.311 84.56 124.341C84.56 122.611 84.65 120.841 84.56 119.121C84.56 119.101 83.84 118.471 84.7 118.711C85.68 118.981 86.85 119.841 87.84 120.211C97.92 123.961 108.72 126.051 119.55 123.861C131.61 121.421 141.85 113.891 149.32 105.091C151.15 104.251 154.47 107.831 155.58 109.021C158.55 112.181 161.11 116.071 163.64 119.461ZM151.72 101.381C151.85 101.111 152.47 102.261 152.61 102.481C151.84 102.561 151.61 102.011 151.72 101.381ZM60.86 65.0906C62.53 62.6406 67.14 59.4506 69.47 57.0706C74.73 51.7306 79.15 45.6806 84.41 40.3106C91.47 33.1106 98.06 25.5006 104.39 17.7506C105.95 15.8306 107.04 13.7306 109.35 12.4106C111.47 12.9106 115.91 13.3206 113.55 16.0506L113.64 16.4106C116.98 18.1106 119.8 20.5206 122.66 22.8306C127.53 26.7606 132.32 31.0206 137.2 35.0106C145.36 41.6806 150.26 44.5406 153.49 55.0606C154.11 57.0706 154.41 60.1506 155.07 61.8506C155.24 62.2906 155.77 62.4406 155.89 63.0206C156.5 65.8806 156.66 75.1806 156.45 78.3806C155.13 98.6906 135.73 120.381 113.08 121.711C102.67 122.331 92.36 118.831 83.22 114.581C81.8 113.501 82.67 112.381 82.09 111.631C81.52 110.901 78.88 108.551 77.9 107.521C72.6 101.981 68.69 96.7906 64.53 90.5406C63.45 88.9206 62.13 87.2806 61.66 85.2206C60.85 81.6706 60.2 73.5806 60.21 69.8406C60.21 68.6906 60.29 65.9206 60.86 65.0906Z" fill="#181818"/>
<path d="M137.78 81.8806L137.99 82.2006L137.67 82.5206L136.49 81.8806H137.78Z" fill="#181818"/>
<path d="M118.44 77.7606H118.15V79.8506H118.44V77.7606Z" fill="#181818"/>
<path d="M94.85 54.3406C95.38 59.0806 95.27 66.2306 91.89 70.0106C90.08 72.0306 85.64 69.3706 84.95 67.2406C83.94 64.1006 83.97 59.8406 85.14 56.7506C86.83 52.3106 91.27 54.4806 94.85 54.3406Z" fill="#181818"/>
<path d="M129.59 54.5906C137.8 52.6906 136.52 67.7506 129.23 69.9806C121.1 72.4606 122.87 56.1506 129.59 54.5906Z" fill="#181818"/>
<path d="M75.68 41.6606C76.1 39.1706 83.15 40.9406 85.06 40.9006C86.96 40.8506 91.45 40.3206 93.21 39.7806C95.73 39.0206 99.7 36.0806 101.12 35.8506C103.78 35.4206 104.69 38.3206 102.17 39.9406C96.19 43.8106 86.79 45.1206 79.83 44.1006C78.57 43.9106 75.35 43.6706 75.68 41.6606Z" fill="#181818"/>
<path d="M138.64 49.4606C132.99 49.3106 122.13 43.7506 118.74 39.0906C118.04 38.1306 117.74 37.4606 118.37 36.2806C119.98 33.7606 124.21 39.4306 125.54 40.4406C126.87 41.4506 129.23 42.9606 130.81 43.5806C133.09 44.4606 140.02 45.3006 140.85 47.0306C141.68 48.7606 140.26 49.5106 138.64 49.4706V49.4606Z" fill="#181818"/>
<path d="M134.75 82.2706C135.06 91.1806 118.76 97.8206 111.51 98.4706C105.34 99.0206 92.04 96.8306 87.85 91.9806C86.65 90.5906 86.38 86.6906 88.88 86.8206C94.55 88.1406 99.02 93.2706 105.13 93.0806C108.58 92.9706 115.77 91.1206 119.05 89.7006C125.09 87.0806 128.16 80.4306 134.75 82.2806V82.2706Z" fill="#181818"/>
</svg>
