<svg width="149" height="264" viewBox="0 0 149 264" fill="none" xmlns="http://www.w3.org/2000/svg">
<path d="M103.67 75.5703C103.77 75.7303 103.45 78.8703 103.37 79.3103C102.79 82.4103 98.3 88.9603 95.93 91.1203C89.8 96.6903 77.26 101.94 69.11 99.9203C63.26 98.4703 57.67 96.7103 52.69 93.2403C52.05 92.8003 48.9 90.2203 48.91 89.7203C49.79 88.5303 50.53 87.3103 52.27 87.6103C53.32 87.7903 57.61 90.4903 59.1 91.1903C66.27 94.5503 70.86 97.1103 79.12 95.2403C85.59 93.7703 96.29 86.4103 98.9 80.2003C99.38 79.0603 99.94 75.5303 100.54 74.8103C100.72 74.6003 101.06 74.2903 101.31 74.2203C102.02 74.0303 103.4 75.0903 103.68 75.5803L103.67 75.5703Z" fill="black"/>
<path d="M100.51 46.2503C101.63 47.2303 103.06 47.5403 101.87 49.4003C100.01 49.4403 98.4 48.3503 96.55 48.3403C94.59 48.3403 93.43 49.5703 91.53 49.3903C90.47 49.2903 89.68 48.3803 89.24 48.4203C87.11 48.6203 85.02 53.1703 82.53 50.6703C81.38 49.5103 82.28 48.1103 83.34 47.2103C85.89 45.0303 95.01 41.3103 97.88 43.6903C98.63 44.3103 99.74 45.5703 100.52 46.2403L100.51 46.2503Z" fill="black"/>
<path d="M64.82 51.6403C64.1 52.4703 60.54 51.5603 59.07 51.7503C56.4 52.1003 52.34 53.9303 50.2 55.6003C48.51 56.9103 47.59 59.4503 45.25 58.1503C42.91 56.8503 45.72 54.2603 47.09 53.0703C50.02 50.5003 56.13 47.6503 60.05 47.7103C61.28 47.7303 62.25 48.7403 63.68 48.0803C64.47 48.8703 65.69 50.6403 64.82 51.6403Z" fill="black"/>
<path d="M57.79 58.1403C60.1 57.7603 63.03 60.8003 62.49 63.2003C62.31 64.0003 59.76 66.7203 59.03 66.7903C58.57 66.8303 55.49 66.3303 55.05 66.0803C51.37 64.0003 54.42 58.6903 57.78 58.1403H57.79Z" fill="black"/>
<path d="M95.57 54.8803C98.31 57.0903 97.38 59.5403 96.35 62.4003C94.92 62.7703 93.64 61.9303 92.4 61.6203C91.44 61.3803 90.39 62.2503 89.61 60.3403C88.69 58.0903 90.54 56.5303 90.73 54.2703C91.76 52.6003 94.41 53.9403 95.58 54.8803H95.57Z" fill="black"/>
<path d="M119.84 101.42C131.02 94.1803 142.28 83.4403 146.55 70.4603C149.25 62.2603 147.83 46.2803 146.09 37.6503C145.13 32.9003 133.75 20.0303 129.6 16.9303C122.95 11.9503 109.55 3.89034 101.3 3.36034C100.28 3.29034 95.17 4.13034 93.98 4.40034C90.05 5.30034 86.29 7.73034 81.9 6.12034C81.47 5.96034 81.47 5.47034 81.36 5.42034C75.1 2.55034 73.58 0.570337 65.96 0.110337C46.79 -1.05966 30.15 7.45034 20.54 23.9803C14.22 34.8503 9.04999 46.7503 5.39999 58.6103C4.04999 63.0103 3.48999 72.5003 5.03999 76.8403C5.66999 78.6103 9.63999 85.4103 10.83 86.7303C11.53 87.5103 12.65 87.7303 13.35 88.5303C19.03 94.9803 20.78 98.8203 29.12 102.99C34.73 105.8 40.33 108.94 46 111.69C49.88 113.57 55.31 113.94 59.59 115.31C60.74 115.68 62.99 116.51 63.86 117.31C54.16 118.69 44.35 120.61 36.67 127.1C22.49 139.06 14.85 164.63 9.29999 182.06C5.29999 194.63 1.56999 208.09 1.06999 221.27C0.69999 230.99 0.12999 241.81 -0.0100098 252.22C0.33999 252.33 0.68999 252.47 1.03999 252.59C1.05999 252.19 1.06999 251.79 1.08999 251.38C2.69999 253.28 6.53999 251.91 8.72999 251.86C32.15 251.3 58.05 255.25 80.98 259.65C99.9 263.28 115.05 264.92 134.31 263.49C137.56 263.25 136.7 263.56 139.56 262.7C140 262.57 140.68 262.44 141.41 262.28C141.43 262.64 141.45 263 141.47 263.37C141.62 263.35 141.76 263.33 141.9 263.31C141.88 262.93 141.87 262.56 141.85 262.19C143.23 261.88 144.67 261.46 145.03 260.73C145.91 258.94 145.18 256.61 143.1 256.18L141.52 256.56C141.46 255.88 141.4 255.25 141.34 254.67C142.17 255.06 143.09 255.26 143.58 255.1C144.89 254.66 144.35 251.56 144.56 250.47C144.7 249.78 144.83 249.35 144.94 249.12C142.58 218.88 136.71 190.09 123.57 161.56C121.85 157.83 120.44 157.27 120.04 152.9C119.76 149.82 119.72 145.11 119.09 142.32C118.73 140.7 112.26 131.39 110.83 129.65C108.98 127.4 98.62 118.01 98.42 116.56C98.36 116.12 98.7 115.54 98.64 114.87C98.6 114.48 97.92 114.05 97.91 113.82C97.85 112.56 117.16 103.15 119.83 101.42H119.84ZM100.69 205.38C105.3 211.61 110.48 214.55 117.83 217.08C119.43 217.63 120.72 218.02 122.47 217.78C121.41 216.06 122.91 215.26 122.86 213.96C122.76 211.33 120.37 205.77 119.62 202.73C116.17 188.68 114.04 180.18 116.53 165.57C116.63 164.98 117.46 162.19 117.7 161.62C117.98 160.95 117.82 160.92 118.74 161.04C122.83 170.38 126.84 179.09 129.68 188.94C135.63 209.57 138.94 230.34 140.66 251.42C140.38 250.98 140.05 251.39 139.66 253.02C139.71 253.54 140.23 254.05 140.9 254.45C140.96 255.19 141 255.94 141.05 256.68L132.01 258.88C104.65 261.23 78.85 251.86 51.99 249.1C41.17 247.99 27.17 246.26 16.57 246.01C14.86 245.97 5.26999 247.1 4.78999 246.76L5.69999 244.65C5.58999 218.19 3.19999 249.31 4.78999 222.67C5.98999 202.54 15.32 178.48 21.86 159.27C24.42 151.74 28.67 143.83 33.63 137.55C44.44 123.87 63.33 118.19 79.75 124.43C80.94 124.88 82.49 125.54 83.03 126.73C83.47 130.34 85.1 134.09 85.66 137.58C86.6 143.42 85.63 150.98 86.22 157.02C87.05 165.46 90.97 192.21 95.35 198.13C97.12 200.52 98.86 202.92 100.67 205.37L100.69 205.38ZM72.25 117.79L74.57 117.32V118.71L72.25 118.24V117.79ZM82.11 113.97C80.57 114.1 79.66 113.16 78.09 113.24C72.78 113.52 71.83 114.14 66.09 113C61.32 112.06 54.84 110.49 50.66 108.87C44.14 106.35 35.31 101.77 29.14 98.3203C22.07 94.3803 20.67 92.0103 15.74 86.1403C12.94 82.8003 9.35999 80.0103 8.05999 75.4503C10.46 76.7103 10.78 74.5203 11.15 74.4703C11.72 74.3903 12.56 75.0903 13.32 74.9103C13.87 74.7803 15.78 72.6603 16.67 72.1703C20.17 70.2103 23.39 68.0603 25.59 64.1303C26.93 61.7403 27.16 62.2103 29.23 60.1003C32.05 57.2403 38.83 47.0303 41.29 45.6503C42.3 45.0803 43.36 45.2003 44.5 44.6703C48.88 42.6403 55.58 36.1603 60 33.2003C64.9 29.9203 70.11 27.4703 76.19 27.5003C79.32 27.5103 83.96 29.6803 86.51 29.7203C90.67 29.7703 94.38 26.6503 99.81 28.5703C100.67 28.8703 100.92 29.7503 101.53 30.0403C101.96 30.2503 102.86 29.9603 103.89 30.5103C105.56 31.4103 105.4 32.4903 106.35 33.4203C110.33 37.3003 114.69 40.5603 118.27 44.9903C127.14 55.9703 129.3 72.2203 130.86 85.8803C130.74 86.7803 128 89.3203 127.13 90.1003C120.2 96.3103 90.84 113.21 82.11 113.96V113.97Z" fill="black"/>
<path d="M146.25 262.88C146.09 255.16 145.72 247.62 144.95 249.13C145.31 253.69 145.58 258.28 145.79 262.9C145.95 262.9 146.1 262.89 146.26 262.88H146.25Z" fill="black"/>
</svg>
