<svg width="140" height="260" viewBox="0 0 140 260" fill="none" xmlns="http://www.w3.org/2000/svg">
<path d="M104.644 9.53346C106.084 10.9035 106.384 10.9035 107.834 11.8635C108.804 12.5035 110.034 14.2135 110.184 14.3035C110.444 14.4635 110.924 14.3135 111.414 14.6235C112.964 15.5935 114.214 18.6635 115.284 19.5735C116.064 20.2335 117.084 20.7435 117.884 21.6635C122.294 26.7335 128.194 31.4135 128.934 38.8335C128.454 39.9635 128.854 43.4035 128.134 44.0335C127.714 44.3935 126.934 43.9235 127.324 45.2235C127.454 45.6535 129.284 47.5335 129.714 48.1735C131.594 50.9935 133.894 57.2835 133.364 60.6535C133.094 62.3435 132.464 62.7735 130.944 63.3835C131.584 65.0835 132.654 66.9835 133.224 68.6735C133.404 69.2135 133.274 69.7635 133.384 70.1235C134.514 73.5635 136.914 79.3835 136.364 82.9335C136.264 83.5735 135.364 83.8335 135.424 84.5335C137.354 90.1235 135.944 95.6335 137.134 101.343C137.294 102.103 137.534 103.193 137.724 103.943C138.294 106.263 140.424 110.673 139.484 112.813C139.204 113.453 138.014 114.383 137.984 114.503C137.944 114.693 138.144 115.283 138.114 115.683C137.944 118.213 137.584 120.853 137.614 123.363C137.624 124.303 138.274 126.233 137.644 126.873C137.354 127.163 136.454 127.083 136.434 127.753C137.204 132.483 137.274 137.233 137.034 142.023C136.544 143.323 135.224 143.043 134.614 143.983C134.924 145.103 134.714 146.273 134.814 147.403C135.014 149.563 135.584 151.643 135.244 153.833C135.164 154.353 134.314 155.023 134.344 155.653C134.364 156.153 134.974 156.423 135.174 156.923C136.054 159.043 135.264 161.993 135.194 164.073C135.044 168.783 135.924 174.113 134.794 178.733C134.774 178.833 133.794 179.453 133.784 180.343C133.784 180.473 134.144 180.493 134.224 180.683C135.974 185.053 137.544 191.763 138.464 196.443C138.654 197.433 138.954 198.423 138.844 199.443C137.894 199.993 136.824 199.683 135.844 199.413L133.454 194.603L132.744 194.423C132.514 194.633 133.074 199.613 132.984 200.623C132.954 200.953 132.634 202.423 132.544 202.813C132.384 203.493 131.964 204.713 131.604 205.233C130.964 204.803 130.414 205.123 129.914 205.033C128.884 204.843 128.304 199.063 128.064 197.953C127.944 197.383 127.554 195.493 126.994 195.353L126.414 195.683C126.934 196.833 126.184 197.833 126.084 198.923C126.054 199.203 126.254 199.543 126.224 199.863C126.164 200.593 126.004 201.323 126.034 202.083C121.964 203.463 123.544 200.773 123.024 198.093L123.384 192.643L122.804 192.383C122.624 194.323 120.454 194.743 119.304 193.243C119.034 192.323 120.534 188.893 120.834 187.683C121.374 185.533 122.644 179.233 121.664 177.413C121.404 176.933 120.494 176.593 120.114 175.923C119.314 174.513 120.304 171.723 122.044 171.683C122.124 168.783 121.144 165.943 121.804 163.053C121.434 160.643 122.344 158.173 122.464 155.733C121.944 155.173 119.174 158.203 117.764 156.593C117.344 156.113 117.414 152.893 117.484 152.153C118.044 146.453 120.574 141.093 120.734 135.053C120.734 134.693 120.564 132.553 120.404 132.433C118.164 132.603 117.104 132.763 116.974 130.223C116.834 127.443 117.434 124.403 117.794 121.643L117.444 121.283C113.924 121.623 115.074 119.593 114.324 117.213C114.304 116.493 114.544 115.653 114.564 114.973C114.774 109.193 115.064 103.283 115.784 97.5035C116.084 95.0635 116.914 92.6335 116.794 90.0835L116.334 89.9535C115.774 91.0335 113.524 91.8935 112.834 92.8435C112.234 93.6835 112.114 95.0735 111.694 95.9835C111.134 97.2135 109.834 98.7435 109.014 99.8835C108.484 100.623 107.554 102.163 107.094 102.533C105.924 103.473 104.044 104.133 102.944 105.083C100.604 107.113 99.1239 108.103 96.3239 109.693C93.5239 111.283 90.9039 112.633 87.9239 113.693L87.5739 114.053C87.9139 114.573 88.1339 115.433 88.4339 115.893C88.5739 116.113 88.8939 116.213 89.0739 116.473C93.9639 123.653 96.8839 131.683 100.474 139.353C101.124 140.743 101.234 141.973 101.964 143.363C104.234 147.693 105.974 152.353 108.064 156.793C113.594 168.583 115.624 180.693 117.584 193.493C119.964 209.013 119.594 224.433 119.344 240.133C119.294 243.433 118.634 247.863 119.044 251.053C119.124 251.653 119.604 252.283 119.614 252.783C119.634 253.523 118.994 253.793 118.854 254.383C118.654 255.253 119.034 255.943 119.004 256.713C118.984 257.193 118.634 259.253 118.264 259.343C118.124 259.373 116.934 259.093 116.734 259.003C115.244 258.313 115.324 255.263 115.834 253.903C113.624 253.783 111.424 253.443 109.214 253.293C107.314 253.163 105.014 253.313 103.164 253.153C97.8239 252.703 93.8339 251.433 88.3339 252.133C84.6639 252.603 80.9039 253.703 77.1939 254.143C75.5039 254.343 73.4939 254.253 71.8739 254.443C67.1339 254.983 62.5939 256.233 58.0239 256.723C54.0039 257.163 50.0739 256.823 46.1439 256.283C44.4739 256.053 40.6439 254.043 41.2639 251.903C41.2839 251.833 42.3239 251.123 42.3939 251.113C42.5039 251.093 43.5739 251.763 44.1939 251.863C46.4339 252.203 49.7339 252.463 52.0839 252.663C58.3439 253.203 63.0139 251.163 69.0339 250.623C69.9339 250.543 71.3539 250.683 72.2039 250.603C81.8139 249.733 91.3339 246.443 101.014 249.283L115.744 249.903C115.864 248.743 116.314 247.183 116.364 246.073C116.524 242.573 116.284 238.643 116.394 235.113C117.134 213.013 115.814 190.623 109.954 169.153C108.234 162.863 105.494 159.073 103.004 153.373C102.424 152.033 102.044 150.333 101.454 148.973C99.6039 144.683 97.4939 140.613 95.6239 136.423C93.4939 131.673 91.5939 125.473 88.7839 121.223C87.7339 119.643 85.9139 118.273 85.5739 116.433L84.9539 116.363V115.213C82.8239 115.633 80.8739 117.203 78.8039 117.663C73.3139 118.863 67.2739 119.143 61.6539 118.663C60.4039 118.553 59.8939 117.663 59.7839 117.653C58.8839 117.613 58.0939 117.823 56.9739 117.593C55.2239 117.233 52.8739 115.573 52.0639 118.253C51.6639 119.583 51.4439 121.343 51.0239 122.723C50.3839 124.823 49.2539 127.103 48.5239 129.253C48.2039 130.183 48.1239 131.823 47.7439 132.793C47.4939 133.423 46.4839 134.453 46.3639 134.943C45.8139 137.353 45.1039 139.353 44.5039 141.683C44.1839 142.943 44.2139 144.683 43.7939 145.973C40.8739 154.893 39.5139 165.803 38.8339 175.683C37.9739 188.343 39.0139 200.853 38.9139 213.483C38.8439 222.263 38.7239 231.463 38.2439 240.273C38.0039 244.533 37.6939 248.783 37.4539 253.043C36.9739 254.173 35.0739 253.093 34.6939 252.523C34.3439 252.003 34.5839 249.353 34.6339 248.523C35.0539 242.143 35.7239 235.903 35.9239 229.453C36.2239 220.003 36.3239 209.353 35.7639 199.793C34.5739 179.553 36.0939 158.993 41.3039 139.183C43.0539 132.513 46.4839 125.933 48.3939 119.383C48.7439 118.163 48.9339 116.823 49.2739 115.593C48.4039 115.653 47.7039 115.303 46.9539 114.923C41.1239 112.003 33.3139 104.913 29.2239 99.8935C29.1339 99.7735 29.0939 99.2435 28.7039 99.5735C28.5239 99.7235 27.9039 103.353 27.7139 103.983C27.3639 105.143 26.1839 105.613 26.2539 107.293C27.1039 109.713 28.3639 111.993 29.2839 114.373C30.5439 117.643 31.2639 120.263 31.0939 123.863C30.9939 126.063 29.7439 133.553 28.7839 135.353C28.6239 135.663 28.2339 135.673 28.1239 135.903C27.6839 136.803 27.1839 138.533 26.5539 139.243C26.1739 139.683 24.3539 140.243 23.5539 141.343C22.9439 142.173 23.2739 143.033 21.9639 143.513V143.853C22.1339 143.883 22.4139 143.953 22.5239 144.093C23.2539 145.003 24.5439 150.483 24.6239 151.803C24.7339 153.623 24.1539 157.943 22.6039 159.063C22.3539 159.243 21.8739 159.203 21.8039 159.273C21.6239 159.463 21.8339 160.193 21.7339 160.503C21.6639 160.723 21.1739 160.583 20.8939 160.843C19.5839 162.103 21.0539 163.913 21.5539 165.373C21.9639 166.563 22.6239 168.233 22.7139 169.453C22.9239 172.313 22.6039 176.153 21.6439 178.823C24.5339 179.993 22.6539 181.653 20.5739 182.293C20.9139 184.133 23.1639 185.103 21.6239 187.223L23.5639 188.633C23.4939 190.393 23.1939 192.143 23.2039 193.893C23.2539 198.293 24.4639 204.693 22.6739 208.793C21.9339 210.473 21.7539 209.523 21.1339 209.393C20.8339 209.333 20.6039 209.783 20.2739 209.743C18.3139 209.523 18.4139 206.553 16.7739 205.903L15.7539 208.093C14.8739 207.393 14.8239 208.073 14.2139 208.133C13.7139 208.183 13.0939 207.683 12.7139 207.923C12.2039 208.723 11.7439 211.183 10.8839 211.543C10.3139 211.783 8.70386 211.723 8.12386 211.493C7.34386 211.193 7.61386 210.373 6.85386 210.093C6.81386 208.713 6.52386 207.163 6.49386 205.803C6.46386 203.853 6.39386 200.713 6.54386 198.823C6.64386 197.503 6.96386 194.503 8.72386 194.573C9.02386 194.583 10.0739 195.253 10.1539 195.403C10.5639 196.193 9.60386 199.173 10.1239 200.253L10.8139 197.103C10.7639 195.593 11.1539 194.303 12.0539 193.123L13.7839 193.633C13.5439 192.093 15.1139 193.003 14.8039 191.573C13.8739 192.003 12.4039 192.123 11.4139 191.893C10.8739 191.763 10.6739 191.213 10.1739 191.013C9.39386 190.713 8.48386 190.803 7.65386 190.203C7.52386 190.113 5.78386 187.983 5.70386 187.853C4.81386 186.293 5.49386 182.243 6.83386 181.073C7.17386 180.783 7.78386 180.833 7.81386 180.633C7.96386 179.583 7.38386 178.583 7.29386 177.543C6.95386 173.413 8.28386 169.233 8.78386 165.183C8.93386 163.953 9.91386 162.863 7.59386 163.273C7.38386 162.003 7.23386 160.693 7.17386 159.403C7.09386 157.563 7.21386 155.163 7.44386 153.203C7.73386 150.733 8.43386 148.273 8.67386 145.823C8.07386 145.343 8.38386 146.443 7.24386 146.483C6.02386 146.533 5.18386 146.133 5.09386 144.863C4.81386 141.273 6.37386 135.813 7.22386 132.333C7.79386 129.993 8.49386 127.683 8.93386 125.313C7.55386 126.683 6.38386 128.283 4.63386 129.293L2.14386 128.543C2.29386 127.803 1.69386 126.823 1.70386 126.303C1.71386 123.423 2.87386 119.133 3.47386 116.323C3.90386 114.283 4.06386 112.513 4.82386 110.493C5.05386 109.873 6.45386 107.313 6.43386 107.133C6.39386 106.763 6.11386 106.833 5.82386 106.943C4.40386 107.473 0.863859 109.553 0.273859 106.763C-0.406141 103.553 0.293859 98.9535 1.13386 95.7735C1.59386 94.0535 2.23386 93.1335 2.97386 91.6935C3.28386 91.0935 4.61386 88.7635 4.65386 88.4135C4.72386 87.7635 3.97386 88.2535 3.33386 88.0635C2.72386 87.8835 2.61386 87.3635 2.42386 87.2835C2.13386 87.1635 1.70386 87.2435 1.26386 87.0435C-0.756141 86.1035 0.403859 81.5535 0.763859 79.8135C0.863859 79.3135 1.06386 78.2135 1.16386 77.8435C1.80386 75.4635 3.86386 72.3435 5.15386 70.2335C5.61386 69.4835 7.23386 67.5535 7.41386 66.8435C7.53386 66.3635 7.33386 66.5335 7.07386 66.4835C6.12386 66.2835 4.69386 66.3135 3.86386 65.8535C2.78386 65.2435 1.50386 62.9735 2.34386 61.8435L3.67386 61.5535C3.68386 60.0435 2.64386 60.5335 2.22386 59.9935C2.17386 59.9235 1.71386 58.5235 1.70386 58.4335C0.483859 49.9735 0.703859 44.0135 2.67386 35.6635C3.62386 31.6135 4.53386 28.1135 7.40386 24.9635C9.44386 22.7335 12.0239 21.2135 14.1639 19.4135C18.4539 15.8035 21.5139 10.7935 26.1639 7.02346C26.3739 6.85346 26.3739 6.41346 26.6139 6.18346C26.8139 5.99346 31.2939 4.31346 31.7439 4.21346C32.4739 4.06346 33.1439 4.24346 33.6439 4.14346C33.8839 4.09346 33.8639 3.61346 34.2139 3.50346C34.8039 3.30346 36.1239 3.39346 36.8839 3.23346C45.5339 1.39346 54.7239 0.0934622 63.0239 4.02346C64.4639 4.70346 65.0939 6.22346 66.4439 4.68346C68.2039 2.66346 70.3839 0.263462 73.3439 0.00346225C73.8239 -0.0365378 74.3539 0.283462 74.9139 0.273462C87.8939 0.0334622 94.7639 0.0934629 104.654 9.50346L104.644 9.53346ZM109.014 16.2635C104.884 12.7435 98.9139 8.35346 94.3839 5.43346C90.6539 3.02346 82.4639 3.40346 78.0339 3.45346C75.8039 3.48346 73.2339 2.83346 71.3539 4.22346C69.4739 5.61346 67.6539 9.10346 65.1439 9.17346C64.3339 9.19346 61.5339 6.29346 60.1539 5.79346C56.0339 4.30346 52.9739 4.09346 48.6239 4.58346C44.6539 5.03346 40.0539 5.61346 36.2139 6.43346C33.4839 7.01346 29.3039 7.87346 27.3739 9.96346C26.0439 11.4035 24.6439 13.3435 23.3239 14.8135C21.7039 16.6335 19.5039 19.4735 17.8339 21.0135C15.6239 23.0435 12.5939 24.8135 10.3039 27.0735C6.95386 30.3835 5.53386 37.9635 4.71386 42.5335C4.28386 44.9435 3.99386 47.3935 4.14386 49.8235C4.81386 49.9735 4.52386 49.6635 4.68386 49.3335C5.32386 48.0035 6.79386 44.9335 7.86386 44.0135C8.93386 43.0935 10.7239 44.0035 10.6639 45.0835C10.6239 45.7935 9.31386 47.3035 8.91386 48.0735C7.74386 50.3335 6.95386 52.7935 6.77386 55.3535C6.67386 56.7735 7.57386 61.4635 7.00386 62.3135C6.81386 62.5935 5.98386 62.5735 6.15386 63.3135C6.22386 63.6035 6.57386 63.7235 6.89386 63.6435C7.87386 63.4135 10.5639 62.7935 11.3039 62.3435C12.0439 61.8935 12.9139 60.5635 13.6339 60.0135C14.4739 59.3735 15.5239 59.3535 16.1339 58.8435C18.3139 57.0335 22.3539 50.2335 23.6439 47.5335C24.1539 46.4635 24.9339 43.3035 25.8939 42.9235C26.4939 42.6935 27.1039 42.9835 27.6039 42.8435C28.1439 42.6935 28.7039 41.0335 30.4139 41.8835L35.5339 46.4735C35.1739 45.0835 36.9639 44.6935 37.2039 44.3935C37.3339 44.2235 37.3739 43.4335 37.6039 43.0035C38.2439 41.7935 41.0239 37.0835 41.9239 36.5035C42.7439 35.9835 44.0839 35.6335 45.0039 36.0535C46.4939 36.7435 45.6039 45.2935 49.8139 42.1635C50.8739 41.3835 50.5739 40.8435 51.0839 39.8935C52.4239 37.3635 53.5839 34.7435 54.6239 32.0635C55.6639 29.3835 55.5639 25.1535 59.7539 26.3035C59.9739 26.3635 61.9039 27.7835 62.0739 27.9735C62.5039 28.4735 62.6839 29.5235 63.0739 30.1935C64.2539 32.2335 65.5639 34.7435 66.7639 36.6535C68.6539 39.6635 70.0539 34.8435 71.3639 33.5835C72.0039 32.9635 73.2239 32.6535 73.7739 32.1935C74.6239 31.4835 75.4139 29.4935 76.3739 28.6935C76.8839 28.2635 77.5739 28.1535 78.0839 27.6235C78.4039 27.2835 78.5739 26.6735 78.6239 26.6335C78.6839 26.5835 80.0839 26.2935 80.2139 26.3135C82.0939 26.6535 82.4739 30.9335 83.0139 32.4135C83.0939 32.6435 83.4139 32.6435 83.5039 32.9035C84.1439 34.6535 84.4039 37.0135 86.1139 38.0735C86.2739 38.0435 88.1739 35.8435 88.3239 35.5935C90.3639 32.1635 91.3639 28.3935 94.1539 25.1435C95.2139 23.9035 97.1539 22.5435 98.7739 23.6035C98.1939 25.2135 97.9839 26.4335 98.1239 28.1835C98.2839 30.0635 98.9939 32.0635 99.2339 33.8835C99.9239 39.1935 100.444 44.2735 101.244 49.5035C101.344 50.1735 101.754 52.0435 102.104 52.5135C102.394 52.8935 102.594 52.5835 102.794 52.2935C103.404 51.3835 104.714 49.2135 105.124 48.2535C106.114 45.9635 106.304 43.1435 107.254 40.8135C108.414 40.6335 109.894 40.8935 109.994 42.3235C110.024 42.7335 109.624 43.0735 109.584 43.5935C109.154 48.7935 109.164 53.9435 108.954 59.2135C108.854 61.6735 108.314 64.6735 108.374 67.1135C108.424 69.1535 108.624 70.0835 110.204 68.1135C111.694 66.2535 112.134 63.8135 113.774 62.2635C114.364 60.7135 114.594 58.4535 115.204 57.0035C115.994 55.1235 120.954 57.4235 122.334 58.0735C123.154 58.4535 124.334 59.4835 125.134 59.7535C125.804 59.9835 125.254 58.8135 125.744 58.4835C126.094 58.2535 127.904 58.8635 128.294 59.0735C128.834 59.3735 128.904 60.7635 129.884 60.3135C130.554 60.0035 130.524 58.0035 130.474 57.2935C130.444 56.8435 129.734 54.1335 129.524 53.7035C129.374 53.3835 129.044 53.3835 128.944 53.1035C128.314 51.4335 128.504 52.3935 128.024 51.7235C127.834 51.4635 127.944 50.9135 127.794 50.5935C127.124 49.1235 123.184 44.1835 121.654 43.4735C120.604 42.9835 118.894 42.5935 117.754 42.1335C116.204 41.5135 115.974 41.7235 114.734 41.3635C114.554 41.3135 114.604 40.8935 114.464 40.8835C113.884 40.8335 112.604 41.4735 111.904 40.7935C111.194 37.1535 114.864 38.1735 117.064 38.7335C119.634 40.0935 122.394 40.8735 125.154 41.7635C125.474 41.6935 125.674 41.0135 125.734 40.7135C126.274 38.2835 124.104 32.5335 122.634 30.5735C122.344 30.1935 121.444 29.7335 121.014 29.2635C118.844 26.9335 116.684 24.5835 114.564 22.2135C112.844 22.0835 112.864 20.5435 111.974 19.2735C111.424 18.4835 109.754 16.9235 108.984 16.2635H109.014ZM95.2639 29.5935C94.8739 29.4935 94.7839 29.6735 94.5839 29.9435C94.0439 30.6635 93.1639 32.1835 92.6939 33.0135C91.9539 34.3335 91.6839 35.4735 91.0739 36.8435C90.5839 37.9335 88.8939 39.5835 88.0739 40.6435C87.6339 41.2135 87.7839 42.2235 86.5739 42.0635L86.7839 42.5235C85.9439 42.8935 84.9939 42.5635 84.2639 42.0535C82.3639 40.7135 79.9639 33.2335 79.3439 30.7935C78.6239 30.1335 76.7939 33.4635 76.3039 33.9435C75.5739 34.6635 73.9839 35.3535 73.3639 35.9835C72.5539 36.8235 71.7339 38.9635 70.8039 39.9035C69.8739 40.8435 67.8339 41.9035 66.5639 41.0935C65.8339 40.6335 64.3239 39.3335 63.9939 38.5535C63.9139 38.3635 64.1539 38.0235 64.0839 37.9035C63.2439 36.5335 62.1039 34.8935 61.3139 33.3835C60.9239 32.6335 59.6139 29.2435 58.9939 29.2535C58.0739 30.6635 57.9539 32.5835 57.4039 34.0935C56.3839 36.9035 55.0039 39.2835 53.5939 41.8835C53.3339 42.3635 53.3339 43.0235 53.0239 43.4535C52.0139 44.9035 48.5739 45.8035 46.8639 45.7835C45.1539 45.7635 44.2139 43.8535 43.6839 42.4435C43.5739 42.1435 43.3839 40.2335 42.8739 40.9435C42.6239 41.9435 41.9039 42.6535 41.4439 43.5235C41.1139 44.1535 40.7839 45.6135 40.4339 46.0735C40.1139 46.5035 39.3839 46.4135 39.1239 46.8435C38.7139 47.5435 39.4439 48.6435 39.1039 49.4935C38.9539 49.8535 38.4339 49.8635 38.2839 50.0835C37.9939 50.4935 38.5239 51.8335 37.1839 52.2835C37.3839 54.9535 38.0639 57.7835 38.0039 60.4435C37.9539 62.8135 37.4539 64.2235 36.6239 66.2735C36.2439 67.2235 36.2839 68.9435 35.7439 69.9335C35.4539 70.4735 34.9039 70.5335 34.7839 70.8435C34.5639 71.4235 34.7839 72.3535 34.4539 73.1535C34.3439 73.4135 33.4339 74.5535 33.1239 75.1235C32.8539 75.6335 32.1939 77.6135 32.0739 77.7535C31.9539 77.8935 30.6939 78.0235 30.1939 78.2635C28.8939 78.8735 27.5839 80.5035 26.4239 81.4135C26.6539 81.9835 27.0639 82.4535 27.2739 83.0435C28.3639 85.9435 29.0339 88.5835 29.2539 91.5635C29.4939 94.8835 30.5239 96.4735 32.6339 98.9335C36.0639 102.943 44.9439 110.863 49.8439 112.433C51.4139 112.943 51.0939 112.253 51.3739 112.193C52.7239 111.923 52.8439 112.833 53.4639 113.183C54.7539 113.933 63.4139 115.553 65.1939 115.723C69.2439 116.113 73.7439 114.913 77.6739 114.033C81.4039 113.193 83.7839 111.853 87.2939 110.363C89.6939 109.343 91.6539 108.913 94.0839 107.523C98.7939 104.823 105.164 100.493 108.064 95.9535C109.344 93.9435 110.714 91.0435 110.524 88.6335C110.434 87.4835 109.804 86.3035 110.194 84.9335C110.294 84.5935 111.224 84.8335 111.414 84.0135L112.934 69.7335L111.624 70.8635C111.274 71.2135 109.844 73.5835 109.684 73.6435C109.034 73.8935 108.854 73.3935 108.444 73.3435C108.104 73.3035 107.384 73.6135 107.204 73.4435C107.154 73.3935 107.204 72.9835 107.084 72.7835C104.114 67.9235 105.954 62.2835 106.014 56.9535C106.014 56.3535 105.954 54.6935 105.854 54.1935C105.604 52.9635 104.664 55.4235 104.534 55.6135C104.234 56.0435 103.184 56.7935 103.074 56.9635C102.894 57.2435 103.204 57.6335 103.174 57.6635C103.114 57.7235 101.714 57.8635 101.434 57.8235C99.4039 57.5135 99.8439 55.6335 99.4639 54.2435C97.8739 48.4735 96.9439 43.5435 96.1339 37.5935C95.7739 34.9435 95.5639 32.2235 95.2339 29.5735L95.2639 29.5935ZM33.1939 67.5335C35.1939 62.2435 35.6539 56.9835 33.7539 51.6035C33.6039 51.1835 33.1039 50.9635 33.0439 50.4435C32.9639 49.8035 33.4539 49.1635 33.3239 48.6535C33.2339 48.2535 31.0839 46.6535 30.6539 46.1635C30.0639 45.4935 30.0839 44.2035 28.4039 44.3135C28.4039 44.7935 28.4039 45.2435 28.2339 45.7135C26.4739 50.8635 22.7139 55.6535 19.6339 59.9735C19.2539 60.5135 17.7239 63.3235 17.5439 63.4235C17.2639 63.5835 16.3939 63.3135 15.8739 63.4435C12.7239 64.2235 7.67386 72.1735 6.16386 75.0335C4.58386 78.0035 3.03386 81.9035 3.63386 85.2635L4.54386 85.1835C7.27386 82.9435 10.0439 81.0135 12.1739 78.1535C13.2339 76.7235 13.3939 75.5335 15.0039 74.4135C15.4939 74.0735 15.0739 73.6535 16.2239 74.0135C17.2439 74.3335 17.5539 75.2935 17.1639 76.2735C16.8839 76.9735 15.4239 79.1335 14.9039 79.9135C14.1039 81.1235 13.2539 82.1835 12.3439 83.2135C8.44386 87.6335 3.90386 95.5335 3.16386 101.473C3.01386 102.643 3.24386 103.723 3.26386 104.873C4.00386 104.913 4.78386 104.563 5.38386 104.133C6.02386 103.673 10.1539 99.9135 10.4539 99.4235C11.5339 97.6635 10.2039 96.0535 11.7639 94.9935C12.0139 94.9435 13.3039 95.3335 13.5239 95.4835C13.7839 95.6635 13.7739 96.1335 14.1239 96.3335C14.7339 96.6935 15.4839 96.6135 15.6939 97.8135C15.7939 98.3735 14.6439 98.8635 14.1739 99.5535C13.1439 101.063 12.3939 103.863 11.4439 105.593C10.6039 107.123 9.28386 108.453 8.54386 109.983C6.73386 113.683 6.29386 117.373 5.59386 121.383C5.43386 122.293 5.41386 121.753 5.43386 122.783C5.44386 123.273 4.87386 124.483 5.95386 124.203C6.80386 123.993 6.62386 123.333 6.97386 122.883C9.14386 120.033 10.2239 116.783 11.9539 113.683C12.4739 112.743 13.5039 110.473 14.6339 111.513C15.9539 112.743 15.7039 114.733 15.2839 116.323C14.9839 117.463 13.8939 119.353 13.5939 120.573C13.3639 121.513 13.4339 123.223 13.2139 123.993C13.1439 124.233 12.6439 124.183 12.5139 124.513C12.4539 124.663 12.1639 125.993 12.0439 126.433C11.8039 127.283 11.7539 128.613 11.3739 129.363C10.9039 130.303 10.9839 129.273 10.7739 130.703C10.5839 132.033 10.2139 133.423 9.94386 134.633L8.80386 139.843C9.03386 139.813 9.27386 139.563 9.38386 139.383C10.1639 138.023 11.3739 135.193 11.9739 133.673C12.7939 131.583 13.4139 125.813 16.4439 130.023C16.1039 131.803 16.1339 133.773 15.6939 135.523C14.7339 139.313 12.6139 142.723 11.6039 146.663C11.2139 148.193 10.6739 150.633 10.4039 152.173C10.1339 153.713 10.0139 155.353 9.96386 156.923C11.3239 155.833 11.7339 153.623 12.6239 152.153C12.8939 151.703 13.5839 151.503 13.4839 150.773C14.4939 150.993 15.6039 151.793 15.6739 152.903C15.8039 154.973 13.9439 160.073 13.2139 162.253C12.2139 165.263 10.8839 169.023 10.4739 172.473C10.1839 174.913 10.4239 177.443 10.1939 179.883C10.2739 180.223 10.8839 180.523 11.2039 180.553C13.2539 180.733 15.8239 174.643 16.8539 173.093C17.6639 172.123 19.4939 172.453 19.4739 173.773C19.4539 174.913 17.0539 179.323 16.2139 180.183C16.0239 180.373 15.7639 180.513 15.4939 180.503C16.6439 181.983 18.3339 179.953 18.7239 178.773C20.4339 173.593 20.3739 169.433 18.3639 164.533C17.8639 163.313 16.3639 162.993 16.5039 161.293C16.5939 160.213 17.4739 160.583 17.8539 160.063C18.5439 159.093 19.3739 158.113 20.0739 157.123C21.7839 154.723 21.6739 152.273 21.3039 149.473C21.2339 148.973 20.5739 145.383 20.4639 145.183C20.4139 145.083 18.9939 144.283 18.6439 143.833C18.2139 143.283 17.8839 142.313 17.4339 141.643C16.9139 140.863 15.8639 140.413 16.0639 139.413C16.4139 137.693 18.0839 137.993 19.0839 139.003C19.7939 139.713 20.1539 141.353 21.3839 139.583C23.1539 137.053 25.5939 134.823 26.7239 131.753C27.3439 130.043 28.2939 125.123 28.3739 123.303C28.6939 116.013 23.0839 107.433 19.4739 101.303C19.3339 101.063 18.9639 100.983 18.8239 100.723C18.4239 100.013 18.6839 98.4935 19.7039 98.5935C21.2339 98.7435 22.8339 102.843 24.2739 103.653C25.1039 101.243 26.6639 96.9635 26.0639 94.5035C25.6139 92.6235 24.3239 90.6935 23.9939 88.5735C23.8139 87.4335 23.9639 86.0935 24.5639 85.1035L25.2639 85.2635C25.5039 84.6435 24.8739 84.4035 24.7439 84.0635C24.5939 83.6735 24.7139 83.1335 24.5639 82.8835C24.4739 82.7435 22.1439 82.0035 21.7839 81.0835C21.5839 80.5635 21.7239 79.5035 21.3539 78.9535C20.9239 78.3135 20.7839 78.9035 20.1039 77.3635C19.8639 76.8135 18.9939 76.1435 20.3239 75.6035C21.5439 75.1135 23.2539 77.6235 24.1739 78.3435H24.6339C25.3539 77.5235 26.7939 77.0235 27.5339 76.3835C28.0139 75.9635 28.1339 75.3635 28.5039 75.0035C28.8739 74.6435 29.3439 74.6335 29.7139 74.3035C30.1739 73.8835 32.8939 68.2935 33.1739 67.5535L33.1939 67.5335ZM124.174 62.3635C124.034 62.3035 123.794 62.4635 123.554 62.3635C122.934 62.0835 118.474 59.4935 118.274 59.7035C118.104 60.7335 118.064 62.0135 117.844 63.0035C117.564 64.2435 116.874 65.7335 116.584 66.9835C115.204 72.8735 114.764 79.1835 114.184 85.3035C114.094 86.2635 113.404 87.0235 113.834 88.2035C114.234 88.6335 116.344 86.4735 116.664 86.0535C118.014 84.2635 118.704 81.7035 119.844 79.7635C120.094 79.3435 121.784 76.8935 122.004 76.7635C122.804 76.3135 124.514 77.5635 124.504 78.2635C124.484 79.0235 122.554 81.0235 122.094 81.9735C119.234 87.9835 118.474 100.123 117.964 106.923C117.874 108.163 117.364 109.873 117.314 111.083C117.274 111.983 117.694 113.223 117.414 114.233C118.174 114.433 117.774 113.643 118.054 113.103C119.764 109.733 121.974 106.423 123.244 102.883L124.424 100.753C125.304 100.643 126.234 101.883 126.714 101.983C127.194 102.083 127.854 101.313 128.214 101.503C128.624 101.713 130.054 103.293 130.434 103.763L134.514 109.563C134.964 108.923 136.234 109.453 136.324 108.603C135.974 106.813 135.124 105.143 134.674 103.393C134.254 101.783 134.134 97.4335 132.374 96.8135C132.104 96.7235 131.754 96.8735 131.444 96.7635C129.934 96.1935 127.784 94.7835 126.684 93.7435C126.274 93.3535 124.704 91.7135 124.434 91.3335C123.694 90.3035 123.904 88.1935 125.614 88.4435C127.324 88.6935 128.034 90.6235 128.964 91.6435C130.024 92.8035 131.724 94.1735 133.404 93.8835C133.524 93.1835 133.964 92.7135 133.984 91.9735C134.044 89.7735 132.924 86.6235 132.574 84.3935C132.124 83.6335 131.394 83.6835 130.904 83.3635C128.684 81.9235 128.434 81.2735 126.804 79.5235C126.034 78.6935 123.804 77.0435 123.494 76.2935C123.004 75.0835 123.434 73.1535 125.004 73.5335C127.274 74.8035 129.074 77.0135 130.564 79.0735C131.744 78.3335 132.224 79.3835 133.334 79.3235L132.924 77.0235C131.164 73.2035 130.634 68.6435 128.314 65.0735C128.064 64.6935 128.074 64.0535 127.664 63.7135C126.984 63.1535 125.234 63.0535 124.394 62.7235C124.224 62.6635 124.214 62.3635 124.174 62.3535V62.3635ZM129.914 108.563C128.854 107.143 127.544 105.863 126.554 104.373C126.264 104.293 124.944 106.233 124.784 106.573C124.024 108.203 123.564 111.303 122.874 113.263C121.484 117.243 120.494 122.063 119.954 126.393C119.844 127.273 119.874 128.163 119.824 129.043C120.544 129.263 120.964 128.503 121.154 127.943C122.214 124.803 122.714 122.163 124.134 119.013C124.764 117.613 126.954 113.933 128.484 116.263C129.314 117.533 128.204 117.933 128.444 118.753C130.364 120.763 131.934 123.673 134.964 124.083C135.424 122.943 134.824 121.993 134.844 120.923C134.854 120.263 135.154 119.693 135.184 119.083C135.234 117.793 135.134 116.503 135.234 115.213C134.994 114.303 134.314 114.423 133.874 114.003C132.284 112.473 131.264 110.353 129.924 108.563H129.914ZM129.944 124.213C129.464 123.873 128.944 123.563 128.474 123.213C128.074 122.913 128.114 122.103 127.094 122.353C127.324 123.453 126.254 124.233 125.974 124.873C125.424 126.133 124.964 127.353 124.414 128.563C123.974 129.523 123.354 130.463 123.684 131.543C124.114 131.603 123.854 130.943 124.164 130.723C124.974 130.143 126.294 131.863 127.124 131.953C127.284 132.143 127.024 133.183 127.094 133.623C127.144 133.923 130.084 138.173 130.504 138.593C133.504 141.603 131.854 137.243 132.394 136.393C132.664 135.963 133.944 135.513 134.454 135.963L134.544 133.103C133.594 131.553 134.034 129.503 133.574 127.703C133.074 125.723 131.504 125.323 129.944 124.213ZM125.584 138.243C125.714 138.083 126.124 138.043 126.204 137.813L123.384 132.933C123.514 133.823 123.024 134.593 122.894 135.393C122.264 139.173 121.804 142.913 121.004 146.773C120.544 149.023 120.014 151.273 119.724 153.533C120.144 154.003 121.854 152.163 122.014 151.743C122.384 150.813 121.514 148.793 122.514 147.483L124.294 147.433C124.584 147.133 126.024 143.393 125.994 142.963C125.864 140.703 123.634 140.533 125.574 138.223L125.584 138.243ZM132.164 146.123C132.554 144.583 132.334 143.333 131.614 141.923C130.514 142.003 129.444 142.183 129.474 143.543C129.474 143.653 130.044 145.583 130.104 145.673C130.504 146.323 131.494 146.043 132.164 146.123ZM128.104 148.523C127.684 148.413 127.644 148.643 127.424 148.883C126.734 149.643 125.604 152.563 125.614 153.603C125.624 154.643 127.134 159.313 127.554 160.573C128.284 162.743 129.574 166.323 130.604 168.293C130.744 168.553 130.894 168.883 131.214 168.963C131.414 168.813 132.404 165.393 132.464 164.883C132.584 163.893 131.824 155.713 131.444 154.983C131.264 154.643 130.844 154.583 130.664 154.293C129.524 152.513 128.734 150.553 128.104 148.533V148.523ZM124.904 160.653C124.754 160.433 124.614 160.093 124.364 160.033C124.384 160.553 124.134 161.033 124.064 161.543C123.804 163.663 123.734 167.883 123.944 169.913C123.944 169.993 124.344 171.363 124.394 171.423C124.574 171.653 126.464 172.163 126.884 172.043C127.124 171.153 125.324 171.283 125.294 170.913C125.554 170.273 125.714 169.003 126.484 168.813C126.964 168.693 127.834 169.093 127.744 168.473C127.154 166.553 126.194 164.773 125.534 162.893C125.214 161.973 125.454 161.483 124.904 160.673V160.653ZM126.944 180.953C126.724 180.813 125.864 180.703 126.054 181.213C126.244 181.723 127.044 182.143 127.134 183.143C127.224 184.143 126.664 184.873 126.844 185.863C126.954 186.443 127.854 187.553 128.344 187.953C128.024 186.663 128.254 184.853 128.054 183.673C128.024 183.503 127.664 183.473 127.624 183.313C127.484 182.793 127.354 181.193 126.954 180.953H126.944ZM131.804 182.303L130.904 182.343C131.404 183.053 131.054 184.193 131.974 184.603L131.804 182.293V182.303ZM10.1139 187.013C10.3339 188.633 13.2839 189.023 14.5539 188.753C14.8239 188.693 15.0039 188.373 15.1939 188.333C15.8739 188.153 17.3839 187.843 17.8739 187.543C19.3439 186.633 18.9439 184.513 17.1039 184.743C16.6539 184.803 16.3039 185.223 15.8539 185.343C14.6939 185.653 13.5239 185.773 12.3639 186.173C11.5439 186.453 10.9839 187.063 10.1239 187.023L10.1139 187.013ZM20.2539 189.993C19.4739 189.913 19.0239 190.783 18.3639 190.973C17.5139 191.223 16.3639 191.203 15.4439 191.653L15.2739 192.103L16.9639 193.333C16.7739 194.923 17.3339 196.443 17.8239 197.933C18.4639 199.903 19.4439 202.323 20.6139 203.993L20.2639 189.983L20.2539 189.993Z" fill="black"/>
<path d="M98.3191 81.6472C98.4191 81.8072 98.0991 84.9472 98.0191 85.3872C97.4391 88.4872 92.9491 95.0372 90.5791 97.1972C84.4491 102.767 71.9091 108.017 63.7591 105.997C57.9091 104.547 52.3191 102.787 47.3391 99.3172C46.6991 98.8772 43.5491 96.2972 43.5591 95.7972C44.4391 94.6072 45.1791 93.3872 46.9191 93.6872C47.9691 93.8672 52.2591 96.5672 53.7491 97.2672C60.9191 100.627 65.5091 103.187 73.7691 101.317C80.2391 99.8472 90.9391 92.4872 93.5491 86.2772C94.0291 85.1372 94.5891 81.6072 95.1891 80.8872C95.3691 80.6772 95.7091 80.3672 95.9591 80.2972C96.6691 80.1072 98.0491 81.1672 98.3291 81.6572L98.3191 81.6472Z" fill="black"/>
<path d="M95.1593 52.3272C96.2793 53.3072 97.7093 53.6172 96.5193 55.4772C94.6593 55.5172 93.0493 54.4272 91.1993 54.4172C89.2393 54.4172 88.0793 55.6472 86.1793 55.4672C85.1193 55.3672 84.3293 54.4572 83.8893 54.4972C81.7593 54.6972 79.6693 59.2472 77.1793 56.7472C76.0293 55.5872 76.9293 54.1872 77.9893 53.2872C80.5393 51.1072 89.6593 47.3872 92.5293 49.7672C93.2793 50.3872 94.3893 51.6472 95.1693 52.3172L95.1593 52.3272Z" fill="black"/>
<path d="M59.4692 57.7172C58.7492 58.5472 55.1892 57.6372 53.7192 57.8272C51.0492 58.1772 46.9892 60.0072 44.8492 61.6772C43.1592 62.9872 42.2392 65.5272 39.8992 64.2272C37.5592 62.9272 40.3692 60.3372 41.7392 59.1472C44.6692 56.5772 50.7792 53.7272 54.6992 53.7872C55.9292 53.8072 56.8992 54.8172 58.3292 54.1572C59.1192 54.9472 60.3392 56.7172 59.4692 57.7172Z" fill="black"/>
<path d="M52.4393 64.2172C54.7493 63.8372 57.6793 66.8772 57.1393 69.2772C56.9593 70.0772 54.4093 72.7972 53.6793 72.8672C53.2193 72.9072 50.1393 72.4072 49.6993 72.1572C46.0193 70.0772 49.0693 64.7672 52.4293 64.2172H52.4393Z" fill="black"/>
<path d="M90.2092 60.9572C92.9492 63.1672 92.0192 65.6172 90.9892 68.4772C89.5592 68.8472 88.2792 68.0072 87.0392 67.6972C86.0792 67.4572 85.0292 68.3272 84.2492 66.4172C83.3292 64.1672 85.1792 62.6072 85.3692 60.3472C86.3992 58.6772 89.0492 60.0172 90.2192 60.9572H90.2092Z" fill="black"/>
</svg>
