<svg width="158" height="244" viewBox="0 0 158 244" fill="none" xmlns="http://www.w3.org/2000/svg">
<path d="M120.12 56.2491H119.23V55.3591C119.79 55.2591 120.22 55.7091 120.12 56.2491Z" fill="#181818"/>
<path d="M75.1 3.38906C76.04 2.92906 76.48 2.52906 77.29 1.98906C78.96 0.86906 82.34 1.81906 84.35 2.17906C85.38 2.35906 86.78 3.04906 87.65 3.18906C88.18 3.26906 88.89 2.85906 89.61 3.00906C97.87 4.62906 111.28 15.5291 117.5 21.2291C123.38 26.6091 124.38 29.2691 127.82 36.0691C131.12 42.5791 133.94 49.2991 134.61 56.5491C134.98 60.5491 134.76 64.2391 135.62 68.2391C136.3 71.3891 137.71 74.3291 137.85 77.6491C137.92 79.4091 137.31 81.3391 137.23 82.9891C137.07 86.3891 138.37 90.1291 135.91 92.9791C135.36 93.6091 135.01 93.6091 134.17 93.5591C133.08 93.4991 130.28 91.9291 130.21 93.2591H129.92C130 91.8391 127.96 91.5891 126.8 90.9091C126.29 90.6091 126.24 89.5891 124.94 90.1691L124.65 89.3191C124.45 89.9391 124.22 90.6991 123.88 91.2591C120.17 97.3791 114.63 103.609 107.87 106.809C106.76 107.339 104.6 107.809 103.81 108.459C103.43 108.769 103.58 109.239 103.13 109.559C102.16 110.249 99.99 110.369 99.85 110.469C98.67 111.259 96.26 113.579 95.04 114.299C94.35 114.709 91.61 114.409 91.01 115.769C93.85 116.099 96.86 117.769 99.46 119.039C110.98 124.689 126.54 137.029 133.98 147.189C150.53 169.799 157.58 202.869 157.57 230.419C157.57 239.339 157.44 212.369 157.43 221.439C157.43 223.689 157.96 227.719 157.43 229.819C157.37 230.049 156.84 229.909 156.82 230.419C156.53 237.709 157.12 229.329 156.29 236.399C155.8 240.609 156.1 232.499 154.78 236.569C154.02 238.909 151.94 238.379 149.82 238.839C140.39 240.859 130.43 241.379 120.67 241.979C102.55 243.089 84.2 241.259 65.99 241.799C49.97 242.279 34.79 243.359 18.58 243.189C16.48 243.169 8.60999 243.719 7.45999 242.649C6.53999 241.789 6.51999 238.319 7.80999 237.949C7.97999 237.899 8.28999 238.139 8.42999 238.069C8.48999 238.039 9.34999 237.159 9.35999 237.099C9.45999 236.769 9.60999 235.129 9.64999 234.629C10.34 225.469 8.81999 228.829 9.35999 219.499C9.92999 209.849 11.6 252.139 12.29 242.529C13.45 226.399 13.3 210.289 14.03 194.149C14.64 180.709 17.85 166.909 22.29 154.239C27.18 140.289 37.5 129.479 50.26 121.699L54.53 119.739C55.75 118.919 52.68 118.299 52.08 118.159C48.63 117.349 44.88 116.509 41.47 115.419C36.82 113.929 25.62 108.299 21.95 105.209C19.41 103.069 15.15 98.4991 15.68 95.1391C14.26 90.6691 13.53 86.0991 13.44 81.4491C10.85 81.8291 9.09999 83.3791 7.08999 84.7691C5.66999 84.5991 2.80999 85.2091 1.86999 84.2791C0.419994 82.8591 1.19999 81.8191 1.14999 80.4591C0.569994 64.5091 8.06999 43.2991 15.91 29.3791C19.42 23.1491 24.82 17.0491 29.72 11.6991C31.25 10.0391 32.95 8.52906 34.68 7.17906C38.79 3.96906 41.2 2.25906 46.3 0.35906C47.1 0.0490604 49.15 -0.0109396 50.09 -0.000939629C55.44 0.0990604 60.86 1.00906 65.92 3.00906C67.54 3.64906 68.93 4.56906 70.42 5.41906C71.87 4.69906 73.69 4.08906 75.1 3.39906V3.38906ZM78.35 18.4991L72.35 15.3591C72.1 15.2491 71.92 15.4091 71.72 15.4591C70.66 15.7391 66.94 19.2391 65.84 20.2391C52.21 32.5391 43.97 45.3091 34.87 60.7991C33.02 63.9491 31.51 68.2491 28.99 70.8991C28.56 71.3491 27.54 71.8091 27.35 72.1591C27.03 72.7391 27.85 73.6091 27.25 74.4991C26.7 75.3091 25.65 74.6191 25.09 74.7391C24.58 74.8491 23.62 76.1091 22.56 76.2691C22.01 76.3491 21.51 76.0191 21 76.1491C20.28 76.3291 18.93 77.6991 18.69 78.4491C17.33 82.6391 18.76 91.7391 20.15 95.9891C20.46 96.9491 21.58 98.1691 22.27 98.9491C27.36 104.679 39.32 109.629 46.77 112.039C59.01 115.989 69.95 116.809 82.31 113.729C86.28 112.739 87.85 111.059 91.2 109.619C92.37 109.119 93.51 109.329 93.62 109.269C93.7 109.219 93.78 108.669 94.07 108.449C94.35 108.239 96.06 107.219 96.28 107.159C97.1 106.949 97.85 107.609 98.63 107.199C99.15 106.929 99.03 106.239 99.57 105.819C100.01 105.479 101.48 105.289 102.34 104.859C107.24 102.389 115.09 96.3591 117.89 91.6791C118.9 89.9791 119.31 87.7491 120.57 86.0791L120.54 85.4291C119.97 85.2891 119.55 85.0891 119.1 84.7091C116.72 82.6591 114.19 79.2591 111.76 77.4291C111.03 76.8791 110.47 76.2391 109.45 76.3991C109.36 75.7491 110.11 75.7191 109.92 74.9891C109.77 74.3891 109 73.6591 108.72 73.0191C106.04 66.7191 103.11 54.9091 98.91 49.8891C98.48 49.3791 96.88 48.2991 96.7 47.9691C96.56 47.7091 96.21 45.5791 95.67 44.5491C93.49 40.4091 91.11 36.3691 88.8 32.2191C88.43 31.5591 88.55 30.9191 88.05 30.1591C87.37 29.1291 85.04 27.5591 84.94 27.3791C84.72 26.9991 84.98 26.2191 84.82 25.6591C84.42 24.3091 79.92 20.4691 78.64 19.2891C78.38 19.0491 78.5 18.6491 78.37 18.5191L78.35 18.4991ZM111.97 131.909C103.65 125.359 90.33 116.869 79.24 119.209C78.8 119.299 78.32 119.779 77.63 119.909C76.22 120.179 73.62 119.899 73.02 120.819C61.78 117.259 44.52 130.919 37.47 138.679C30.84 145.969 28.25 151.629 25.32 160.779C18.15 183.159 19.39 202.129 18.16 224.789C17.07 244.769 14.17 212.599 13.96 232.669C13.93 235.459 14.05 235.839 14.34 238.609C14.69 241.929 14.14 232.429 14.12 235.729C14.12 236.379 14.59 237.049 14.11 237.769L14.52 238.389C18.02 238.139 21.51 238.449 25.04 238.419C37.53 238.309 50.06 237.179 62.49 236.749C90.27 235.769 119.36 239.479 146.98 234.389C148.26 234.149 149.49 233.669 150.81 233.569L151.3 233.169C151.67 229.999 152.55 239.509 152.77 236.349C153.06 232.109 152.3 227.719 152.47 223.399C152.68 218.039 153.4 228.779 153.37 223.359C153.32 214.119 153.08 240.739 153.08 231.529C153.06 208.609 148.87 185.409 139.13 164.459C132.98 151.239 123.57 141.019 111.99 131.899L111.97 131.909Z" fill="#181818"/>
<path d="M49.5 79.7991L97.54 77.3991C100.4 78.9991 98.34 91.9591 97.32 94.9091C93.14 106.949 71.9 111.539 61.05 107.499C52.79 104.429 41.16 88.7391 43.89 79.6691C44.57 77.4191 49.95 75.5791 49.49 79.7991H49.5ZM87.9 98.5691C93.45 93.9591 93.76 89.0491 93.96 82.0091L49.41 84.8391C53.03 103.149 73.36 110.639 87.89 98.5691H87.9Z" fill="#181818"/>
<path d="M47.13 46.8491C50.6 46.3091 54.17 46.5191 57.17 48.4591C63.67 52.6891 64.97 65.3591 55.09 65.4391C50.85 62.2191 53.03 52.9491 45.93 55.5191C39.51 57.8391 42.49 68.4791 34.92 63.6291C33.89 56.1791 39.56 48.0091 47.14 46.8391L47.13 46.8491Z" fill="#181818"/>
<path d="M98.66 49.7691C100.19 50.8991 103.51 55.8791 103.83 57.6691C104.73 62.7591 96.94 64.8191 93.94 61.8791C92.26 60.2291 94.82 55.4091 90.12 55.1591C88.49 55.5391 87.66 64.7391 80.92 63.6291C74.18 62.5191 79.54 50.9791 83.43 48.4891C88.37 45.3191 94.13 46.4291 98.66 49.7691Z" fill="#181818"/>
</svg>
