<svg width="151" height="251" viewBox="0 0 151 251" fill="none" xmlns="http://www.w3.org/2000/svg">
<path d="M97.25 95.2608C92.86 100.141 86.15 104.441 79.77 106.281C72.73 108.311 65.52 105.371 59.86 101.241C57.57 99.5708 55.12 97.5608 53.92 94.9908C56.82 91.0008 58.71 95.1208 61.06 97.0608C65.01 100.321 72.09 103.491 77.23 102.541C82.91 101.491 95.35 94.0508 97.72 88.6508C98.6 86.6408 98.93 83.6408 99.6 81.4908C100.42 80.8508 101.17 81.3808 101.59 82.2108C102.62 84.2408 100.61 88.1308 100.97 90.4608C100.68 91.8408 98.27 94.1508 97.27 95.2608H97.25Z" fill="black"/>
<path d="M56.44 34.4908C56.68 34.8208 56.6 35.3408 56.81 35.6908C56.98 35.9708 57.51 35.9608 57.67 36.3908C58.26 37.9808 57.83 43.1208 57.18 44.7508C54.24 52.1908 49.42 54.9808 42.51 58.1308C40.85 58.8908 38.9 60.4008 37.6 58.2508C35.55 54.8508 40.95 54.2008 43.17 53.1208C48.46 50.5508 51.69 47.9608 53.9 42.3608C55.16 39.1608 54.6 37.8208 53.89 34.6108L54.91 33.7808C55.29 33.7508 56.24 34.2008 56.45 34.4808L56.44 34.4908Z" fill="black"/>
<path d="M95.79 34.2808C95.9 34.3608 96.56 36.5208 96.64 36.8608C97.2 39.5508 97 39.9508 98.06 42.6008C98.46 43.5908 98.53 44.6908 98.9 45.6408C99.41 46.9708 102.65 50.4208 103.96 51.0208C106.52 52.1908 112.15 50.5008 110.41 55.1108C109 54.8108 107.25 54.7408 105.9 54.4608C97.88 52.7408 94.14 43.3808 94.01 35.8708C93.99 34.8208 94.92 33.6708 95.79 34.2808Z" fill="black"/>
<path d="M63.8 59.9908C63.13 59.2608 62.46 56.5308 62.98 55.5908C63.14 55.3008 64.73 54.0408 65.14 53.8708C66.47 53.3408 68.17 53.3508 68.87 54.7808C68.92 54.8808 69.4 56.7808 69.39 56.8908C69.34 57.9108 67.67 60.7308 66.51 60.8708C66.07 60.9208 64.06 60.2908 63.79 59.9808L63.8 59.9908Z" fill="black"/>
<path d="M92.05 54.4408C92.49 54.8608 92.99 54.7908 93.14 55.6108C93.39 57.0308 92.15 60.9208 90.34 60.5308C90.14 60.4908 90.2 60.0008 89.94 59.9308C89.58 59.8308 89.16 60.0108 88.73 59.8408C88.54 59.7708 86.71 57.6908 86.65 57.3408C86.33 55.3808 89.18 52.6008 91.28 53.5708C91.71 53.7708 91.78 54.1808 92.05 54.4408Z" fill="black"/>
<path d="M116.52 9.9808C118.49 12.0808 120.31 15.6108 122.47 17.7808C123.2 18.5208 124.78 19.2308 124.86 19.3508C125.02 19.6008 125.08 21.2908 125.53 22.2608C126.52 24.4108 129.49 27.6408 130.48 29.7408C131.47 31.8408 131.45 34.8708 132.49 36.6708C132.81 37.2208 133.51 37.4508 133.99 38.2908C136.6 42.9108 135.53 49.7308 138.5 53.8208L138.12 62.9708C139.47 62.1008 139.08 59.9508 139.25 58.6408C139.31 58.1308 139.51 57.4408 140 58.0808C140.2 61.7308 138.24 65.6608 138.28 69.1908C138.31 71.8808 139.44 75.3908 139.62 78.2308C139.9 82.6808 138.96 87.0608 139.23 91.4208C139.83 101.151 144.33 120.971 149.13 129.361C149.6 130.181 150.87 129.961 149.97 131.881C149.91 132.001 148.42 133.801 148.26 133.941C145.79 136.071 142.95 130.141 141.87 129.461C141.27 129.081 140.14 129.211 139.71 128.791C139.2 128.291 139.01 125.351 138.68 124.361C137.84 121.811 135.69 117.611 134.46 115.021C134.25 114.581 134.23 113.911 133.6 113.811C133.25 117.241 132.77 120.731 132.47 124.171C131.8 132.011 130.47 139.851 130 147.591C129.86 149.961 129.93 151.551 130.6 153.851C128.85 155.091 128.05 155.181 126.3 154.031C125.2 153.311 122.08 148.871 121.43 147.311C120.73 145.651 120.43 143.051 119.66 141.291L117.79 146.181C118.01 145.181 118.02 144.071 118.26 143.081C118.45 142.341 120.35 139.291 118.54 139.401L116.55 149.281C115.66 153.101 113.02 160.971 112.96 164.571C112.94 165.771 114.25 170.811 114.69 172.151C119.41 186.421 120.45 195.981 120.12 211.151C119.69 230.691 120.52 202.441 119.53 221.841C119.4 224.291 117.79 226.751 117.75 229.061C117.71 231.501 118.26 234.251 118.17 236.981C118.14 237.961 117.52 239.111 117.56 239.601C117.59 240.001 118.37 240.941 118.5 241.901C118.79 243.911 118.98 230.451 118.92 232.551C118.77 237.601 115.78 242.291 117.33 247.561C117.22 248.071 116.44 248.311 115.98 248.441C108.61 250.511 100.17 249.101 92.75 248.901C85.86 248.711 79.22 248.611 72.4 248.171C60.26 247.381 51.52 247.431 39.61 249.261C26.38 251.291 17.51 250.271 5.12001 245.421C1.64001 244.061 0.0800133 239.471 5.57001 241.391C5.60001 240.471 5.49001 239.531 5.62001 238.611C8.34001 219.431 9.90001 217.451 10.83 198.181C12.01 173.611 12.29 196.811 15.38 172.411C15.54 171.181 16.69 169.711 16.07 168.081L14.97 167.841C14.84 165.821 14.54 164.151 15.35 162.201C15.79 161.161 16.66 160.391 17.05 159.391C19 154.441 20.13 148.991 22.52 144.151C19.49 143.731 18.27 146.481 16.26 148.041C14.04 149.771 11.17 151.381 8.81001 153.061C7.88001 153.721 8.36001 154.601 6.14001 154.121C5.14001 153.901 4.27001 152.131 4.50001 151.561C4.54001 151.461 5.30001 151.391 5.68001 149.931C7.14001 144.211 8.57001 140.771 10.74 135.401C13.9 127.561 17.24 119.741 17.99 111.211C16.38 111.401 15.6 112.861 14.74 113.411C11.31 115.611 8.40001 117.271 4.56001 118.671C3.04001 119.221 2.68001 120.581 0.700013 119.281C-1.00999 118.151 0.960013 116.761 1.44001 115.561C4.05001 109.151 8.90001 100.851 10.44 94.4308C10.8 92.9508 10.85 89.8208 11.07 87.9908C12.28 78.1308 12.75 68.2108 13.49 58.3208C14.17 49.2408 16.63 43.7808 19.96 35.4208C22.87 28.1208 32.34 20.0608 38.52 15.1908C44.15 10.7508 61.05 1.9208 67.93 0.920796C70.4 0.560796 72.24 0.310796 74.55 1.2908C74.9 1.4408 74.87 2.0008 75.07 2.0108C76.88 2.0408 77.24 0.720796 78.06 3.9008C79.86 3.8308 80.96 2.2608 82.42 1.4808C85.55 -0.239204 87.75 -0.0292039 91.24 0.0607961C94.73 0.150796 104.59 0.880796 107.58 2.5508C108.64 3.1508 110.07 5.1208 111.03 5.8808C112.76 7.2508 114.95 8.3008 116.53 9.9808H116.52ZM88.77 8.7408L86.51 8.3608C86.81 9.3308 87.96 9.1208 88.77 9.1108V8.7408ZM106.64 36.0508C101.12 30.4908 97.61 26.0608 91.21 21.1708C90.04 20.2808 86.88 18.3708 86.16 17.5608C85.57 16.9008 85.67 15.9208 85.01 15.3208C84.4 14.7808 81.08 13.2408 80.12 13.2508L82.38 15.1308C81.86 15.2108 81.33 14.8708 80.82 14.9608C75.7 15.8908 64.48 28.8408 60.12 32.9808C53.21 39.5508 44.35 48.7908 36.48 53.7808C33.6 55.6108 31.37 55.0008 30.78 59.1908L30.22 58.4408C29.52 58.7308 24.13 67.1508 23.33 68.5008C20.45 73.3708 21.54 81.9308 23.35 87.1408C25.16 92.3508 29.81 94.0408 33.79 97.4108C37.77 100.781 39.21 102.121 43.48 105.021C47.75 107.921 56.19 115.111 61.13 115.571C62.38 115.681 64.64 115.021 65.98 114.931C66.93 114.871 71.03 115.051 71.44 114.751C72.36 114.071 69.76 112.481 71.44 111.731C72.47 111.281 73.75 111.691 74.91 111.441C78.82 110.571 85.77 107.231 89.89 105.711C97.01 103.081 104.27 100.911 110.57 96.2608C113.66 93.9808 120.47 85.8408 121.42 82.2608C122.27 79.0608 122.91 66.2308 122 63.0308C119.82 55.4108 115.99 51.1808 112.45 44.7108C111.75 43.4308 112.35 42.0308 109.84 43.0008L110.97 41.6808C109.65 41.2108 110.2 40.6708 109.73 39.9508C108.8 38.5408 107.81 37.2408 106.62 36.0408L106.64 36.0508ZM13.85 110.041C16.5 108.591 14.45 107.261 13.85 109.481C13.8 109.661 13.85 109.861 13.85 110.041ZM87.64 113.051C85.29 113.901 83 114.801 80.64 115.651C80.11 115.841 80 115.531 80.12 116.441C81.88 115.791 84.41 118.361 85.91 117.921C86.78 117.661 87.07 114.031 87.65 113.061L87.64 113.051ZM53.01 117.941C53.87 118.021 54.7 117.651 55.26 117.001L53.01 116.061V117.941ZM92.41 152.461C89.55 154.541 85.57 155.411 84.35 151.171C82.68 145.331 84.33 137.741 83.86 131.701L85.22 122.071C84.46 121.021 74.46 118.751 72.75 118.691C70.59 118.621 68.44 119.741 66.32 119.781C65.57 119.801 64.87 119.401 64.12 119.421C60.58 119.521 57.99 119.401 54.89 121.511C57.15 126.531 57.42 132.231 56.72 137.661C55.56 146.651 52.18 155.991 46.21 162.931C44.24 165.221 35.27 172.111 35.07 165.561C36.87 162.241 40.43 159.031 42.15 155.851C43.87 152.671 46.54 145.421 46.57 141.801C46.57 141.371 46.48 140.531 46.04 140.541C45.49 140.541 40.07 147.851 38.94 149.061C36.26 151.931 32.97 154.521 30.17 157.231C27.09 160.201 24.14 163.381 20.82 166.141C16.28 191.881 15.9 170.191 14.6 196.281C13.66 215.201 12.42 217.401 9.44001 236.001C9.14001 237.851 8.96001 239.711 8.70001 241.561C8.85001 242.511 16.28 244.981 17.6 245.311C30.13 248.461 41.19 243.781 53.57 243.441C61.84 243.211 69.28 244.701 77.28 245.131C84.14 245.501 91.15 245.591 97.99 245.881C103.09 246.101 108.23 245.901 113.25 245.111C112.72 241.071 114.47 237.141 114.77 233.261C115.33 226.021 113.42 236.221 113.99 229.011C114.18 226.561 115.28 224.171 115.51 221.871C116.9 207.551 115.87 240.911 116.04 226.601C116.21 212.291 117.57 201.441 115.47 187.441C115.09 184.881 111.68 169.911 110.23 168.951C109.72 168.611 108.79 168.681 107.99 168.171C106.05 166.931 105.01 162.361 104.92 160.131C103.84 159.981 102.91 160.131 102.52 158.961L101.55 162.321C98.54 163.011 98.08 163.001 96.6 160.361C96.2 159.651 96.58 158.771 95.59 158.291L94.04 151.061C93.01 150.821 92.9 152.081 92.41 152.441V152.461ZM123.04 137.151L123.42 130.751C122.86 130.661 122.96 131.451 122.86 131.871C122.67 132.701 122.6 133.561 122.44 134.391L123.05 137.151H123.04ZM126.43 146.191H125.68L126.06 147.691H126.43V146.191ZM103.84 158.991C105.37 158.201 104.27 156.241 104.21 155.031C104.15 153.591 104.25 152.141 104.21 150.701C102.99 151.201 102.43 155.041 102.45 156.241C102.47 157.441 103.71 157.861 103.85 158.981L103.84 158.991Z" fill="black"/>
</svg>
