<svg width="151" height="251" viewBox="0 0 151 251" fill="none" xmlns="http://www.w3.org/2000/svg">
<path d="M102.06 75.5798C102.16 75.7398 101.84 78.8798 101.76 79.3198C101.18 82.4198 96.69 88.9698 94.32 91.1298C88.19 96.6998 75.65 101.95 67.5 99.9298C61.65 98.4798 56.06 96.7198 51.08 93.2498C50.44 92.8098 47.29 90.2298 47.3 89.7298C48.18 88.5398 48.92 87.3198 50.66 87.6198C51.71 87.7998 56 90.4998 57.49 91.1998C64.66 94.5598 69.25 97.1198 77.51 95.2498C83.98 93.7798 94.68 86.4198 97.29 80.2098C97.77 79.0698 98.33 75.5398 98.93 74.8198C99.11 74.6098 99.45 74.2998 99.7 74.2298C100.41 74.0398 101.79 75.0998 102.07 75.5898L102.06 75.5798Z" fill="#181818"/>
<path d="M98.89 46.2598C100.01 47.2398 101.44 47.5498 100.25 49.4098C98.39 49.4498 96.78 48.3598 94.93 48.3498C92.97 48.3498 91.81 49.5798 89.91 49.3998C88.85 49.2998 88.06 48.3898 87.62 48.4298C85.49 48.6298 83.4 53.1798 80.91 50.6798C79.76 49.5198 80.66 48.1198 81.72 47.2198C84.27 45.0398 93.39 41.3198 96.26 43.6998C97.01 44.3198 98.12 45.5798 98.9 46.2498L98.89 46.2598Z" fill="#181818"/>
<path d="M63.21 51.6498C62.49 52.4798 58.93 51.5698 57.46 51.7598C54.79 52.1098 50.73 53.9398 48.59 55.6098C46.9 56.9198 45.98 59.4598 43.64 58.1598C41.3 56.8598 44.11 54.2698 45.48 53.0798C48.41 50.5098 54.52 47.6598 58.44 47.7198C59.67 47.7398 60.64 48.7498 62.07 48.0898C62.86 48.8798 64.08 50.6498 63.21 51.6498Z" fill="#181818"/>
<path d="M56.18 58.1498C58.49 57.7698 61.42 60.8098 60.88 63.2098C60.7 64.0098 58.15 66.7298 57.42 66.7998C56.96 66.8398 53.88 66.3398 53.44 66.0898C49.76 64.0098 52.81 58.6998 56.17 58.1498H56.18Z" fill="#181818"/>
<path d="M93.95 54.8898C96.69 57.0998 95.76 59.5498 94.73 62.4098C93.3 62.7798 92.02 61.9398 90.78 61.6298C89.82 61.3898 88.77 62.2598 87.99 60.3498C87.07 58.0998 88.92 56.5398 89.11 54.2798C90.14 52.6098 92.79 53.9498 93.96 54.8898H93.95Z" fill="#181818"/>
<path d="M116.52 9.97982C118.49 12.0798 120.31 15.6098 122.47 17.7798C123.2 18.5198 124.78 19.2298 124.86 19.3498C125.02 19.5998 125.08 21.2898 125.53 22.2598C126.52 24.4098 129.49 27.6398 130.48 29.7398C131.47 31.8398 131.45 34.8698 132.49 36.6698C132.81 37.2198 133.51 37.4498 133.99 38.2898C136.6 42.9098 135.53 49.7298 138.5 53.8198L138.12 62.9698C139.47 62.0998 139.08 59.9498 139.25 58.6398C139.31 58.1298 139.51 57.4398 140 58.0798C140.2 61.7298 138.24 65.6598 138.28 69.1898C138.31 71.8798 139.44 75.3898 139.62 78.2298C139.9 82.6798 138.96 87.0598 139.23 91.4198C139.83 101.15 144.33 120.97 149.13 129.36C149.6 130.18 150.87 129.96 149.97 131.88C149.91 132 148.42 133.8 148.26 133.94C145.79 136.07 142.95 130.14 141.87 129.46C141.27 129.08 140.14 129.21 139.71 128.79C139.2 128.29 139.01 125.35 138.68 124.36C137.84 121.81 135.69 117.61 134.46 115.02C134.25 114.58 134.23 113.91 133.6 113.81C133.25 117.24 132.77 120.73 132.47 124.17C131.8 132.01 130.47 139.85 130 147.59C129.86 149.96 129.93 151.55 130.6 153.85C128.85 155.09 128.05 155.18 126.3 154.03C125.2 153.31 122.08 148.87 121.43 147.31C120.73 145.65 120.43 143.05 119.66 141.29L117.79 146.18C118.01 145.18 118.02 144.07 118.26 143.08C118.45 142.34 120.35 139.29 118.54 139.4L116.55 149.28C115.66 153.1 113.02 160.97 112.96 164.57C112.94 165.77 114.25 170.81 114.69 172.15C119.41 186.42 120.45 195.98 120.12 211.15C119.69 230.69 120.52 202.44 119.53 221.84C119.4 224.29 117.79 226.75 117.75 229.06C117.71 231.5 118.26 234.25 118.17 236.98C118.14 237.96 117.52 239.11 117.56 239.6C117.59 240 118.37 240.94 118.5 241.9C118.79 243.91 118.98 230.45 118.92 232.55C118.77 237.6 115.78 242.29 117.33 247.56C117.22 248.07 116.44 248.31 115.98 248.44C108.61 250.51 100.17 249.1 92.75 248.9C85.86 248.71 79.22 248.61 72.4 248.17C60.26 247.38 51.52 247.43 39.61 249.26C26.38 251.29 17.51 250.27 5.12001 245.42C1.64001 244.06 0.0800133 239.47 5.57001 241.39C5.60001 240.47 5.49001 239.53 5.62001 238.61C8.34001 219.43 9.90001 217.45 10.83 198.18C12.01 173.61 12.29 196.81 15.38 172.41C15.54 171.18 16.69 169.71 16.07 168.08L14.97 167.84C14.84 165.82 14.54 164.15 15.35 162.2C15.79 161.16 16.66 160.39 17.05 159.39C19 154.44 20.13 148.99 22.52 144.15C19.49 143.73 18.27 146.48 16.26 148.04C14.04 149.77 11.17 151.38 8.81001 153.06C7.88001 153.72 8.36001 154.6 6.14001 154.12C5.14001 153.9 4.27001 152.13 4.50001 151.56C4.54001 151.46 5.30001 151.39 5.68001 149.93C7.14001 144.21 8.57001 140.77 10.74 135.4C13.9 127.56 17.24 119.74 17.99 111.21C16.38 111.4 15.6 112.86 14.74 113.41C11.31 115.61 8.40001 117.27 4.56001 118.67C3.04001 119.22 2.68001 120.58 0.700013 119.28C-1.00999 118.15 0.960013 116.76 1.44001 115.56C4.05001 109.15 8.90001 100.85 10.44 94.4298C10.8 92.9498 10.85 89.8198 11.07 87.9898C12.28 78.1298 12.75 68.2098 13.49 58.3198C14.17 49.2398 16.63 43.7798 19.96 35.4198C22.87 28.1198 32.34 20.0598 38.52 15.1898C44.15 10.7498 61.05 1.91982 67.93 0.91982C70.4 0.55982 72.24 0.309819 74.55 1.28982C74.9 1.43982 74.87 1.99982 75.07 2.00982C76.88 2.03982 77.24 0.71982 78.06 3.89982C79.86 3.82982 80.96 2.25982 82.42 1.47982C85.55 -0.24018 87.75 -0.0301804 91.24 0.0598196C94.73 0.14982 104.59 0.87982 107.58 2.54982C108.64 3.14982 110.07 5.11982 111.03 5.87982C112.76 7.24982 114.95 8.29982 116.53 9.97982H116.52ZM88.77 8.73982L86.51 8.35982C86.81 9.32982 87.96 9.11982 88.77 9.10982V8.73982ZM106.64 36.0498C101.12 30.4898 97.61 26.0598 91.21 21.1698C90.04 20.2798 86.88 18.3698 86.16 17.5598C85.57 16.8998 85.67 15.9198 85.01 15.3198C84.4 14.7798 81.08 13.2398 80.12 13.2498L82.38 15.1298C81.86 15.2098 81.33 14.8698 80.82 14.9598C75.7 15.8898 64.48 28.8398 60.12 32.9798C53.21 39.5498 44.35 48.7898 36.48 53.7798C33.6 55.6098 31.37 54.9998 30.78 59.1898L30.22 58.4398C29.52 58.7298 24.13 67.1498 23.33 68.4998C20.45 73.3698 21.54 81.9298 23.35 87.1398C25.16 92.3498 29.81 94.0398 33.79 97.4098C37.77 100.78 39.21 102.12 43.48 105.02C47.75 107.92 56.19 115.11 61.13 115.57C62.38 115.68 64.64 115.02 65.98 114.93C66.93 114.87 71.03 115.05 71.44 114.75C72.36 114.07 69.76 112.48 71.44 111.73C72.47 111.28 73.75 111.69 74.91 111.44C78.82 110.57 85.77 107.23 89.89 105.71C97.01 103.08 104.27 100.91 110.57 96.2598C113.66 93.9798 120.47 85.8398 121.42 82.2598C122.27 79.0598 122.91 66.2298 122 63.0298C119.82 55.4098 115.99 51.1798 112.45 44.7098C111.75 43.4298 112.35 42.0298 109.84 42.9998L110.97 41.6798C109.65 41.2098 110.2 40.6698 109.73 39.9498C108.8 38.5398 107.81 37.2398 106.62 36.0398L106.64 36.0498ZM13.85 110.04C16.5 108.59 14.45 107.26 13.85 109.48C13.8 109.66 13.85 109.86 13.85 110.04ZM87.64 113.05C85.29 113.9 83 114.8 80.64 115.65C80.11 115.84 80 115.53 80.12 116.44C81.88 115.79 84.41 118.36 85.91 117.92C86.78 117.66 87.07 114.03 87.65 113.06L87.64 113.05ZM53.01 117.94C53.87 118.02 54.7 117.65 55.26 117L53.01 116.06V117.94ZM92.41 152.46C89.55 154.54 85.57 155.41 84.35 151.17C82.68 145.33 84.33 137.74 83.86 131.7L85.22 122.07C84.46 121.02 74.46 118.75 72.75 118.69C70.59 118.62 68.44 119.74 66.32 119.78C65.57 119.8 64.87 119.4 64.12 119.42C60.58 119.52 57.99 119.4 54.89 121.51C57.15 126.53 57.42 132.23 56.72 137.66C55.56 146.65 52.18 155.99 46.21 162.93C44.24 165.22 35.27 172.11 35.07 165.56C36.87 162.24 40.43 159.03 42.15 155.85C43.87 152.67 46.54 145.42 46.57 141.8C46.57 141.37 46.48 140.53 46.04 140.54C45.49 140.54 40.07 147.85 38.94 149.06C36.26 151.93 32.97 154.52 30.17 157.23C27.09 160.2 24.14 163.38 20.82 166.14C16.28 191.88 15.9 170.19 14.6 196.28C13.66 215.2 12.42 217.4 9.44001 236C9.14001 237.85 8.96001 239.71 8.70001 241.56C8.85001 242.51 16.28 244.98 17.6 245.31C30.13 248.46 41.19 243.78 53.57 243.44C61.84 243.21 69.28 244.7 77.28 245.13C84.14 245.5 91.15 245.59 97.99 245.88C103.09 246.1 108.23 245.9 113.25 245.11C112.72 241.07 114.47 237.14 114.77 233.26C115.33 226.02 113.42 236.22 113.99 229.01C114.18 226.56 115.28 224.17 115.51 221.87C116.9 207.55 115.87 240.91 116.04 226.6C116.21 212.29 117.57 201.44 115.47 187.44C115.09 184.88 111.68 169.91 110.23 168.95C109.72 168.61 108.79 168.68 107.99 168.17C106.05 166.93 105.01 162.36 104.92 160.13C103.84 159.98 102.91 160.13 102.52 158.96L101.55 162.32C98.54 163.01 98.08 163 96.6 160.36C96.2 159.65 96.58 158.77 95.59 158.29L94.04 151.06C93.01 150.82 92.9 152.08 92.41 152.44V152.46ZM123.04 137.15L123.42 130.75C122.86 130.66 122.96 131.45 122.86 131.87C122.67 132.7 122.6 133.56 122.44 134.39L123.05 137.15H123.04ZM126.43 146.19H125.68L126.06 147.69H126.43V146.19ZM103.84 158.99C105.37 158.2 104.27 156.24 104.21 155.03C104.15 153.59 104.25 152.14 104.21 150.7C102.99 151.2 102.43 155.04 102.45 156.24C102.47 157.44 103.71 157.86 103.85 158.98L103.84 158.99Z" fill="#181818"/>
</svg>
