<svg width="165" height="256" viewBox="0 0 165 256" fill="none" xmlns="http://www.w3.org/2000/svg">
<g clip-path="url(#clip0_297_915)">
<path d="M75.6899 81.1194C75.7999 81.2194 75.6499 81.7094 75.7799 81.8894C75.9599 82.1394 76.8999 82.1894 77.3699 82.5594C79.2099 83.9994 79.9199 87.0694 81.2299 88.5394C82.0799 89.4894 87.0999 92.0694 88.4199 92.3994C92.4299 93.3694 95.8299 92.1294 98.8399 89.4294C100.25 88.1594 100.86 85.9494 103.17 86.4594C103.56 88.2294 103.22 89.4894 102.11 90.9094C96.6199 97.9794 85.0699 97.8594 79.4799 90.9094C77.7799 88.7894 76.8999 85.7794 74.3299 84.4194C69.8399 82.0494 64.8799 86.4794 63.1199 90.4294C62.8199 91.0994 62.9399 91.9394 62.5599 92.5494C61.3199 94.5294 59.7299 91.9394 59.9599 90.2694C60.6599 85.2594 65.8699 81.1694 70.6399 80.3194C71.2999 80.1994 75.4999 80.9594 75.6799 81.1394L75.6899 81.1194Z" fill="black"/>
<path d="M65.2799 55.699C66.0999 55.579 66.4399 54.909 67.2799 54.569C69.0899 53.839 71.0599 53.739 72.5999 55.089C74.4199 56.679 73.9899 60.829 71.3099 61.579C69.1799 62.179 67.4799 62.139 65.9799 60.359C64.7999 58.959 65.6199 57.579 65.1399 56.869C65.0699 56.759 63.5099 55.999 63.3099 55.979C62.3899 55.899 62.2699 56.689 61.6699 57.009C59.0799 58.379 56.2899 59.769 53.4099 60.389C52.8799 60.499 48.9499 61.119 48.7199 61.079C48.2099 60.999 47.1599 59.619 47.0699 59.109C46.5899 56.409 50.0499 57.139 51.6599 56.849C56.0199 56.059 57.9999 54.989 61.3599 52.229C64.3099 49.799 67.2699 45.789 69.2199 42.479C69.6899 41.679 69.1899 40.619 70.8299 40.479C72.5599 40.329 72.8499 41.849 72.3499 43.219C71.9599 44.289 69.8699 47.889 69.1699 48.989C68.0599 50.729 66.4999 52.389 65.0999 53.909L65.2699 55.689L65.2799 55.699Z" fill="black"/>
<path d="M110.53 51.3299C107.11 47.5199 101.63 44.2499 96.59 46.8799C95.53 47.4299 94.6 49.2099 93.49 47.3299C92.56 45.7599 93.9 44.7199 95.2 43.9999C99.96 41.3899 105.48 42.6099 109.59 45.8499C110.81 46.8099 114.64 51.5999 114.98 52.9899C115.32 54.3799 115.77 56.8999 113.53 56.2399C112.12 55.8199 111.76 52.6999 110.52 51.3199L110.53 51.3299Z" fill="black"/>
<path d="M99.46 55.8491C99.78 55.8691 102.42 56.8491 102.6 57.0191C103.06 57.4591 103.56 59.9691 103.48 60.5991C103.44 60.9291 102.11 63.2391 101.81 63.4291C100.66 64.1491 97.58 64.0291 96.49 63.1391C93.66 60.8591 95.91 55.5891 99.47 55.8491H99.46Z" fill="black"/>
<path d="M89.7401 2.36075C89.9401 2.47075 90.2401 2.36075 90.5101 2.49075C91.5801 2.97075 95.7801 6.46074 96.4501 7.43075C96.8601 8.03075 96.6701 8.71075 97.7401 8.75075C98.4501 8.78075 98.7501 8.25075 99.4001 8.13075C101.21 7.79075 102.97 7.59074 104.7 7.10075C106.43 6.61075 108.12 6.09074 109.95 5.85075C110.71 5.75075 111.01 5.65075 111.45 6.30075C111.56 5.47075 112 5.87075 112.43 5.75075C115.14 4.97075 116.01 5.41075 118.68 5.42075C122.34 5.43075 125.74 4.65075 129.35 5.86075C130.01 6.08075 131.73 6.89075 132.34 7.34075C132.87 7.73075 133.37 9.01075 133.94 9.54075C134.48 10.0507 136.11 10.9407 136.83 11.3507C138.84 12.4907 140.18 12.7507 142.25 13.5607C142.5 13.6607 142.69 14.0107 142.88 14.0507C143.08 14.0907 143.37 13.8907 143.66 13.9207C145.35 14.1307 147.34 15.4007 148.8 16.1007C149.47 16.4207 150.42 16.6107 151.04 16.9407C151.24 17.0507 152.41 18.0607 152.53 18.2107C152.85 18.6407 152.9 20.4307 153.05 21.1007C153.1 21.3407 153.39 21.5407 153.46 21.8207C153.54 22.1907 153.42 22.6007 153.49 22.8907C153.53 23.0407 153.84 23.0607 153.95 23.2707C154.74 24.7707 154.63 26.6407 155.32 28.2407C156.14 30.1707 160.79 35.2907 160.74 36.7207C160.74 36.8507 160.45 37.0007 160.49 37.3307C160.54 37.7007 161.19 38.2207 161.24 38.5307C161.66 41.2307 162.55 43.7007 162.26 46.6207C162.06 48.6507 161.1 49.9507 160.52 51.7007C159.99 53.3207 159.72 55.1507 159.29 56.8007C159.15 57.3407 158.42 58.2407 158.4 58.3307C158.37 58.5207 158.55 58.8607 158.5 59.2407C158.43 59.7607 158.04 60.0907 157.92 60.4607C157.66 61.2507 157.5 61.9807 157.18 62.8107C156.57 64.4007 156.13 65.1907 155.05 66.4507C154.76 66.7907 153.96 67.2408 153.54 67.3008C153.07 67.3708 152.55 66.6807 152.03 67.2607C152.1 67.5508 152.26 67.8107 152.32 68.1007C152.58 69.4607 152.71 71.2707 153.05 72.5607C153.14 72.9207 153.67 73.4607 153.83 73.8907C154.02 74.3907 154.71 76.7008 154.79 77.1507C154.89 77.6908 154.59 78.2407 154.66 78.5707C154.91 79.7407 156.14 83.1608 156.03 84.2907C156.02 84.4207 155.77 84.5707 155.77 84.7807C155.77 85.0007 156.12 85.3408 156.19 85.6608C156.57 87.3808 156.22 91.3407 155.75 93.0207C155.67 93.3107 155.02 93.7308 154.89 94.1208C154.76 94.4908 154.86 94.8307 154.77 95.1307C154.7 95.3807 153.67 96.4907 153.83 96.7007C154.7 96.7207 155.04 97.9107 155.22 98.6407C155.28 98.8807 155.1 99.1407 155.16 99.3507C155.23 99.6407 155.66 99.7607 155.75 100.071C155.84 100.381 155.74 100.681 155.82 100.981C155.92 101.331 156.47 101.771 156.75 102.011L156.44 102.641C156.57 102.811 156.8 102.831 156.93 103.001C157.87 104.301 158.71 105.781 158.99 107.391C159.3 109.171 159.71 115.131 159 116.571C158.88 116.821 158.56 116.811 158.55 116.941C158.52 117.181 158.76 118.061 158.68 118.351C158.61 118.611 158.27 118.731 158.15 118.961C155.4 124.351 154.66 129.071 155.86 135.191C156.39 137.881 156.52 139.861 156.78 142.551C156.86 143.341 157.41 144.521 157.37 145.201C157.32 146.031 157.36 145.761 157.4 146.461C157.42 146.761 157.08 147.121 157.1 147.441C157.11 147.711 157.49 148.071 157.5 148.481C157.5 148.771 157.2 149.001 157.16 149.291C157.13 149.551 157.39 149.751 157.39 150.031C157.42 151.351 156.87 153.111 156.61 154.431C155.89 158.101 155.11 161.611 153.97 165.101C153.89 165.361 153.2 166.081 153 166.571C152.87 166.901 152.72 167.381 152.7 167.741C152.68 168.141 153.4 167.971 153.81 168.091C154.1 168.181 155.42 168.711 155.58 168.841C156.36 169.461 156.55 170.941 156.76 171.881L155.95 171.721L155.87 172.531C155.16 172.261 154.37 172.191 153.65 171.991C153.23 171.871 152.91 171.531 152.26 171.431C151.84 171.371 151.08 171.311 150.68 171.391C150.16 171.491 149.8 172.171 149.58 172.251C149.18 172.391 148.86 172.131 148.33 172.461C148.21 172.531 148.19 172.781 148.13 172.811C148.06 172.851 147.84 172.661 147.67 172.761C147.45 172.891 147.33 173.511 146.9 173.631C146.65 173.701 144.5 173.911 144.42 173.831C144.38 173.291 144.46 172.741 144.71 172.261C144.95 171.811 145.49 171.591 145.55 171.441C145.61 171.291 145.75 170.191 145.72 170.061C145.58 169.881 145.3 169.751 145.09 169.671C143.93 169.231 142.48 168.911 141.29 169.331C139.57 169.951 140.01 170.031 138 169.971C134.69 169.871 132.43 169.031 130.39 166.351C129.09 164.651 127.65 161.751 126.74 159.771C126.52 159.301 126.53 158.761 126.24 158.311C125.64 158.481 125.02 158.671 124.4 158.411C124.2 158.321 124.23 157.711 123.86 157.601L123.15 157.921C123.09 157.861 123.61 156.771 123.06 156.631C122.4 156.471 121.84 157.661 121.4 157.911C119.9 158.751 118.65 157.651 117.15 157.521L115.37 156.621C115.93 158.041 116.68 159.431 116.78 160.971C118.56 166.921 120.03 173.301 121.17 179.471C122.03 184.141 122.45 188.251 122.82 192.901C123.19 197.551 123.37 201.891 123 206.381C122.37 214.021 121.04 221.861 121.02 229.431C121.02 232.041 121.29 235.141 121.04 237.701C120.91 239.061 120.87 239.791 120.98 241.221C121.1 242.841 121.29 244.531 121.37 246.151C121.42 247.051 121.18 249.661 121.52 250.221C121.69 250.501 122.31 250.751 122.64 251.211C123.65 252.641 123.8 254.121 122.17 255.061C120.83 255.841 117.86 255.801 116.27 255.811C110.79 255.861 105.03 254.991 99.5901 254.141C96.8201 253.711 94.0401 252.831 91.2801 252.711C85.3901 252.451 79.0101 253.301 73.1101 253.861C71.1201 254.051 69.2101 254.531 67.0901 254.511C59.4201 254.421 52.3201 254.121 44.7401 252.841C39.9101 252.021 36.0601 251.421 30.9001 251.571C30.0401 251.601 28.4701 252.021 27.6901 251.841C26.9601 251.671 26.6901 251.271 25.7101 251.281C23.3401 251.301 22.8701 251.201 20.5701 250.391C20.4001 250.331 20.1601 250.441 20.0601 250.391C19.2801 250.081 19.3501 248.041 19.2601 247.321C18.7001 242.521 19.4101 237.151 19.8501 232.361C20.5601 224.651 21.6001 216.801 22.5401 209.121C23.4001 202.111 25.1401 195.221 25.9501 188.191C26.4801 183.631 26.5201 178.971 27.1001 174.411C28.1301 166.391 31.3601 157.541 33.8701 149.861L39.0901 139.581C38.3201 139.411 37.7701 140.071 37.1501 140.311C36.6101 140.511 34.3001 141.041 34.1401 141.361C33.9801 141.681 33.9401 142.871 33.8601 143.351C33.3901 145.951 33.3401 149.341 32.2401 151.791C32.1801 151.921 30.7501 153.691 30.6501 153.771C30.2201 154.131 29.4601 154.271 29.0001 154.511C28.8101 154.611 28.8101 154.901 28.6101 154.961C28.3201 155.061 27.8601 154.991 27.4401 155.101C26.8101 155.271 26.4601 155.801 25.7701 155.911C25.5701 156.471 25.2301 157.031 25.0101 157.551C24.7701 158.121 24.6601 158.671 24.4601 159.261C24.3701 159.511 23.9401 159.571 23.7901 159.891C23.6401 160.211 23.7201 160.561 23.6201 160.861C23.4001 161.541 22.3401 164.831 21.9201 165.041C21.8401 165.081 20.2801 165.451 20.1801 165.461C19.7601 165.481 17.7601 165.271 17.2601 165.201C16.8001 165.131 16.1801 164.701 15.6501 164.771C15.2801 164.811 14.1801 165.711 13.3401 165.811C12.3001 165.941 11.6901 165.571 10.8901 165.401C10.1801 165.251 9.43009 165.471 8.58009 165.111C6.75009 164.351 4.96009 160.951 4.12009 159.181C2.77009 156.351 2.44009 154.341 1.72009 151.361C1.61009 150.891 1.03009 150.271 0.980089 149.991C0.850089 149.341 0.850089 149.221 0.660089 148.531C-0.449911 144.341 8.89301e-05 136.341 0.980089 132.051C1.08009 131.631 1.81009 130.571 1.89009 130.191C2.19009 128.791 2.59009 127.831 3.25009 126.531C3.49009 126.061 3.77009 125.501 3.06009 125.441C3.41009 124.941 3.27009 124.201 3.22009 123.581C3.01009 121.071 2.66009 119.141 2.58009 116.611C2.48009 113.411 1.49009 109.621 1.65009 106.401C1.98009 100.041 6.39009 89.7407 8.94009 83.7007C9.46009 82.4607 10.7601 80.5807 11.0001 79.2707C11.2001 78.1307 11.0501 75.3907 11.0201 74.1007C10.8701 65.0207 7.44009 57.3507 12.6801 48.8007C15.8101 43.7007 19.9901 39.6107 23.2801 34.7407C25.8601 30.9207 27.6701 25.8607 31.8701 23.2207C32.3801 22.9007 33.3201 22.8407 33.6301 22.2107C34.7201 20.0007 36.3201 19.9407 38.1501 18.8207C39.0001 18.3007 39.0401 17.6407 40.5601 17.1307C40.7701 17.0607 41.0301 17.2007 41.2201 17.1507C41.8401 16.9707 42.6201 14.5407 43.0001 13.8907C44.0701 12.0607 45.7501 9.63074 47.2401 8.15075C47.4201 7.97075 48.5701 6.91075 48.6501 6.87075C48.9801 6.73075 49.1501 6.97075 49.4501 6.96075C48.6301 6.02075 49.9501 5.76075 50.6201 5.34075C54.2101 3.07075 58.6801 2.43075 62.8901 2.98075C64.1401 3.14075 65.3901 3.06075 66.6901 3.27075C67.1701 3.35075 69.6001 4.07075 69.7801 4.02075C70.0901 3.94075 70.1301 3.50075 70.3301 3.38075C70.6701 3.17075 71.3201 3.24075 71.7201 3.06075C73.2501 2.38075 74.6701 1.38075 76.3901 0.880745C79.9401 -0.139255 84.2901 -0.469255 87.7301 1.06075C88.4601 1.38075 89.2301 2.12075 89.7301 2.38075L89.7401 2.36075ZM81.8001 4.62075C81.7301 4.59074 81.7601 4.34075 81.6701 4.36075C81.5401 4.39075 81.3501 4.66075 81.0101 4.68075C80.7301 4.70075 80.4501 4.51075 80.2001 4.52075C79.2101 4.53075 76.6401 5.65075 75.7201 6.17075C75.0401 6.55075 75.3701 6.23075 74.8901 6.33075C74.6701 6.38075 74.3201 6.94075 73.8901 7.13075C72.2501 7.87075 68.5501 8.14075 66.7401 7.93075C64.7501 7.70075 62.6301 6.86074 60.5701 6.95075C59.2201 7.01075 57.5401 7.89075 56.2101 7.60075C55.5401 8.29074 54.5801 8.42075 53.8301 8.96075C52.0601 10.2207 49.2701 12.8507 48.6001 14.9307C48.4901 15.2807 48.5501 15.8407 48.4601 16.0107C48.4001 16.1007 48.0301 16.1507 48.0101 16.2807C48.0101 16.3707 48.5801 17.6307 48.4701 18.0607L46.4001 19.3907C46.9101 20.4207 45.6901 21.3207 45.5101 22.0407C45.4401 22.3107 45.6301 22.5807 45.4701 22.9807C45.3901 23.1607 45.1201 23.1607 45.0901 23.2907C45.0001 23.7107 45.1801 24.2707 45.0901 24.6907C45.0701 24.7707 44.6001 25.8707 44.4801 26.2107C43.6601 28.4107 41.4801 30.1507 39.9501 31.6607C39.8101 31.8007 39.8901 32.2107 39.7001 32.3907C39.4201 32.6507 38.3601 33.2907 38.0101 33.6207C37.2201 34.3607 36.5701 35.3607 35.6001 35.8307L35.8501 36.6507L34.4601 37.1307C34.1201 38.6907 33.0301 40.0007 32.3701 41.5307C32.1901 41.9607 31.6001 43.4607 31.4801 43.8807C31.0001 45.5907 31.4501 47.8907 31.3001 49.7107C31.1601 51.4207 30.6801 51.5707 31.0201 53.4007C31.3601 55.2307 31.3101 56.3507 31.3001 58.1607C31.3001 58.7007 31.3901 58.5307 31.3201 59.2907C30.8401 64.3907 29.6601 66.4107 27.2101 70.5607C27.0501 70.8207 25.7301 74.6908 25.7101 74.9408C25.6801 75.2408 25.7901 75.4707 25.8001 75.7607C25.4101 75.7008 25.1101 75.4307 24.8301 75.8407C24.7101 76.1507 25.1401 76.0508 25.1601 76.1807C25.2401 76.6007 24.9201 76.7707 24.8701 77.0207C24.7001 77.8307 24.1901 79.1107 24.1601 79.7407C24.0901 81.6307 23.5001 82.6707 23.2101 84.4607C22.9201 86.2507 22.6901 87.1308 22.2601 88.8708C21.7501 90.9208 22.8701 94.2907 22.2401 96.3008C23.0101 96.6107 22.6001 97.1007 22.7101 97.7507C22.9301 99.0508 23.0701 100.321 23.2301 101.611C23.4401 103.291 24.5001 108.931 23.8201 110.081C23.7101 110.261 23.4201 110.271 23.3601 110.461C23.2201 110.901 23.3901 111.581 23.3301 112.001C23.2301 112.621 22.6201 113.631 22.5501 114.001C22.4601 114.441 22.6401 115.001 22.5501 115.431C22.5401 115.491 21.8201 116.361 21.7601 116.491C21.2201 117.651 20.6401 118.781 20.3201 120.051C19.9801 121.381 20.0601 120.751 19.6301 121.521C19.1401 122.401 17.9801 126.781 17.9201 127.801C17.8901 128.321 18.1601 129.051 18.1301 129.551C18.0701 130.531 17.5501 131.751 17.5601 132.801C17.5601 135.811 17.4201 139.121 17.3801 142.231C17.3601 143.701 17.6901 145.591 17.5301 147.111C17.2101 150.141 16.3301 152.981 16.1501 156.211C16.1501 156.351 15.9101 156.561 15.8901 156.851C15.8501 157.471 16.7901 159.691 17.3201 159.981C17.4901 160.071 18.6801 160.421 18.8101 160.331C19.4301 158.661 20.0201 156.811 20.7401 155.201C21.3501 153.841 21.9101 152.971 23.1201 152.061C24.1001 151.331 24.5201 151.431 25.5001 151.031C25.8201 150.901 26.9301 150.471 27.0801 150.341C27.5101 150.001 28.7401 147.731 28.3901 147.351C27.8901 147.231 27.2201 147.851 26.8501 147.831C26.6301 147.831 26.4401 147.561 26.2001 147.521C25.8001 147.461 25.4101 147.571 24.9801 147.441C24.4801 147.291 23.8301 146.391 23.7701 145.891C23.7401 145.691 23.9501 145.581 23.9501 145.481C23.9501 145.271 23.7001 145.061 23.6901 144.811C23.6801 144.211 23.9601 143.491 23.9701 143.081C23.9901 142.121 23.4001 141.381 23.7401 140.331C23.8501 139.981 24.3101 139.691 24.3101 139.341C24.3101 138.751 23.7401 138.941 23.7001 138.911C23.6501 138.861 23.8701 138.391 23.8701 138.181C23.8401 136.831 23.9201 135.691 23.7801 134.291C23.6601 133.111 23.8201 133.241 23.8501 132.341C23.9001 130.931 23.0601 128.931 23.0601 127.621C23.0801 122.821 24.0501 116.591 25.4401 111.991C25.8001 110.811 25.8001 111.601 25.8101 110.101C25.8101 109.991 26.1001 110.021 26.1901 109.811C27.4501 106.761 29.0101 103.571 28.9201 100.361C28.9201 100.171 29.2801 98.7907 29.3801 98.7107L30.0401 98.8107L29.2501 98.2207C29.3801 97.5607 28.9901 96.7907 28.9801 96.2207C28.9801 95.0307 28.7501 94.2907 28.5701 93.0307C28.1001 89.5707 27.6901 85.9207 27.2601 82.5007C27.1901 81.9607 27.6601 79.3408 27.8701 78.8708C27.9801 78.6308 28.2301 78.6807 28.2401 78.6707C28.3701 78.4607 27.9101 78.2108 27.9501 77.9808C28.0301 77.5007 28.4401 76.1407 28.6201 75.5607C29.2501 73.5107 30.3701 71.3607 30.9601 69.3008C31.1801 68.5308 31.1701 67.2707 31.4801 66.5707C31.6301 66.2407 31.9801 66.1908 32.0001 66.0807C32.0301 65.8907 31.8201 65.5907 31.8401 65.3107C32.0901 62.0907 34.2301 57.5507 35.2201 54.4007C36.5201 50.2507 35.6101 45.4607 37.2601 41.6707C37.3601 41.4407 37.7901 41.2407 37.9501 40.9007C39.0701 38.5607 39.8501 36.1607 41.0601 33.9507C42.1101 32.0307 43.5601 30.1107 45.1401 28.6207C49.4301 24.5607 55.3201 20.5907 60.7401 18.4107C62.2701 17.7907 63.3501 17.6707 64.8001 16.8007C66.7201 15.6507 69.3501 14.8607 71.4601 13.8807C71.7001 13.7707 71.9601 13.8007 72.2101 13.7307L72.2301 13.2707L73.3401 13.5707C73.4101 13.3007 73.5001 13.2007 73.7501 13.0907C76.5601 11.7907 83.6601 11.0607 86.7601 11.3207C87.7601 11.4007 88.0101 11.8607 88.5501 11.9707C89.2801 12.1307 89.1401 11.5607 89.3401 11.5207C89.7501 11.4507 90.5501 11.9107 90.4101 12.4507L90.9701 11.7007L94.3001 12.1207C93.7401 10.8407 92.4901 10.1407 91.5601 9.26075C91.0601 8.79075 90.5301 8.03075 89.9601 7.57075C88.9801 6.79075 84.9101 4.52075 83.7901 4.35075C83.1201 4.25075 82.8001 5.01075 81.8601 4.59075L81.8001 4.62075ZM128.27 9.92075C125.18 8.27075 122.12 8.98075 118.83 9.07075C117.63 9.10075 116.4 8.87075 115.27 8.92075C112.42 9.06075 108.64 9.92075 105.82 10.5007C103.95 10.8907 102.11 11.3607 100.23 11.7307C99.7901 11.8807 99.1401 12.8707 99.2801 13.3307C99.7801 14.2507 100.64 13.3507 100.95 13.4407C101.11 13.4907 101.28 14.1707 102.17 14.1707C102.41 14.1707 102.55 13.9307 102.75 13.9307C106.9 13.8507 109.88 14.2607 113.67 15.6607C114.41 15.9307 116.13 15.9107 117.15 16.2407C118.17 16.5707 118.68 16.9707 119.63 17.0407C120.8 17.1407 121.1 17.6007 121.77 17.7807C122.21 17.9007 123.3 17.8607 123.73 18.1707C123.88 18.2707 123.84 18.6907 123.95 18.7707C124.25 18.9707 126.49 19.0707 127.05 19.3207C127.77 19.6407 127.62 19.6107 128.44 19.8707C129.39 20.1607 131.25 21.3207 132.22 21.7807C137.6 24.3407 141.2 26.0807 145.43 30.1507C147.71 32.3407 148.99 35.2207 150.09 38.1507C150.24 38.5507 150.8 39.4607 150.84 39.6807C150.94 40.2507 150.17 42.4807 150.27 43.5207C150.37 44.5607 150.44 44.2907 150.38 45.4807C150.25 47.8107 150.45 48.8807 150.8 51.0807C150.91 51.7907 150.62 53.1407 150.71 53.5707C150.72 53.6407 151.2 53.9807 151.2 54.7407C151.2 55.4507 150.75 55.4407 150.72 55.5807C150.67 55.8207 150.42 56.7507 150.42 56.8207C150.45 57.2407 150.82 58.1907 150.89 58.9507C151.02 60.4807 151.16 61.7107 151.52 63.1807C151.59 63.4607 151.43 63.8607 151.61 64.0607C151.72 63.6407 152.39 62.9107 152.47 62.6507C152.9 61.2407 153.15 59.2107 153.64 57.8607C153.72 57.6507 154.06 57.6707 154.1 57.4907C154.19 57.1207 154.09 56.1807 154.3 55.4307C154.95 53.1307 155.68 50.6507 156.44 48.2907C156.78 47.2307 157.19 46.5607 157.34 45.3007C157.68 42.4907 156.2 37.3807 154.51 35.0307C152.7 32.5007 150.12 29.5507 149.33 26.4107C148.88 24.6007 148.35 22.8407 147.87 21.0507C147.39 19.2607 145.79 18.9607 144.23 18.3607C142.79 17.8007 142.49 17.8307 141.08 17.4907C140.91 17.4507 140.93 17.1007 140.7 17.0207C138.29 16.2107 135.45 16.0807 133.38 14.2407L131.28 13.0507L128.27 9.90075V9.92075ZM98.3001 15.5507C98.9801 14.6807 100.02 15.4307 100.73 14.6607H98.9401L98.3201 14.9307L98.2901 15.5507H98.3001ZM81.2601 18.1507C80.9001 18.1307 80.5701 17.9907 80.2001 17.9707C79.9501 17.9607 78.8501 17.9807 78.6201 18.0207C78.0701 18.1007 77.8201 18.5507 77.5701 18.6107C77.3201 18.6707 76.8901 18.4407 76.4901 18.4807C75.9001 18.5307 74.6201 19.2507 73.9901 19.4007C73.2601 19.5807 71.8801 19.4607 71.3201 19.6307C71.0901 19.7007 70.9801 20.0107 70.7601 20.0707C70.2001 20.2207 69.9201 20.0307 69.0401 20.4507C58.8001 25.2707 51.7601 34.3107 46.0501 43.5507C45.2001 44.9207 44.0501 46.5407 43.5901 47.9107C43.4301 48.4007 43.4101 49.1007 43.2501 49.5107C42.9501 50.2707 42.0601 51.2507 41.7101 52.1907C40.6601 54.9607 41.4401 59.1807 40.4101 62.0907C40.3301 62.3207 39.9701 62.5007 39.9501 62.6907C39.7601 64.0507 39.8201 64.1307 39.2701 65.4907C38.2301 68.0907 35.9101 71.2707 35.8801 74.0907C35.8801 74.4207 36.1201 74.6807 36.0801 74.9707C36.0301 75.3107 35.6601 75.2407 35.6701 75.3607C35.6901 75.6107 35.9701 75.7607 36.0001 76.0207C36.2801 78.0907 35.3301 81.0107 36.2501 83.0607C36.4001 83.4007 37.3301 84.4907 37.1301 84.7007H36.6401C36.8201 85.3807 37.6501 88.3307 38.1801 88.5907C38.5101 88.7507 38.3901 88.3507 38.4001 88.2007C38.5201 84.1507 40.7001 77.4808 42.5801 73.8307C43.8401 71.3907 45.6201 69.2707 46.7901 66.6807C49.0801 61.6207 46.8801 53.8707 47.8501 48.1007C49.1901 40.1907 57.6201 32.0507 63.6601 27.2207C64.0001 26.9407 64.3501 27.2907 64.2501 26.4407C65.1501 26.3607 65.6401 25.6707 66.3601 25.2207C70.3601 22.6807 75.4201 20.2007 79.9601 18.7307C80.3301 18.6107 81.2901 18.8707 81.2701 18.1407L81.2601 18.1507ZM99.0501 21.7907C98.5501 21.4907 98.2701 21.1807 97.8701 20.9407C96.7701 20.2707 94.4901 19.1707 93.2301 19.3207C92.6401 19.3907 91.1201 20.0107 90.3501 20.2007C85.7801 21.3307 81.0501 22.6007 76.7301 24.5807C71.8601 26.8007 67.5601 30.1107 63.5901 33.6707C63.3801 33.8607 63.2501 34.2607 63.0201 34.4107C62.6801 34.6307 62.2201 34.5107 62.1301 34.5807C62.0701 34.6307 62.0801 35.0607 61.9501 35.2607C60.9401 36.8407 58.7601 38.5807 57.5701 40.1607C55.6901 42.6507 54.8701 44.5307 53.9701 47.4307C53.6801 48.3607 53.2001 48.4907 53.0901 49.9307C52.8401 53.4307 52.9901 57.1507 53.0101 60.7707C53.0401 64.8907 53.3501 65.8607 51.4001 69.7007C50.5901 71.3007 49.6001 72.7407 48.7501 74.2707C48.3501 74.9807 47.9801 75.8408 47.5701 76.5807C47.4101 76.8808 46.9701 77.0607 46.8901 77.3607C46.8001 77.6807 46.9201 78.0207 46.8601 78.2707C46.8201 78.4507 46.4301 78.4407 46.3901 78.6307C46.3501 78.8007 46.5701 79.0607 46.5501 79.2507C46.5501 79.3107 45.9001 79.6507 45.7701 80.1307C45.1001 82.5507 43.8601 86.2607 43.7701 88.6807C43.6801 91.1007 44.2101 94.9408 45.0701 97.1407C45.3501 97.8708 45.7701 97.6407 45.2301 98.7407C45.7101 98.9007 46.1501 99.3907 46.5501 99.5508C47.4101 99.9108 47.2501 99.6708 48.1001 100.261C51.3001 102.491 54.4801 105.301 58.2101 106.551C59.2301 106.891 59.3801 107.001 60.2801 107.401C61.3701 107.891 62.3101 108.001 63.1801 108.551C66.4101 110.621 72.8601 112.501 76.6501 112.941C79.5801 113.271 84.8301 112.721 87.8101 112.321C87.9201 112.301 87.8901 112.001 88.0101 111.991C89.0801 111.891 88.5401 111.851 89.2201 111.581C89.4601 111.481 89.7101 111.691 90.0301 111.601C90.9301 111.361 93.0801 109.861 94.0501 109.411C100.7 106.291 107.59 105.801 113.59 101.441C115.46 100.081 118.74 97.5807 120.35 95.9907C121.96 94.4007 121.81 92.6107 122.27 90.5107C122.24 90.0307 121.74 90.1008 121.67 89.6908C121.6 89.2507 121.36 87.2907 121.38 86.9207C121.4 86.5007 121.73 86.1207 121.69 85.6307C121.66 85.2707 121.38 85.0807 121.37 84.8307C121.34 84.2507 121.69 82.9707 121.66 82.3807C121.64 82.0307 121.19 81.8108 121.22 81.4408C121.24 81.2607 121.47 81.0307 121.5 80.7507C121.61 79.8807 121.79 78.4907 121.84 77.6707C121.87 77.0307 121.52 76.7107 121.54 76.2607C121.59 75.3507 122.53 73.9807 122.49 72.8107C122.47 72.3207 122.13 71.8707 122.08 71.4507C122 70.7207 122.21 69.3507 122.1 68.6107C121.86 66.9207 121.03 65.3207 120.38 63.8307C120.24 63.5107 120.19 62.7807 119.96 62.5007C119.74 62.2407 119.25 62.3607 118.95 62.1307C118.17 61.5207 116.29 59.6007 115.52 58.8307C115.13 58.4407 114.7 58.0707 114.53 57.5307C114.35 57.3807 114.01 57.6907 113.9 57.6207C113.83 57.5807 113.18 56.5507 112.97 56.3407C112.42 55.8007 111.44 55.0707 110.87 54.5507C110.53 54.2407 109.48 52.0807 109.41 51.6307C109.34 51.1807 109.59 50.7107 109.25 50.1507L109.66 49.6807C108.83 49.5807 109.2 48.0107 109.17 47.3407C109.07 44.0407 109.49 41.2907 109.65 38.0707C109.71 37.0007 109.38 36.4907 109.33 35.7907C109.26 34.7207 109.46 33.2807 109.31 32.0807C109.11 30.5107 108.15 29.9507 107.58 28.7807C107.43 28.4707 107.44 27.9307 107.35 27.8007C107.26 27.6707 105.42 26.0007 105.11 25.7307C103.32 24.2007 100.95 22.9407 99.0401 21.8207L99.0501 21.7907ZM144.89 40.6907C144.83 40.6007 144.9 39.3107 144.66 38.5707C143.32 34.5207 139.69 30.6307 136.09 28.4807C130.27 24.9907 124.21 22.4207 117.73 20.5507C116.18 20.1007 114.65 19.6007 113.07 19.2907C113.23 20.1107 113.72 19.7307 113.84 19.8007C116.85 21.6107 119.75 23.6407 122.65 25.6907C123.27 26.1307 124.61 26.4907 124.43 27.4007C124.72 27.4607 124.53 27.1307 124.59 27.0807C124.7 26.9907 126.13 28.3707 126.29 28.5407C126.75 29.0107 126.92 29.8207 127.67 29.8407L127.51 30.4907C128.21 30.2107 128.52 30.7207 128.97 31.2207C133.75 36.4707 139.79 43.3807 138.39 51.0307C138.23 51.8907 138.89 53.8207 138.99 54.7907C139.15 56.3007 139.28 58.5807 139.19 60.1007C138.86 65.6507 138.4 71.1208 137.03 76.4707C136.7 77.7407 135.39 80.1608 135.91 81.4108C136.84 83.6608 137.62 85.9607 138.46 88.2707C138.8 89.1907 139.56 90.4407 139.77 91.3407C140 92.3107 139.7 93.2708 139.74 94.1608C139.79 95.4108 140.59 96.2507 140.49 97.7507C140.43 98.6307 139.96 98.8708 139.86 99.2507C139.77 99.5907 140.06 99.9307 139.99 100.171C139.93 100.371 139.56 100.361 139.51 100.541C139.43 100.891 139.51 101.351 139.38 101.831C139.15 102.671 138.95 103.681 138.71 104.411C138.51 105.021 137.97 105.361 137.81 105.801C137.7 106.091 137.85 106.351 137.74 106.681C137.57 107.221 136.73 108.191 136.47 108.831C136.08 109.781 135.87 110.661 135.42 111.681C135.27 112.021 135.12 112.801 134.98 112.991C134.85 113.181 134.51 113.051 134.48 113.091C134.31 113.261 134.74 113.701 134.75 113.821C134.75 113.881 134.67 114.861 134.66 114.931C134.64 115.091 134.32 115.071 134.24 115.191C134.05 115.481 134.18 116.451 134.16 116.901C133.99 120.001 134.23 122.991 134.58 126.101C134.68 127.001 135.23 128.481 135.26 128.951C135.28 129.241 134.97 129.441 135 129.851C135.13 131.471 136.16 132.851 135.95 134.741C135.94 134.851 135.64 134.831 135.61 134.951C135.47 135.581 135.42 136.301 135.23 137.011C134.49 139.771 133.57 142.691 132.28 145.221C132.1 145.571 131.62 145.811 131.47 146.361C131.35 146.811 131.44 147.201 131.3 147.661C131.11 148.291 130.49 148.541 130.29 148.921C129.98 149.521 129.9 150.941 129.41 151.941C129.27 152.241 128.81 152.611 128.8 152.661C128.76 152.801 128.53 154.171 128.54 154.251C128.56 154.571 129.86 156.051 130.13 156.491C131.65 159.011 132.82 162.071 134.31 164.641C135.49 165.431 135.94 166.161 137.49 166.181C138.48 166.191 139.97 165.651 140.96 165.431C141.35 165.341 142.33 165.461 142.43 165.111C142.51 164.841 140.54 161.891 140.24 161.311C137.14 155.261 136.42 151.811 140.03 145.671C140.77 144.421 141.89 143.151 142.55 141.871C143.21 140.591 145.23 135.471 145.28 134.211C145.29 133.881 144.92 133.811 144.88 133.611C144.87 133.541 145.28 132.711 145.33 132.311C145.88 127.901 145.22 124.311 145.36 120.001C145.41 118.461 145.44 116.931 145.51 115.461C145.8 109.191 146.32 103.541 147.99 97.4707C148.58 95.3307 150.72 92.0507 150.88 90.1307C151.21 86.1907 149.86 80.0007 148.81 76.1208C147.84 72.5508 147.16 69.9508 146.53 66.2607C146.11 63.8208 145.49 61.1807 145.42 58.6107C145.3 54.1507 144.98 49.5107 145.12 45.0707C145.16 43.9707 145.68 41.9807 145.32 40.9707C145.24 40.7307 144.91 40.7407 144.88 40.6907H144.89ZM39.8801 22.5407C38.7701 22.4107 38.8501 22.9407 38.4101 23.4207C37.4201 24.5107 36.0801 25.6507 34.9301 26.7607C32.9501 28.6807 31.8701 29.6907 30.5001 32.0607C30.1101 32.7407 29.3501 34.4607 29.0001 34.9107C28.5901 35.4607 28.7401 34.9507 28.2601 36.0007C27.0001 38.7507 25.2101 40.0607 23.5801 42.1907C23.3101 42.5407 22.5701 43.2607 22.5301 43.3307C22.5001 43.3807 22.7001 43.6507 22.6501 43.8507C22.6001 44.0707 22.2501 44.2307 22.1101 44.4607C22.0001 44.6307 22.0801 44.9507 21.9901 45.0607C21.8401 45.2507 20.6401 45.8407 20.2401 46.4707C18.5301 49.1207 15.8901 53.2607 15.3801 56.2307C15.3001 56.6807 15.5201 57.3907 15.3401 57.9607C15.2301 58.2907 14.8101 58.3707 14.7301 58.8107C14.6301 59.3507 14.9301 59.8907 14.9101 60.4307C14.8901 60.9707 14.5701 61.1807 14.5601 61.5507C14.5201 62.9507 15.2001 64.3107 15.3301 65.6407C15.6301 68.9707 16.3901 72.2607 16.3701 75.6908C16.3701 76.4908 16.1101 77.2408 16.1901 78.1208C16.2501 78.7708 16.5401 79.2307 16.5301 79.8907C16.5001 81.0707 15.8501 80.7207 15.7301 81.0508C15.5901 81.4408 15.7901 82.0707 15.5801 82.6908C15.4401 83.1107 14.4601 83.9907 14.4101 84.1507C14.3201 84.4607 14.3001 85.4807 14.2201 85.7107C14.1401 85.9408 13.7901 85.9207 13.7501 86.0907C13.4201 87.4907 13.2701 87.5207 12.8101 88.7007C12.6401 89.1307 12.7801 89.6407 12.5801 90.0807C11.8601 91.6908 11.2601 91.5707 10.9501 93.6707C10.9001 93.9907 10.3201 94.8007 10.3701 95.3107C9.48009 95.4707 10.0501 95.6008 9.99009 96.1208C9.94009 96.5107 9.36009 96.9407 9.26009 97.3107C8.80009 99.0007 8.33009 101.351 7.93009 103.121C7.73009 104.021 7.68009 105.741 7.40009 106.651C7.33009 106.871 7.02009 107.001 6.97009 107.201C6.64009 108.461 7.94009 112.401 8.05009 113.991C8.10009 114.661 7.91009 115.581 7.91009 116.261C7.91009 116.661 8.03009 117.011 8.09009 117.401L7.47009 118.171C7.44009 118.961 8.00009 119.431 8.05009 119.691C8.09009 119.891 7.88009 120.311 7.91009 120.651C7.96009 121.281 8.23009 122.181 8.34009 122.831C8.57009 124.131 8.89009 124.891 9.17009 126.061C9.68009 128.201 8.76009 127.261 8.36009 128.071C8.00009 128.821 8.56009 130.571 6.95009 130.311L7.39009 131.531C6.77009 131.941 6.92009 132.441 6.70009 132.901C6.44009 133.441 6.03009 133.801 5.85009 134.651C5.75009 135.111 6.25009 135.321 5.33009 135.751C6.26009 136.121 5.46009 136.421 5.48009 137.051C5.49009 137.591 5.77009 138.571 5.74009 139.331C5.60009 142.671 5.37009 146.121 6.40009 149.461C6.99009 151.381 7.48009 153.611 8.41009 155.431C8.63009 155.871 9.92009 158.551 10.1201 158.551C10.3901 158.271 10.7401 157.721 10.8801 157.361C11.0801 156.841 11.2501 153.871 11.1701 153.291C11.1201 152.941 10.8101 152.681 10.8401 152.311C10.8701 152.031 11.1701 151.831 11.2501 151.571C12.1201 148.811 12.4701 144.381 12.5401 141.431C12.5901 139.271 12.2901 136.791 12.4601 134.771C12.6301 132.751 12.4901 130.901 12.7801 128.751C12.9201 127.711 12.5001 127.061 13.6101 126.331C13.0101 126.191 13.1301 125.361 13.2001 124.781C13.3201 123.831 13.9801 122.811 13.4601 121.961C14.8301 121.281 13.8001 120.811 13.9601 120.191C14.0001 120.031 15.0301 118.701 15.2001 118.331C15.5401 117.551 15.6001 116.641 15.9801 115.861C16.5201 114.761 16.7601 114.941 17.0901 113.581C17.3401 112.551 17.4901 111.571 18.1601 110.741L17.8301 110.421C18.0001 110.211 18.3501 110.171 18.4501 109.901C18.4801 109.831 18.7401 108.541 18.7401 108.471C18.7201 107.471 18.7201 105.901 18.6301 104.911C18.6101 104.691 18.2601 102.851 18.2101 102.741C18.0701 102.471 17.8501 102.561 17.8401 102.541C17.8101 102.491 18.2701 101.951 18.2501 101.481C18.2301 101.121 17.9601 100.921 17.9201 100.671C17.8101 99.9007 17.6101 97.6307 17.6801 96.9507C17.7001 96.7307 17.9501 96.5908 17.9301 96.3607C17.8901 95.8107 17.1401 94.8808 17.0401 94.3307C16.8501 93.2708 16.9001 91.4207 16.8701 90.2807C16.8401 89.1407 16.9401 89.6407 17.0301 89.2807C17.1501 88.7707 17.0001 87.7307 17.1001 87.2807C17.3001 86.3907 17.5001 85.8107 17.6901 84.7807C17.8501 83.9507 18.3401 83.3107 18.4501 82.7807C18.5501 82.3307 18.3801 81.7308 18.5101 81.3708C18.5901 81.1308 18.9601 81.1608 18.9801 81.0107C19.0001 80.8207 18.7701 79.9907 18.8501 79.7407C18.9201 79.5107 19.3001 79.5407 19.3201 79.3807C19.3501 79.1907 19.1201 78.9307 19.1801 78.6307C19.4601 77.1607 20.1101 75.5807 20.4501 74.2107C20.9001 72.3807 22.3101 67.7807 23.3601 66.2807C23.4901 66.0907 23.7801 66.0907 23.9301 65.8407C24.7201 64.5007 26.2801 59.6107 26.2401 58.1607C26.2201 57.6607 25.8601 57.3007 25.8001 56.8407C25.0901 51.4807 25.4401 43.6907 27.7801 38.8407C28.2801 37.8107 28.5101 38.1507 28.7301 37.9207C28.7801 37.8707 28.5801 37.5507 28.6101 37.3807C28.6201 37.3007 29.2601 36.2507 29.3801 36.0607C31.5001 32.6707 34.8901 29.7407 37.4901 26.9807C38.0101 26.4307 38.6001 25.9207 38.9801 25.2207C39.1501 24.9007 40.0601 22.6407 39.9201 22.5107L39.8801 22.5407ZM120.95 31.5307C118.17 28.9707 114.02 25.8307 110.78 23.9307C110.66 23.8607 109.44 23.2307 109.66 23.7507C109.78 24.0407 110.88 24.9007 111.19 25.3107C111.94 26.2907 112.41 27.5407 112.99 28.5407C113.15 28.8207 114.01 29.3807 114.27 29.8507C114.83 30.8307 114.34 31.4307 114.37 32.3307C114.39 33.0207 114.98 33.8507 114.97 34.3407C114.97 34.6607 114.53 35.0107 114.54 35.4507C114.54 35.7607 114.85 36.0707 114.86 36.5807C114.89 37.5907 114.45 38.7707 114.35 39.6607C114.2 41.1107 114.54 41.6907 114.1 43.1507C113.8 44.1507 114.13 47.8407 114.34 48.9407C114.44 49.4907 114.24 50.5107 114.28 50.6307C114.92 52.5007 115.81 53.0307 117.12 54.2707C118.09 55.1907 118.72 55.9607 119.79 56.6207C120.22 56.8807 120.49 57.5607 120.83 57.8607C121.17 58.1607 121.84 58.4407 122.28 58.8407C124.81 61.1207 126.47 64.4108 126.85 67.7607C127 69.1007 127.2 70.3708 127.26 71.7507C127.26 71.9907 127.49 72.2407 127.48 72.6007C127.46 73.4307 126.6 75.1608 126.6 76.2507C126.6 76.6608 126.96 76.9408 126.94 77.1608C126.94 77.2808 126.69 77.4908 126.67 77.8008C126.62 78.3808 126.74 79.5707 126.64 80.0607C126.56 80.4607 125.86 80.3407 126.03 80.8907L127.33 81.2107C125.35 81.2907 126.44 82.7307 126.37 83.8107C126.35 84.1607 126.04 84.4007 126.05 84.5907C126.08 84.9207 126.89 85.8708 126.51 86.6507C127.8 86.8507 127.48 86.0007 127.74 85.3708C128.14 84.3808 128.62 83.5107 129.02 82.5907C129.37 81.7807 130.6 79.6007 130.36 78.8207C129.5 76.0207 129.12 72.8507 129.1 69.8407C129.08 66.4107 129.77 63.7407 131.17 60.7207C131.36 60.3107 131.92 59.9607 132.01 59.4507C132.12 58.8407 131.83 58.3707 131.86 57.8607C131.89 57.4207 132.28 56.6507 132.39 56.1107C133.12 52.7507 133.15 51.6107 132.32 48.2807C131.94 46.7307 131.79 46.7307 131.07 45.4807C130.47 44.4507 130.25 43.3707 129.83 42.5007C129.75 42.3407 128.56 41.4607 128.49 41.3307C128.35 41.0807 128.14 39.9907 127.88 39.5907C127.76 39.4007 127.05 38.9307 126.84 38.6507C125.01 36.2107 123.19 33.6307 120.93 31.5407L120.95 31.5307ZM133.02 86.9707C132.65 86.9007 132.76 86.9907 132.66 87.1807C132.29 87.8607 131.81 89.4907 131.35 90.0007C131.16 90.2107 130.64 90.3207 130.51 90.5407C130.33 90.8507 130.24 92.0707 129.95 92.5407C129.84 92.7207 129.47 92.8008 129.29 93.0508C128.76 93.7808 128.13 95.0107 127.58 95.7308C126.5 97.1507 125.23 97.9208 124.79 99.9108C124.51 101.171 124.33 102.461 124.06 103.731C123.77 105.121 122.8 106.121 123.14 107.651C122.21 107.751 122.73 108.341 122.56 108.711C122.47 108.911 122.07 109.071 122.05 109.281C121.99 109.781 122.2 111.331 122.12 112.001C122.06 112.511 121.43 113.211 121.38 114.011C121.36 114.311 121.51 114.561 121.65 114.801L120.84 115.041C120.77 115.461 121.18 116.031 121.12 116.391C120.74 118.581 120.52 121.171 119.99 123.351C119.93 123.601 119.64 123.771 119.62 124.041C119.56 124.691 120.11 125.001 119.55 125.841C118.62 127.221 119.03 126.911 118.7 128.391C118.31 130.151 117.65 130.901 117.05 132.421C116.86 132.901 116.93 133.581 116.6 134.081C116.43 134.341 116.05 134.451 116.01 134.611C115.81 135.391 116.99 137.061 117.11 138.021C117.53 141.491 117.9 145.041 118.22 148.431C118.32 149.481 118.3 150.871 118.43 151.791C118.45 151.941 118.79 153.271 118.83 153.341C118.92 153.521 119.19 153.661 119.38 153.751L122.93 152.401C124 152.771 123.81 152.291 124.22 152.041C124.41 151.921 125.01 151.761 125.05 151.691C125.14 151.541 125.05 151.131 125.11 150.861C125.77 148.501 127.29 146.181 128.08 143.921C128.5 142.731 128.18 141.571 128.53 140.641C130.01 136.641 131.15 135.271 130.45 130.681C130 127.691 129.43 125.191 129.24 122.121C129.2 121.461 128.9 120.601 128.97 119.981C129.02 119.531 129.38 119.181 129.41 118.661C129.44 118.081 129.06 116.991 129.15 116.421C129.26 115.751 129.87 114.301 130.07 113.611C130.5 112.131 130.75 111.381 131.33 109.991C131.43 109.751 131.24 109.381 131.42 108.991C131.49 108.841 131.87 108.751 131.88 108.431L131.25 107.811C132.39 105.541 133.55 103.251 134.31 100.811C135.07 98.3707 135.24 97.1407 135.13 94.5107C135.11 94.0508 135.32 92.9307 135.27 92.7507C135.21 92.4907 134.79 92.3507 134.68 92.0307C134.61 91.8107 134.68 91.5107 134.6 91.3008C134.03 89.8907 133.23 88.4707 133.02 86.9607V86.9707ZM34.2001 92.8207L33.8801 92.9007C33.9401 93.1107 34.0401 93.3207 34.0401 93.5508C34.1201 95.9108 34.4401 98.1807 34.7001 100.521C34.8301 101.721 34.5201 101.541 34.4101 102.501C34.3301 103.231 34.5801 103.821 34.2101 104.761C33.9901 105.341 33.4201 105.721 33.2301 105.981C33.1901 106.041 33.5601 106.541 33.3001 107.261C32.5901 109.221 31.4701 111.051 30.8601 113.101C30.6701 113.761 30.3301 114.531 30.2001 115.041C29.2601 118.851 28.5201 124.341 28.5201 128.121C28.5201 128.671 28.2901 129.231 28.3901 129.861C28.4701 130.351 28.9301 131.131 28.9301 131.211C28.9401 131.421 28.5301 131.881 28.5601 132.181C28.5801 132.371 28.8601 132.551 28.9101 132.741C28.9501 132.901 28.7201 133.041 28.7401 133.241C28.9501 135.661 29.1901 137.521 29.1501 139.981C29.1501 140.561 28.9201 141.091 28.9801 141.671C29.5501 141.801 29.2101 141.151 29.3101 140.791C29.6701 139.471 30.0501 138.261 31.2601 137.551C32.8301 136.631 35.1501 136.661 36.7301 135.721L39.5201 134.941C39.2601 134.731 39.1501 134.611 39.0501 134.281C38.8901 133.761 38.6001 131.671 38.5601 131.041C38.5201 130.481 38.7701 129.501 38.7301 129.281C38.7001 129.131 38.3301 129.141 38.2501 128.911C38.2201 128.831 38.0701 127.431 38.0701 127.281C38.0701 126.901 38.3601 126.761 38.3701 126.501C38.4501 125.251 37.8301 123.371 37.8301 121.951C37.8301 121.311 38.1901 119.531 37.9101 119.171C37.7801 119.001 37.4101 118.991 37.4001 118.851C37.3701 118.511 37.9301 118.151 38.0301 117.731C38.1501 117.231 37.8101 116.401 37.7901 115.911C37.7701 115.241 37.7001 113.471 37.7801 112.901C37.8301 112.571 38.3901 109.991 38.4601 109.851C38.6101 109.561 39.5501 109.201 39.6601 108.761C39.7401 108.451 39.3901 108.251 39.3601 107.981C39.3001 107.531 39.2901 106.431 39.5101 106.071C39.6401 105.851 40.2701 105.711 40.3101 105.201C40.3301 104.931 39.7001 104.561 39.7501 104.091C39.7901 103.701 40.4801 103.151 40.5001 103.091C40.6501 102.381 40.1101 102.131 40.0601 101.801C40.0101 101.531 40.3601 100.691 40.1501 100.471C40.1001 100.411 39.7601 100.441 39.6001 100.301C38.9501 99.7408 38.4801 98.8408 37.9701 98.1908C36.6001 96.4808 35.1301 94.7707 34.1701 92.8207H34.2001ZM150.71 124.141C151.04 124.401 151.67 121.461 151.76 121.221C152.57 119.081 154.28 116.701 154.59 114.481C154.94 111.941 154.79 109.351 154.27 106.861C153.69 106.361 152.64 103.401 152.24 103.201C151.98 103.071 151.91 103.481 151.88 103.651C150.97 108.561 151.01 113.711 150.69 118.701C150.59 120.331 150.57 121.831 150.55 123.441C150.55 123.701 150.67 123.901 150.7 124.151L150.71 124.141ZM47.7801 105.201C47.5401 105.051 47.2701 105.031 47.0301 104.891C46.5201 104.601 46.2801 104.171 45.5501 104.171C45.4801 106.371 44.6701 108.471 44.1301 110.621C44.0301 111.011 44.1501 111.451 44.0601 111.851C43.9701 112.251 43.3601 113.211 43.3501 113.521C43.3501 113.681 43.5701 113.821 43.5401 114.091C43.4801 114.561 42.9601 114.771 42.9601 114.821C42.9601 116.671 43.1201 118.601 43.1001 120.491C43.0701 122.671 43.0401 124.741 43.3201 126.931C43.3901 127.481 43.7001 128.021 43.7601 128.451C43.8201 128.861 43.8601 131.451 44.1701 131.441C44.7901 130.501 45.5101 129.641 46.1701 128.741C46.6501 128.091 46.7501 127.851 47.3401 127.151C47.9301 126.451 51.0201 123.301 51.1501 122.851C51.4901 121.751 51.0501 120.491 51.3301 119.371C49.9001 115.391 50.4101 112.941 53.0001 109.761C53.1201 109.611 53.3001 109.541 53.4901 109.521L53.3901 109.201C52.5301 108.801 51.4501 108.431 50.7301 107.831C50.5201 107.661 50.4401 107.351 50.2401 107.191C49.9201 106.921 49.1801 106.731 49.0001 106.561C48.8001 106.381 48.7301 105.761 48.5901 105.671C48.3501 105.521 48.1101 105.421 47.7701 105.201H47.7801ZM118.09 104.501C117.85 104.451 117.73 104.581 117.55 104.691C116.13 105.561 114.79 106.641 113.34 107.461C110.1 109.291 106.21 110.161 102.62 111.181C102.27 111.281 101.91 111.341 101.54 111.321C102.52 112.131 103.41 112.761 103.78 114.021C103.49 115.171 103.64 116.531 103.66 117.741C103.69 119.261 103.92 120.831 103.96 122.271C104 123.711 103.07 125.531 103.02 126.811C102.96 128.631 103.6 131.311 103.79 133.151C103.86 133.811 103.72 135.321 103.86 135.821C104 136.291 104.61 136.741 104.84 137.131C105.32 137.941 105.74 138.891 106.24 139.711C106.59 139.111 107.04 139.321 107.45 138.911C107.41 138.411 107.24 137.861 107.52 137.391C107.62 137.231 107.94 137.181 108.09 136.951C110.58 133.351 112.87 131.381 114.1 126.891C115.13 123.151 115.43 119.601 116.06 115.831C116.12 115.471 116.46 115.051 116.45 114.791C116.45 114.571 116.18 114.381 116.14 114.131C115.92 112.841 117.1 109.521 117.39 108.101C117.63 106.951 117.55 105.581 118.08 104.491L118.09 104.501ZM59.3501 111.491C58.5201 111.221 58.0101 111.601 57.3201 111.801C57.1701 111.841 56.9301 111.671 56.7501 111.741C56.0801 111.981 54.9601 113.921 54.9701 114.661C54.9701 115.081 55.2301 115.411 55.2801 115.811C55.4101 116.871 55.2601 117.721 55.9301 118.731C56.6601 118.831 56.9501 118.211 57.4501 117.951C59.7701 116.761 62.0101 116.081 64.4301 115.321C64.8301 115.201 65.1801 114.841 65.6801 114.891C65.5201 114.631 64.9401 114.321 64.6601 114.211C63.1401 113.621 62.1901 113.261 60.8001 112.551C60.5601 112.431 59.4201 112.171 59.3701 112.111L59.3501 111.491ZM98.5701 114.291C98.5301 114.211 98.3201 114.171 98.2401 114.061C98.1001 113.881 98.1301 113.541 97.8701 113.451C97.6301 113.361 96.7501 113.401 96.4601 113.461C95.5901 113.661 93.0501 115.411 92.0701 115.891C91.4101 116.211 89.4401 116.631 89.3601 117.251L91.9701 119.391C92.3801 119.981 93.1101 121.171 93.5901 121.621C93.8101 121.821 94.5501 121.951 94.6701 122.081C94.7901 122.211 94.7501 122.561 94.8901 122.751C95.3801 123.401 96.7601 124.201 96.4701 125.161C96.3801 125.441 95.7601 125.741 96.0401 126.221C96.0801 126.291 97.2101 127.031 97.4001 127.221C97.6801 127.501 97.5401 127.901 98.0401 128.031L98.4801 124.911C99.4001 122.361 98.7001 119.621 98.6601 117.061C98.6401 116.021 99.1501 115.371 98.5501 114.291H98.5701ZM86.9901 121.811C85.5401 120.791 85.0301 120.931 83.3401 120.521C76.9301 118.941 71.4901 118.531 65.0701 120.521C61.9401 121.491 58.6701 122.951 56.3501 125.281C56.3801 125.951 56.5101 126.631 56.4401 127.311C56.4001 127.711 56.1101 128.191 56.1301 128.451C56.1401 128.681 56.4001 128.861 56.4401 129.101C56.6401 130.401 55.9401 133.481 55.4801 134.781C55.3501 135.131 54.7101 136.751 54.5801 136.961C54.4701 137.131 52.5401 138.921 52.3901 138.991C51.0201 139.661 48.0501 141.201 46.7301 141.601C46.1201 141.791 45.0801 141.461 44.8501 141.651C44.5801 141.871 44.3801 142.811 44.1301 143.211C43.6801 143.941 42.6701 144.431 42.3301 145.151C42.1601 145.531 42.1901 146.011 42.0301 146.271C41.9401 146.421 41.6001 146.451 41.5501 146.641C41.4901 146.861 41.7701 147.291 41.7001 147.351C41.6701 147.381 41.3901 147.291 41.2601 147.381C41.2201 147.411 40.8801 148.101 40.7801 148.281C39.4901 150.471 37.8801 154.811 37.0801 157.411C34.6901 165.211 32.8801 172.781 32.1401 180.881C31.6901 185.851 31.5901 191.251 30.5001 196.111C30.4201 196.471 30.1101 196.601 30.0901 196.761C29.9901 197.411 30.0501 198.301 29.9001 199.241C28.2801 209.411 27.0301 219.471 25.8101 229.551C25.3201 233.581 25.1001 237.111 24.8301 241.061C24.8101 241.401 24.5201 241.731 24.5301 242.051C24.5301 243.001 25.3601 242.641 25.6201 242.801C25.9401 242.991 25.5601 244.591 25.3201 244.931C25.2101 245.081 24.9801 245.131 24.8601 245.311C24.2901 246.161 24.5801 246.641 25.2401 247.321C25.5701 247.061 25.5401 246.601 25.9201 246.381C26.0401 246.311 28.3201 245.611 28.5301 245.571C31.0201 245.131 36.4201 245.441 39.0401 245.701C41.8901 245.981 44.5101 246.851 47.2701 247.381C53.4301 248.571 59.9701 248.421 66.2901 248.291C71.8701 248.181 77.1601 247.501 82.6901 247.001C92.3101 246.131 101.16 248.841 110.46 249.741C111.8 249.871 113.64 250.021 114.97 249.911C116.3 249.801 116.68 247.831 116.52 246.771C116.22 244.801 116.24 243.301 116.35 241.391C116.5 238.811 116.32 236.201 116.35 233.611C116.41 229.531 116.82 225.491 116.68 221.441C116.54 217.391 117.57 213.651 117.96 209.741C118.53 203.891 118.18 197.941 118.13 192.071C118.08 186.831 117.09 183.341 116.08 178.391C115.31 174.601 115.37 172.001 114.09 168.201C113.78 167.281 114.02 166.261 113.71 165.331C113.58 164.941 113.17 164.571 113.13 164.281C113.1 164.061 113.27 163.811 113.24 163.671C113.19 163.471 112.82 163.491 112.77 163.301C111.77 159.181 110.02 154.351 108.05 150.531C107.44 149.351 104.1 143.831 103.29 143.281C103.01 143.091 102.61 143.151 102.38 142.891C102.15 142.631 100.84 140.791 100.64 140.411C99.6501 138.621 99.4401 136.561 98.6701 134.881C97.3501 132.041 94.0301 128.951 91.7701 126.711C90.3201 125.271 90.3801 125.551 89.3201 123.791C88.9501 123.181 87.6301 122.211 87.0301 121.791L86.9901 121.811ZM47.6701 136.481C47.9701 135.481 49.9201 135.481 50.5101 134.851C51.2301 134.081 51.6001 131.701 51.7301 130.641L48.8101 133.971L47.3501 136.401L47.6701 136.481ZM152.33 142.971C152.61 142.301 152.24 142.001 152.18 141.581C151.88 139.631 151.77 137.681 151.51 135.751L150.71 133.711C150.44 134.331 150.6 136.201 150.17 136.581C150.05 136.691 149.75 136.651 149.64 136.781C149.58 136.851 149.77 137.281 149.67 137.611C149.44 138.391 148.57 139.801 148.26 140.601C147.95 141.401 147.77 142.431 147.46 143.211C147.23 143.781 146.67 144.461 146.52 144.871C146.44 145.071 146.55 145.431 146.46 145.541C146.41 145.601 146.09 145.561 145.92 145.721C145.57 146.041 143.08 150.481 142.93 151.011C142.57 152.301 142.79 153.081 143.05 154.291C143.1 154.531 142.94 154.791 143.01 154.981C143.2 155.511 144.12 156.511 144.29 156.931C144.47 157.371 144.48 158.251 144.79 158.701C145.64 159.941 146.6 161.271 147.29 162.661C147.58 163.241 147.41 163.051 147.57 163.541C147.7 163.921 148.7 165.611 148.99 164.711C150.33 160.571 151.66 155.261 152.27 150.961C152.63 148.441 152.83 145.981 152.31 143.461L152.8 143.381V142.811L152.31 142.971H152.33ZM113.55 152.221C113.44 151.581 113.47 150.821 113.38 150.201C113.05 147.961 113.27 146.171 113.05 144.041C112.96 143.201 112.5 141.301 112.24 140.471C112.18 140.291 112.18 140.081 111.93 140.051C111.79 140.981 110.99 141.161 110.48 141.601C110.11 141.921 109.89 142.301 109.38 142.611C109.09 142.791 108.25 142.931 108.36 143.201C108.56 143.711 109.61 144.851 109.98 145.471C110.73 146.731 111.62 148.351 112.28 149.661C112.69 150.471 112.86 151.661 113.55 152.201V152.221Z" fill="black"/>
<path d="M164.99 202.702C164.1 202.842 162.91 204.242 162.23 203.272C163.14 203.232 163.73 202.502 164.58 202.262L164.98 202.702H164.99Z" fill="black"/>
</g>
<defs>
<clipPath id="clip0_297_915">
<rect width="164.99" height="255.79" fill="white"/>
</clipPath>
</defs>
</svg>
