<svg width="165" height="256" viewBox="0 0 165 256" fill="none" xmlns="http://www.w3.org/2000/svg">
<path d="M112.79 77.9107C112.89 78.0707 112.57 81.2107 112.49 81.6507C111.91 84.7507 107.42 91.3007 105.05 93.4607C98.92 99.0307 86.38 104.281 78.23 102.261C72.38 100.811 66.79 99.0507 61.81 95.5807C61.17 95.1407 58.02 92.5607 58.03 92.0607C58.91 90.8707 59.65 89.6507 61.39 89.9507C62.44 90.1307 66.73 92.8307 68.22 93.5307C75.39 96.8907 79.98 99.4507 88.24 97.5807C94.71 96.1107 105.41 88.7507 108.02 82.5407C108.5 81.4007 109.06 77.8707 109.66 77.1507C109.84 76.9407 110.18 76.6307 110.43 76.5607C111.14 76.3707 112.52 77.4307 112.8 77.9207L112.79 77.9107Z" fill="#181818"/>
<path d="M109.62 48.6007C110.74 49.5807 112.17 49.8907 110.98 51.7507C109.12 51.7907 107.51 50.7007 105.66 50.6907C103.7 50.6907 102.54 51.9207 100.64 51.7407C99.58 51.6407 98.79 50.7307 98.35 50.7707C96.22 50.9707 94.13 55.5207 91.64 53.0207C90.49 51.8607 91.39 50.4607 92.45 49.5607C95 47.3807 104.12 43.6607 106.99 46.0407C107.74 46.6607 108.85 47.9207 109.63 48.5907L109.62 48.6007Z" fill="#181818"/>
<path d="M73.94 53.9907C73.22 54.8207 69.66 53.9107 68.19 54.1007C65.52 54.4507 61.46 56.2807 59.32 57.9507C57.63 59.2607 56.71 61.8007 54.37 60.5007C52.03 59.2007 54.84 56.6107 56.21 55.4207C59.14 52.8507 65.25 50.0007 69.17 50.0607C70.4 50.0807 71.37 51.0907 72.8 50.4307C73.59 51.2207 74.81 52.9907 73.94 53.9907Z" fill="#181818"/>
<path d="M66.91 60.4907C69.22 60.1107 72.15 63.1507 71.61 65.5508C71.43 66.3508 68.88 69.0707 68.15 69.1407C67.69 69.1807 64.61 68.6807 64.17 68.4307C60.49 66.3507 63.54 61.0407 66.9 60.4907H66.91Z" fill="#181818"/>
<path d="M104.68 57.2207C107.42 59.4307 106.49 61.8807 105.46 64.7407C104.03 65.1107 102.75 64.2707 101.51 63.9607C100.55 63.7207 99.5 64.5907 98.72 62.6807C97.8 60.4307 99.65 58.8707 99.84 56.6107C100.87 54.9407 103.52 56.2807 104.69 57.2207H104.68Z" fill="#181818"/>
<path d="M89.74 2.36075C89.94 2.47075 90.24 2.36075 90.51 2.49075C91.58 2.97075 95.78 6.46074 96.45 7.43075C96.86 8.03075 96.67 8.71075 97.74 8.75075C98.45 8.78075 98.75 8.25075 99.4 8.13075C101.21 7.79075 102.97 7.59074 104.7 7.10075C106.43 6.61075 108.12 6.09074 109.95 5.85075C110.71 5.75075 111.01 5.65075 111.45 6.30075C111.56 5.47075 112 5.87075 112.43 5.75075C115.14 4.97075 116.01 5.41075 118.68 5.42075C122.34 5.43075 125.74 4.65075 129.35 5.86075C130.01 6.08075 131.73 6.89075 132.34 7.34075C132.87 7.73075 133.37 9.01075 133.94 9.54075C134.48 10.0507 136.11 10.9407 136.83 11.3507C138.84 12.4907 140.18 12.7507 142.25 13.5607C142.5 13.6607 142.69 14.0107 142.88 14.0507C143.08 14.0907 143.37 13.8907 143.66 13.9207C145.35 14.1307 147.34 15.4007 148.8 16.1007C149.47 16.4207 150.42 16.6107 151.04 16.9407C151.24 17.0507 152.41 18.0607 152.53 18.2107C152.85 18.6407 152.9 20.4307 153.05 21.1007C153.1 21.3407 153.39 21.5407 153.46 21.8207C153.54 22.1907 153.42 22.6007 153.49 22.8907C153.53 23.0407 153.84 23.0607 153.95 23.2707C154.74 24.7707 154.63 26.6407 155.32 28.2407C156.14 30.1707 160.79 35.2907 160.74 36.7207C160.74 36.8507 160.45 37.0007 160.49 37.3307C160.54 37.7007 161.19 38.2207 161.24 38.5307C161.66 41.2307 162.55 43.7007 162.26 46.6207C162.06 48.6507 161.1 49.9507 160.52 51.7007C159.99 53.3207 159.72 55.1507 159.29 56.8007C159.15 57.3407 158.42 58.2407 158.4 58.3307C158.37 58.5207 158.55 58.8607 158.5 59.2407C158.43 59.7607 158.04 60.0907 157.92 60.4607C157.66 61.2507 157.5 61.9807 157.18 62.8107C156.57 64.4007 156.13 65.1907 155.05 66.4507C154.76 66.7907 153.96 67.2408 153.54 67.3008C153.07 67.3708 152.55 66.6807 152.03 67.2607C152.1 67.5508 152.26 67.8107 152.32 68.1007C152.58 69.4607 152.71 71.2707 153.05 72.5607C153.14 72.9207 153.67 73.4607 153.83 73.8907C154.02 74.3907 154.71 76.7008 154.79 77.1507C154.89 77.6908 154.59 78.2407 154.66 78.5707C154.91 79.7407 156.14 83.1608 156.03 84.2907C156.02 84.4207 155.77 84.5707 155.77 84.7807C155.77 85.0007 156.12 85.3408 156.19 85.6608C156.57 87.3808 156.22 91.3407 155.75 93.0207C155.67 93.3107 155.02 93.7308 154.89 94.1208C154.76 94.4908 154.86 94.8307 154.77 95.1307C154.7 95.3807 153.67 96.4907 153.83 96.7007C154.7 96.7207 155.04 97.9107 155.22 98.6407C155.28 98.8807 155.1 99.1407 155.16 99.3507C155.23 99.6407 155.66 99.7607 155.75 100.071C155.84 100.381 155.74 100.681 155.82 100.981C155.92 101.331 156.47 101.771 156.75 102.011L156.44 102.641C156.57 102.811 156.8 102.831 156.93 103.001C157.87 104.301 158.71 105.781 158.99 107.391C159.3 109.171 159.71 115.131 159 116.571C158.88 116.821 158.56 116.811 158.55 116.941C158.52 117.181 158.76 118.061 158.68 118.351C158.61 118.611 158.27 118.731 158.15 118.961C155.4 124.351 154.66 129.071 155.86 135.191C156.39 137.881 156.52 139.861 156.78 142.551C156.86 143.341 157.41 144.521 157.37 145.201C157.32 146.031 157.36 145.761 157.4 146.461C157.42 146.761 157.08 147.121 157.1 147.441C157.11 147.711 157.49 148.071 157.5 148.481C157.5 148.771 157.2 149.001 157.16 149.291C157.13 149.551 157.39 149.751 157.39 150.031C157.42 151.351 156.87 153.111 156.61 154.431C155.89 158.101 155.11 161.611 153.97 165.101C153.89 165.361 153.2 166.081 153 166.571C152.87 166.901 152.72 167.381 152.7 167.741C152.68 168.141 153.4 167.971 153.81 168.091C154.1 168.181 155.42 168.711 155.58 168.841C156.36 169.461 156.55 170.941 156.76 171.881L155.95 171.721L155.87 172.531C155.16 172.261 154.37 172.191 153.65 171.991C153.23 171.871 152.91 171.531 152.26 171.431C151.84 171.371 151.08 171.311 150.68 171.391C150.16 171.491 149.8 172.171 149.58 172.251C149.18 172.391 148.86 172.131 148.33 172.461C148.21 172.531 148.19 172.781 148.13 172.811C148.06 172.851 147.84 172.661 147.67 172.761C147.45 172.891 147.33 173.511 146.9 173.631C146.65 173.701 144.5 173.911 144.42 173.831C144.38 173.291 144.46 172.741 144.71 172.261C144.95 171.811 145.49 171.591 145.55 171.441C145.61 171.291 145.75 170.191 145.72 170.061C145.58 169.881 145.3 169.751 145.09 169.671C143.93 169.231 142.48 168.911 141.29 169.331C139.57 169.951 140.01 170.031 138 169.971C134.69 169.871 132.43 169.031 130.39 166.351C129.09 164.651 127.65 161.751 126.74 159.771C126.52 159.301 126.53 158.761 126.24 158.311C125.64 158.481 125.02 158.671 124.4 158.411C124.2 158.321 124.23 157.711 123.86 157.601L123.15 157.921C123.09 157.861 123.61 156.771 123.06 156.631C122.4 156.471 121.84 157.661 121.4 157.911C119.9 158.751 118.65 157.651 117.15 157.521L115.37 156.621C115.93 158.041 116.68 159.431 116.78 160.971C118.56 166.921 120.03 173.301 121.17 179.471C122.03 184.141 122.45 188.251 122.82 192.901C123.19 197.551 123.37 201.891 123 206.381C122.37 214.021 121.04 221.861 121.02 229.431C121.02 232.041 121.29 235.141 121.04 237.701C120.91 239.061 120.87 239.791 120.98 241.221C121.1 242.841 121.29 244.531 121.37 246.151C121.42 247.051 121.18 249.661 121.52 250.221C121.69 250.501 122.31 250.751 122.64 251.211C123.65 252.641 123.8 254.121 122.17 255.061C120.83 255.841 117.86 255.801 116.27 255.811C110.79 255.861 105.03 254.991 99.59 254.141C96.82 253.711 94.04 252.831 91.28 252.711C85.39 252.451 79.01 253.301 73.11 253.861C71.12 254.051 69.21 254.531 67.09 254.511C59.42 254.421 52.32 254.121 44.74 252.841C39.91 252.021 36.06 251.421 30.9 251.571C30.04 251.601 28.47 252.021 27.69 251.841C26.96 251.671 26.69 251.271 25.71 251.281C23.34 251.301 22.87 251.201 20.57 250.391C20.4 250.331 20.16 250.441 20.06 250.391C19.28 250.081 19.35 248.041 19.26 247.321C18.7 242.521 19.41 237.151 19.85 232.361C20.56 224.651 21.6 216.801 22.54 209.121C23.4 202.111 25.14 195.221 25.95 188.191C26.48 183.631 26.52 178.971 27.1 174.411C28.13 166.391 31.36 157.541 33.87 149.861L39.09 139.581C38.32 139.411 37.77 140.071 37.15 140.311C36.61 140.511 34.3 141.041 34.14 141.361C33.98 141.681 33.94 142.871 33.86 143.351C33.39 145.951 33.34 149.341 32.24 151.791C32.18 151.921 30.75 153.691 30.65 153.771C30.22 154.131 29.46 154.271 29 154.511C28.81 154.611 28.81 154.901 28.61 154.961C28.32 155.061 27.86 154.991 27.44 155.101C26.81 155.271 26.46 155.801 25.77 155.911C25.57 156.471 25.23 157.031 25.01 157.551C24.77 158.121 24.66 158.671 24.46 159.261C24.37 159.511 23.94 159.571 23.79 159.891C23.64 160.211 23.72 160.561 23.62 160.861C23.4 161.541 22.34 164.831 21.92 165.041C21.84 165.081 20.28 165.451 20.18 165.461C19.76 165.481 17.76 165.271 17.26 165.201C16.8 165.131 16.18 164.701 15.65 164.771C15.28 164.811 14.18 165.711 13.34 165.811C12.3 165.941 11.69 165.571 10.89 165.401C10.18 165.251 9.42997 165.471 8.57997 165.111C6.74997 164.351 4.95997 160.951 4.11997 159.181C2.76997 156.351 2.43997 154.341 1.71997 151.361C1.60997 150.891 1.02997 150.271 0.979967 149.991C0.849967 149.341 0.849967 149.221 0.659967 148.531C-0.450033 144.341 -3.31402e-05 136.341 0.979967 132.051C1.07997 131.631 1.80997 130.571 1.88997 130.191C2.18997 128.791 2.58997 127.831 3.24997 126.531C3.48997 126.061 3.76997 125.501 3.05997 125.441C3.40997 124.941 3.26997 124.201 3.21997 123.581C3.00997 121.071 2.65997 119.141 2.57997 116.611C2.47997 113.411 1.48997 109.621 1.64997 106.401C1.97997 100.041 6.38997 89.7407 8.93997 83.7007C9.45997 82.4607 10.76 80.5807 11 79.2707C11.2 78.1307 11.05 75.3907 11.02 74.1007C10.87 65.0207 7.43997 57.3507 12.68 48.8007C15.81 43.7007 19.99 39.6107 23.28 34.7407C25.86 30.9207 27.67 25.8607 31.87 23.2207C32.38 22.9007 33.32 22.8407 33.63 22.2107C34.72 20.0007 36.32 19.9407 38.15 18.8207C39 18.3007 39.04 17.6407 40.56 17.1307C40.77 17.0607 41.03 17.2007 41.22 17.1507C41.84 16.9707 42.62 14.5407 43 13.8907C44.07 12.0607 45.75 9.63074 47.24 8.15075C47.42 7.97075 48.57 6.91075 48.65 6.87075C48.98 6.73075 49.15 6.97075 49.45 6.96075C48.63 6.02075 49.95 5.76075 50.62 5.34075C54.21 3.07075 58.68 2.43075 62.89 2.98075C64.14 3.14075 65.39 3.06075 66.69 3.27075C67.17 3.35075 69.6 4.07075 69.78 4.02075C70.09 3.94075 70.13 3.50075 70.33 3.38075C70.67 3.17075 71.32 3.24075 71.72 3.06075C73.25 2.38075 74.67 1.38075 76.39 0.880745C79.94 -0.139255 84.29 -0.469255 87.73 1.06075C88.46 1.38075 89.23 2.12075 89.73 2.38075L89.74 2.36075ZM81.8 4.62075C81.73 4.59074 81.76 4.34075 81.67 4.36075C81.54 4.39075 81.35 4.66075 81.01 4.68075C80.73 4.70075 80.45 4.51075 80.2 4.52075C79.21 4.53075 76.64 5.65075 75.72 6.17075C75.04 6.55075 75.37 6.23075 74.89 6.33075C74.67 6.38075 74.32 6.94075 73.89 7.13075C72.25 7.87075 68.55 8.14075 66.74 7.93075C64.75 7.70075 62.63 6.86074 60.57 6.95075C59.22 7.01075 57.54 7.89075 56.21 7.60075C55.54 8.29074 54.58 8.42075 53.83 8.96075C52.06 10.2207 49.27 12.8507 48.6 14.9307C48.49 15.2807 48.55 15.8407 48.46 16.0107C48.4 16.1007 48.03 16.1507 48.01 16.2807C48.01 16.3707 48.58 17.6307 48.47 18.0607L46.4 19.3907C46.91 20.4207 45.69 21.3207 45.51 22.0407C45.44 22.3107 45.63 22.5807 45.47 22.9807C45.39 23.1607 45.12 23.1607 45.09 23.2907C45 23.7107 45.18 24.2707 45.09 24.6907C45.07 24.7707 44.6 25.8707 44.48 26.2107C43.66 28.4107 41.48 30.1507 39.95 31.6607C39.81 31.8007 39.89 32.2107 39.7 32.3907C39.42 32.6507 38.36 33.2907 38.01 33.6207C37.22 34.3607 36.57 35.3607 35.6 35.8307L35.85 36.6507L34.46 37.1307C34.12 38.6907 33.03 40.0007 32.37 41.5307C32.19 41.9607 31.6 43.4607 31.48 43.8807C31 45.5907 31.45 47.8907 31.3 49.7107C31.16 51.4207 30.68 51.5707 31.02 53.4007C31.36 55.2307 31.31 56.3507 31.3 58.1607C31.3 58.7007 31.39 58.5307 31.32 59.2907C30.84 64.3907 29.66 66.4107 27.21 70.5607C27.05 70.8207 25.73 74.6908 25.71 74.9408C25.68 75.2408 25.79 75.4707 25.8 75.7607C25.41 75.7008 25.11 75.4307 24.83 75.8407C24.71 76.1507 25.14 76.0508 25.16 76.1807C25.24 76.6007 24.92 76.7707 24.87 77.0207C24.7 77.8307 24.19 79.1107 24.16 79.7407C24.09 81.6307 23.5 82.6707 23.21 84.4607C22.92 86.2507 22.69 87.1308 22.26 88.8708C21.75 90.9208 22.87 94.2907 22.24 96.3008C23.01 96.6107 22.6 97.1007 22.71 97.7507C22.93 99.0508 23.07 100.321 23.23 101.611C23.44 103.291 24.5 108.931 23.82 110.081C23.71 110.261 23.42 110.271 23.36 110.461C23.22 110.901 23.39 111.581 23.33 112.001C23.23 112.621 22.62 113.631 22.55 114.001C22.46 114.441 22.64 115.001 22.55 115.431C22.54 115.491 21.82 116.361 21.76 116.491C21.22 117.651 20.64 118.781 20.32 120.051C19.98 121.381 20.06 120.751 19.63 121.521C19.14 122.401 17.98 126.781 17.92 127.801C17.89 128.321 18.16 129.051 18.13 129.551C18.07 130.531 17.55 131.751 17.56 132.801C17.56 135.811 17.42 139.121 17.38 142.231C17.36 143.701 17.69 145.591 17.53 147.111C17.21 150.141 16.33 152.981 16.15 156.211C16.15 156.351 15.91 156.561 15.89 156.851C15.85 157.471 16.79 159.691 17.32 159.981C17.49 160.071 18.68 160.421 18.81 160.331C19.43 158.661 20.02 156.811 20.74 155.201C21.35 153.841 21.91 152.971 23.12 152.061C24.1 151.331 24.52 151.431 25.5 151.031C25.82 150.901 26.93 150.471 27.08 150.341C27.51 150.001 28.74 147.731 28.39 147.351C27.89 147.231 27.22 147.851 26.85 147.831C26.63 147.831 26.44 147.561 26.2 147.521C25.8 147.461 25.41 147.571 24.98 147.441C24.48 147.291 23.83 146.391 23.77 145.891C23.74 145.691 23.95 145.581 23.95 145.481C23.95 145.271 23.7 145.061 23.69 144.811C23.68 144.211 23.96 143.491 23.97 143.081C23.99 142.121 23.4 141.381 23.74 140.331C23.85 139.981 24.31 139.691 24.31 139.341C24.31 138.751 23.74 138.941 23.7 138.911C23.65 138.861 23.87 138.391 23.87 138.181C23.84 136.831 23.92 135.691 23.78 134.291C23.66 133.111 23.82 133.241 23.85 132.341C23.9 130.931 23.06 128.931 23.06 127.621C23.08 122.821 24.05 116.591 25.44 111.991C25.8 110.811 25.8 111.601 25.81 110.101C25.81 109.991 26.1 110.021 26.19 109.811C27.45 106.761 29.01 103.571 28.92 100.361C28.92 100.171 29.28 98.7907 29.38 98.7107L30.04 98.8107L29.25 98.2207C29.38 97.5607 28.99 96.7907 28.98 96.2207C28.98 95.0307 28.75 94.2907 28.57 93.0307C28.1 89.5707 27.69 85.9207 27.26 82.5007C27.19 81.9607 27.66 79.3408 27.87 78.8708C27.98 78.6308 28.23 78.6807 28.24 78.6707C28.37 78.4607 27.91 78.2108 27.95 77.9808C28.03 77.5007 28.44 76.1407 28.62 75.5607C29.25 73.5107 30.37 71.3607 30.96 69.3008C31.18 68.5308 31.17 67.2707 31.48 66.5707C31.63 66.2407 31.98 66.1908 32 66.0807C32.03 65.8907 31.82 65.5907 31.84 65.3107C32.09 62.0907 34.23 57.5507 35.22 54.4007C36.52 50.2507 35.61 45.4607 37.26 41.6707C37.36 41.4407 37.79 41.2407 37.95 40.9007C39.07 38.5607 39.85 36.1607 41.06 33.9507C42.11 32.0307 43.56 30.1107 45.14 28.6207C49.43 24.5607 55.32 20.5907 60.74 18.4107C62.27 17.7907 63.35 17.6707 64.8 16.8007C66.72 15.6507 69.35 14.8607 71.46 13.8807C71.7 13.7707 71.96 13.8007 72.21 13.7307L72.23 13.2707L73.34 13.5707C73.41 13.3007 73.5 13.2007 73.75 13.0907C76.56 11.7907 83.66 11.0607 86.76 11.3207C87.76 11.4007 88.01 11.8607 88.55 11.9707C89.28 12.1307 89.14 11.5607 89.34 11.5207C89.75 11.4507 90.55 11.9107 90.41 12.4507L90.97 11.7007L94.3 12.1207C93.74 10.8407 92.49 10.1407 91.56 9.26075C91.06 8.79075 90.53 8.03075 89.96 7.57075C88.98 6.79075 84.91 4.52075 83.79 4.35075C83.12 4.25075 82.8 5.01075 81.86 4.59075L81.8 4.62075ZM128.27 9.92075C125.18 8.27075 122.12 8.98075 118.83 9.07075C117.63 9.10075 116.4 8.87075 115.27 8.92075C112.42 9.06075 108.64 9.92075 105.82 10.5007C103.95 10.8907 102.11 11.3607 100.23 11.7307C99.79 11.8807 99.14 12.8707 99.28 13.3307C99.78 14.2507 100.64 13.3507 100.95 13.4407C101.11 13.4907 101.28 14.1707 102.17 14.1707C102.41 14.1707 102.55 13.9307 102.75 13.9307C106.9 13.8507 109.88 14.2607 113.67 15.6607C114.41 15.9307 116.13 15.9107 117.15 16.2407C118.17 16.5707 118.68 16.9707 119.63 17.0407C120.8 17.1407 121.1 17.6007 121.77 17.7807C122.21 17.9007 123.3 17.8607 123.73 18.1707C123.88 18.2707 123.84 18.6907 123.95 18.7707C124.25 18.9707 126.49 19.0707 127.05 19.3207C127.77 19.6407 127.62 19.6107 128.44 19.8707C129.39 20.1607 131.25 21.3207 132.22 21.7807C137.6 24.3407 141.2 26.0807 145.43 30.1507C147.71 32.3407 148.99 35.2207 150.09 38.1507C150.24 38.5507 150.8 39.4607 150.84 39.6807C150.94 40.2507 150.17 42.4807 150.27 43.5207C150.37 44.5607 150.44 44.2907 150.38 45.4807C150.25 47.8107 150.45 48.8807 150.8 51.0807C150.91 51.7907 150.62 53.1407 150.71 53.5707C150.72 53.6407 151.2 53.9807 151.2 54.7407C151.2 55.4507 150.75 55.4407 150.72 55.5807C150.67 55.8207 150.42 56.7507 150.42 56.8207C150.45 57.2407 150.82 58.1907 150.89 58.9507C151.02 60.4807 151.16 61.7107 151.52 63.1807C151.59 63.4607 151.43 63.8607 151.61 64.0607C151.72 63.6407 152.39 62.9107 152.47 62.6507C152.9 61.2407 153.15 59.2107 153.64 57.8607C153.72 57.6507 154.06 57.6707 154.1 57.4907C154.19 57.1207 154.09 56.1807 154.3 55.4307C154.95 53.1307 155.68 50.6507 156.44 48.2907C156.78 47.2307 157.19 46.5607 157.34 45.3007C157.68 42.4907 156.2 37.3807 154.51 35.0307C152.7 32.5007 150.12 29.5507 149.33 26.4107C148.88 24.6007 148.35 22.8407 147.87 21.0507C147.39 19.2607 145.79 18.9607 144.23 18.3607C142.79 17.8007 142.49 17.8307 141.08 17.4907C140.91 17.4507 140.93 17.1007 140.7 17.0207C138.29 16.2107 135.45 16.0807 133.38 14.2407L131.28 13.0507L128.27 9.90075V9.92075ZM98.3 15.5507C98.98 14.6807 100.02 15.4307 100.73 14.6607H98.94L98.32 14.9307L98.29 15.5507H98.3ZM81.26 18.1507C80.9 18.1307 80.57 17.9907 80.2 17.9707C79.95 17.9607 78.85 17.9807 78.62 18.0207C78.07 18.1007 77.82 18.5507 77.57 18.6107C77.32 18.6707 76.89 18.4407 76.49 18.4807C75.9 18.5307 74.62 19.2507 73.99 19.4007C73.26 19.5807 71.88 19.4607 71.32 19.6307C71.09 19.7007 70.98 20.0107 70.76 20.0707C70.2 20.2207 69.92 20.0307 69.04 20.4507C58.8 25.2707 51.76 34.3107 46.05 43.5507C45.2 44.9207 44.05 46.5407 43.59 47.9107C43.43 48.4007 43.41 49.1007 43.25 49.5107C42.95 50.2707 42.06 51.2507 41.71 52.1907C40.66 54.9607 41.44 59.1807 40.41 62.0907C40.33 62.3207 39.97 62.5007 39.95 62.6907C39.76 64.0507 39.82 64.1307 39.27 65.4907C38.23 68.0907 35.91 71.2707 35.88 74.0907C35.88 74.4207 36.12 74.6807 36.08 74.9707C36.03 75.3107 35.66 75.2407 35.67 75.3607C35.69 75.6107 35.97 75.7607 36 76.0207C36.28 78.0907 35.33 81.0107 36.25 83.0607C36.4 83.4007 37.33 84.4907 37.13 84.7007H36.64C36.82 85.3807 37.65 88.3307 38.18 88.5907C38.51 88.7507 38.39 88.3507 38.4 88.2007C38.52 84.1507 40.7 77.4808 42.58 73.8307C43.84 71.3907 45.62 69.2707 46.79 66.6807C49.08 61.6207 46.88 53.8707 47.85 48.1007C49.19 40.1907 57.62 32.0507 63.66 27.2207C64 26.9407 64.35 27.2907 64.25 26.4407C65.15 26.3607 65.64 25.6707 66.36 25.2207C70.36 22.6807 75.42 20.2007 79.96 18.7307C80.33 18.6107 81.29 18.8707 81.27 18.1407L81.26 18.1507ZM99.05 21.7907C98.55 21.4907 98.27 21.1807 97.87 20.9407C96.77 20.2707 94.49 19.1707 93.23 19.3207C92.64 19.3907 91.12 20.0107 90.35 20.2007C85.78 21.3307 81.05 22.6007 76.73 24.5807C71.86 26.8007 67.56 30.1107 63.59 33.6707C63.38 33.8607 63.25 34.2607 63.02 34.4107C62.68 34.6307 62.22 34.5107 62.13 34.5807C62.07 34.6307 62.08 35.0607 61.95 35.2607C60.94 36.8407 58.76 38.5807 57.57 40.1607C55.69 42.6507 54.87 44.5307 53.97 47.4307C53.68 48.3607 53.2 48.4907 53.09 49.9307C52.84 53.4307 52.99 57.1507 53.01 60.7707C53.04 64.8907 53.35 65.8607 51.4 69.7007C50.59 71.3007 49.6 72.7407 48.75 74.2707C48.35 74.9807 47.98 75.8408 47.57 76.5807C47.41 76.8808 46.97 77.0607 46.89 77.3607C46.8 77.6807 46.92 78.0207 46.86 78.2707C46.82 78.4507 46.43 78.4407 46.39 78.6307C46.35 78.8007 46.57 79.0607 46.55 79.2507C46.55 79.3107 45.9 79.6507 45.77 80.1307C45.1 82.5507 43.86 86.2607 43.77 88.6807C43.68 91.1007 44.21 94.9408 45.07 97.1407C45.35 97.8708 45.77 97.6407 45.23 98.7407C45.71 98.9007 46.15 99.3907 46.55 99.5508C47.41 99.9108 47.25 99.6708 48.1 100.261C51.3 102.491 54.48 105.301 58.21 106.551C59.23 106.891 59.38 107.001 60.28 107.401C61.37 107.891 62.31 108.001 63.18 108.551C66.41 110.621 72.86 112.501 76.65 112.941C79.58 113.271 84.83 112.721 87.81 112.321C87.92 112.301 87.89 112.001 88.01 111.991C89.08 111.891 88.54 111.851 89.22 111.581C89.46 111.481 89.71 111.691 90.03 111.601C90.93 111.361 93.08 109.861 94.05 109.411C100.7 106.291 107.59 105.801 113.59 101.441C115.46 100.081 118.74 97.5807 120.35 95.9907C121.96 94.4007 121.81 92.6107 122.27 90.5107C122.24 90.0307 121.74 90.1008 121.67 89.6908C121.6 89.2507 121.36 87.2907 121.38 86.9207C121.4 86.5007 121.73 86.1207 121.69 85.6307C121.66 85.2707 121.38 85.0807 121.37 84.8307C121.34 84.2507 121.69 82.9707 121.66 82.3807C121.64 82.0307 121.19 81.8108 121.22 81.4408C121.24 81.2607 121.47 81.0307 121.5 80.7507C121.61 79.8807 121.79 78.4907 121.84 77.6707C121.87 77.0307 121.52 76.7107 121.54 76.2607C121.59 75.3507 122.53 73.9807 122.49 72.8107C122.47 72.3207 122.13 71.8707 122.08 71.4507C122 70.7207 122.21 69.3507 122.1 68.6107C121.86 66.9207 121.03 65.3207 120.38 63.8307C120.24 63.5107 120.19 62.7807 119.96 62.5007C119.74 62.2407 119.25 62.3607 118.95 62.1307C118.17 61.5207 116.29 59.6007 115.52 58.8307C115.13 58.4407 114.7 58.0707 114.53 57.5307C114.35 57.3807 114.01 57.6907 113.9 57.6207C113.83 57.5807 113.18 56.5507 112.97 56.3407C112.42 55.8007 111.44 55.0707 110.87 54.5507C110.53 54.2407 109.48 52.0807 109.41 51.6307C109.34 51.1807 109.59 50.7107 109.25 50.1507L109.66 49.6807C108.83 49.5807 109.2 48.0107 109.17 47.3407C109.07 44.0407 109.49 41.2907 109.65 38.0707C109.71 37.0007 109.38 36.4907 109.33 35.7907C109.26 34.7207 109.46 33.2807 109.31 32.0807C109.11 30.5107 108.15 29.9507 107.58 28.7807C107.43 28.4707 107.44 27.9307 107.35 27.8007C107.26 27.6707 105.42 26.0007 105.11 25.7307C103.32 24.2007 100.95 22.9407 99.04 21.8207L99.05 21.7907ZM144.89 40.6907C144.83 40.6007 144.9 39.3107 144.66 38.5707C143.32 34.5207 139.69 30.6307 136.09 28.4807C130.27 24.9907 124.21 22.4207 117.73 20.5507C116.18 20.1007 114.65 19.6007 113.07 19.2907C113.23 20.1107 113.72 19.7307 113.84 19.8007C116.85 21.6107 119.75 23.6407 122.65 25.6907C123.27 26.1307 124.61 26.4907 124.43 27.4007C124.72 27.4607 124.53 27.1307 124.59 27.0807C124.7 26.9907 126.13 28.3707 126.29 28.5407C126.75 29.0107 126.92 29.8207 127.67 29.8407L127.51 30.4907C128.21 30.2107 128.52 30.7207 128.97 31.2207C133.75 36.4707 139.79 43.3807 138.39 51.0307C138.23 51.8907 138.89 53.8207 138.99 54.7907C139.15 56.3007 139.28 58.5807 139.19 60.1007C138.86 65.6507 138.4 71.1208 137.03 76.4707C136.7 77.7407 135.39 80.1608 135.91 81.4108C136.84 83.6608 137.62 85.9607 138.46 88.2707C138.8 89.1907 139.56 90.4407 139.77 91.3407C140 92.3107 139.7 93.2708 139.74 94.1608C139.79 95.4108 140.59 96.2507 140.49 97.7507C140.43 98.6307 139.96 98.8708 139.86 99.2507C139.77 99.5907 140.06 99.9307 139.99 100.171C139.93 100.371 139.56 100.361 139.51 100.541C139.43 100.891 139.51 101.351 139.38 101.831C139.15 102.671 138.95 103.681 138.71 104.411C138.51 105.021 137.97 105.361 137.81 105.801C137.7 106.091 137.85 106.351 137.74 106.681C137.57 107.221 136.73 108.191 136.47 108.831C136.08 109.781 135.87 110.661 135.42 111.681C135.27 112.021 135.12 112.801 134.98 112.991C134.85 113.181 134.51 113.051 134.48 113.091C134.31 113.261 134.74 113.701 134.75 113.821C134.75 113.881 134.67 114.861 134.66 114.931C134.64 115.091 134.32 115.071 134.24 115.191C134.05 115.481 134.18 116.451 134.16 116.901C133.99 120.001 134.23 122.991 134.58 126.101C134.68 127.001 135.23 128.481 135.26 128.951C135.28 129.241 134.97 129.441 135 129.851C135.13 131.471 136.16 132.851 135.95 134.741C135.94 134.851 135.64 134.831 135.61 134.951C135.47 135.581 135.42 136.301 135.23 137.011C134.49 139.771 133.57 142.691 132.28 145.221C132.1 145.571 131.62 145.811 131.47 146.361C131.35 146.811 131.44 147.201 131.3 147.661C131.11 148.291 130.49 148.541 130.29 148.921C129.98 149.521 129.9 150.941 129.41 151.941C129.27 152.241 128.81 152.611 128.8 152.661C128.76 152.801 128.53 154.171 128.54 154.251C128.56 154.571 129.86 156.051 130.13 156.491C131.65 159.011 132.82 162.071 134.31 164.641C135.49 165.431 135.94 166.161 137.49 166.181C138.48 166.191 139.97 165.651 140.96 165.431C141.35 165.341 142.33 165.461 142.43 165.111C142.51 164.841 140.54 161.891 140.24 161.311C137.14 155.261 136.42 151.811 140.03 145.671C140.77 144.421 141.89 143.151 142.55 141.871C143.21 140.591 145.23 135.471 145.28 134.211C145.29 133.881 144.92 133.811 144.88 133.611C144.87 133.541 145.28 132.711 145.33 132.311C145.88 127.901 145.22 124.311 145.36 120.001C145.41 118.461 145.44 116.931 145.51 115.461C145.8 109.191 146.32 103.541 147.99 97.4707C148.58 95.3307 150.72 92.0507 150.88 90.1307C151.21 86.1907 149.86 80.0007 148.81 76.1208C147.84 72.5508 147.16 69.9508 146.53 66.2607C146.11 63.8208 145.49 61.1807 145.42 58.6107C145.3 54.1507 144.98 49.5107 145.12 45.0707C145.16 43.9707 145.68 41.9807 145.32 40.9707C145.24 40.7307 144.91 40.7407 144.88 40.6907H144.89ZM39.88 22.5407C38.77 22.4107 38.85 22.9407 38.41 23.4207C37.42 24.5107 36.08 25.6507 34.93 26.7607C32.95 28.6807 31.87 29.6907 30.5 32.0607C30.11 32.7407 29.35 34.4607 29 34.9107C28.59 35.4607 28.74 34.9507 28.26 36.0007C27 38.7507 25.21 40.0607 23.58 42.1907C23.31 42.5407 22.57 43.2607 22.53 43.3307C22.5 43.3807 22.7 43.6507 22.65 43.8507C22.6 44.0707 22.25 44.2307 22.11 44.4607C22 44.6307 22.08 44.9507 21.99 45.0607C21.84 45.2507 20.64 45.8407 20.24 46.4707C18.53 49.1207 15.89 53.2607 15.38 56.2307C15.3 56.6807 15.52 57.3907 15.34 57.9607C15.23 58.2907 14.81 58.3707 14.73 58.8107C14.63 59.3507 14.93 59.8907 14.91 60.4307C14.89 60.9707 14.57 61.1807 14.56 61.5507C14.52 62.9507 15.2 64.3107 15.33 65.6407C15.63 68.9707 16.39 72.2607 16.37 75.6908C16.37 76.4908 16.11 77.2408 16.19 78.1208C16.25 78.7708 16.54 79.2307 16.53 79.8907C16.5 81.0707 15.85 80.7207 15.73 81.0508C15.59 81.4408 15.79 82.0707 15.58 82.6908C15.44 83.1107 14.46 83.9907 14.41 84.1507C14.32 84.4607 14.3 85.4807 14.22 85.7107C14.14 85.9408 13.79 85.9207 13.75 86.0907C13.42 87.4907 13.27 87.5207 12.81 88.7007C12.64 89.1307 12.78 89.6407 12.58 90.0807C11.86 91.6908 11.26 91.5707 10.95 93.6707C10.9 93.9907 10.32 94.8007 10.37 95.3107C9.47997 95.4707 10.05 95.6008 9.98997 96.1208C9.93997 96.5107 9.35997 96.9407 9.25997 97.3107C8.79997 99.0007 8.32997 101.351 7.92997 103.121C7.72997 104.021 7.67997 105.741 7.39997 106.651C7.32997 106.871 7.01997 107.001 6.96997 107.201C6.63997 108.461 7.93997 112.401 8.04997 113.991C8.09997 114.661 7.90997 115.581 7.90997 116.261C7.90997 116.661 8.02997 117.011 8.08997 117.401L7.46997 118.171C7.43997 118.961 7.99997 119.431 8.04997 119.691C8.08997 119.891 7.87997 120.311 7.90997 120.651C7.95997 121.281 8.22997 122.181 8.33997 122.831C8.56997 124.131 8.88997 124.891 9.16997 126.061C9.67997 128.201 8.75997 127.261 8.35997 128.071C7.99997 128.821 8.55997 130.571 6.94997 130.311L7.38997 131.531C6.76997 131.941 6.91997 132.441 6.69997 132.901C6.43997 133.441 6.02997 133.801 5.84997 134.651C5.74997 135.111 6.24997 135.321 5.32997 135.751C6.25997 136.121 5.45997 136.421 5.47997 137.051C5.48997 137.591 5.76997 138.571 5.73997 139.331C5.59997 142.671 5.36997 146.121 6.39997 149.461C6.98997 151.381 7.47997 153.611 8.40997 155.431C8.62997 155.871 9.91997 158.551 10.12 158.551C10.39 158.271 10.74 157.721 10.88 157.361C11.08 156.841 11.25 153.871 11.17 153.291C11.12 152.941 10.81 152.681 10.84 152.311C10.87 152.031 11.17 151.831 11.25 151.571C12.12 148.811 12.47 144.381 12.54 141.431C12.59 139.271 12.29 136.791 12.46 134.771C12.63 132.751 12.49 130.901 12.78 128.751C12.92 127.711 12.5 127.061 13.61 126.331C13.01 126.191 13.13 125.361 13.2 124.781C13.32 123.831 13.98 122.811 13.46 121.961C14.83 121.281 13.8 120.811 13.96 120.191C14 120.031 15.03 118.701 15.2 118.331C15.54 117.551 15.6 116.641 15.98 115.861C16.52 114.761 16.76 114.941 17.09 113.581C17.34 112.551 17.49 111.571 18.16 110.741L17.83 110.421C18 110.211 18.35 110.171 18.45 109.901C18.48 109.831 18.74 108.541 18.74 108.471C18.72 107.471 18.72 105.901 18.63 104.911C18.61 104.691 18.26 102.851 18.21 102.741C18.07 102.471 17.85 102.561 17.84 102.541C17.81 102.491 18.27 101.951 18.25 101.481C18.23 101.121 17.96 100.921 17.92 100.671C17.81 99.9007 17.61 97.6307 17.68 96.9507C17.7 96.7307 17.95 96.5908 17.93 96.3607C17.89 95.8107 17.14 94.8808 17.04 94.3307C16.85 93.2708 16.9 91.4207 16.87 90.2807C16.84 89.1407 16.94 89.6407 17.03 89.2807C17.15 88.7707 17 87.7307 17.1 87.2807C17.3 86.3907 17.5 85.8107 17.69 84.7807C17.85 83.9507 18.34 83.3107 18.45 82.7807C18.55 82.3307 18.38 81.7308 18.51 81.3708C18.59 81.1308 18.96 81.1608 18.98 81.0107C19 80.8207 18.77 79.9907 18.85 79.7407C18.92 79.5107 19.3 79.5407 19.32 79.3807C19.35 79.1907 19.12 78.9307 19.18 78.6307C19.46 77.1607 20.11 75.5807 20.45 74.2107C20.9 72.3807 22.31 67.7807 23.36 66.2807C23.49 66.0907 23.78 66.0907 23.93 65.8407C24.72 64.5007 26.28 59.6107 26.24 58.1607C26.22 57.6607 25.86 57.3007 25.8 56.8407C25.09 51.4807 25.44 43.6907 27.78 38.8407C28.28 37.8107 28.51 38.1507 28.73 37.9207C28.78 37.8707 28.58 37.5507 28.61 37.3807C28.62 37.3007 29.26 36.2507 29.38 36.0607C31.5 32.6707 34.89 29.7407 37.49 26.9807C38.01 26.4307 38.6 25.9207 38.98 25.2207C39.15 24.9007 40.06 22.6407 39.92 22.5107L39.88 22.5407ZM120.95 31.5307C118.17 28.9707 114.02 25.8307 110.78 23.9307C110.66 23.8607 109.44 23.2307 109.66 23.7507C109.78 24.0407 110.88 24.9007 111.19 25.3107C111.94 26.2907 112.41 27.5407 112.99 28.5407C113.15 28.8207 114.01 29.3807 114.27 29.8507C114.83 30.8307 114.34 31.4307 114.37 32.3307C114.39 33.0207 114.98 33.8507 114.97 34.3407C114.97 34.6607 114.53 35.0107 114.54 35.4507C114.54 35.7607 114.85 36.0707 114.86 36.5807C114.89 37.5907 114.45 38.7707 114.35 39.6607C114.2 41.1107 114.54 41.6907 114.1 43.1507C113.8 44.1507 114.13 47.8407 114.34 48.9407C114.44 49.4907 114.24 50.5107 114.28 50.6307C114.92 52.5007 115.81 53.0307 117.12 54.2707C118.09 55.1907 118.72 55.9607 119.79 56.6207C120.22 56.8807 120.49 57.5607 120.83 57.8607C121.17 58.1607 121.84 58.4407 122.28 58.8407C124.81 61.1207 126.47 64.4108 126.85 67.7607C127 69.1007 127.2 70.3708 127.26 71.7507C127.26 71.9907 127.49 72.2407 127.48 72.6007C127.46 73.4307 126.6 75.1608 126.6 76.2507C126.6 76.6608 126.96 76.9408 126.94 77.1608C126.94 77.2808 126.69 77.4908 126.67 77.8008C126.62 78.3808 126.74 79.5707 126.64 80.0607C126.56 80.4607 125.86 80.3407 126.03 80.8907L127.33 81.2107C125.35 81.2907 126.44 82.7307 126.37 83.8107C126.35 84.1607 126.04 84.4007 126.05 84.5907C126.08 84.9207 126.89 85.8708 126.51 86.6507C127.8 86.8507 127.48 86.0007 127.74 85.3708C128.14 84.3808 128.62 83.5107 129.02 82.5907C129.37 81.7807 130.6 79.6007 130.36 78.8207C129.5 76.0207 129.12 72.8507 129.1 69.8407C129.08 66.4107 129.77 63.7407 131.17 60.7207C131.36 60.3107 131.92 59.9607 132.01 59.4507C132.12 58.8407 131.83 58.3707 131.86 57.8607C131.89 57.4207 132.28 56.6507 132.39 56.1107C133.12 52.7507 133.15 51.6107 132.32 48.2807C131.94 46.7307 131.79 46.7307 131.07 45.4807C130.47 44.4507 130.25 43.3707 129.83 42.5007C129.75 42.3407 128.56 41.4607 128.49 41.3307C128.35 41.0807 128.14 39.9907 127.88 39.5907C127.76 39.4007 127.05 38.9307 126.84 38.6507C125.01 36.2107 123.19 33.6307 120.93 31.5407L120.95 31.5307ZM133.02 86.9707C132.65 86.9007 132.76 86.9907 132.66 87.1807C132.29 87.8607 131.81 89.4907 131.35 90.0007C131.16 90.2107 130.64 90.3207 130.51 90.5407C130.33 90.8507 130.24 92.0707 129.95 92.5407C129.84 92.7207 129.47 92.8008 129.29 93.0508C128.76 93.7808 128.13 95.0107 127.58 95.7308C126.5 97.1507 125.23 97.9208 124.79 99.9108C124.51 101.171 124.33 102.461 124.06 103.731C123.77 105.121 122.8 106.121 123.14 107.651C122.21 107.751 122.73 108.341 122.56 108.711C122.47 108.911 122.07 109.071 122.05 109.281C121.99 109.781 122.2 111.331 122.12 112.001C122.06 112.511 121.43 113.211 121.38 114.011C121.36 114.311 121.51 114.561 121.65 114.801L120.84 115.041C120.77 115.461 121.18 116.031 121.12 116.391C120.74 118.581 120.52 121.171 119.99 123.351C119.93 123.601 119.64 123.771 119.62 124.041C119.56 124.691 120.11 125.001 119.55 125.841C118.62 127.221 119.03 126.911 118.7 128.391C118.31 130.151 117.65 130.901 117.05 132.421C116.86 132.901 116.93 133.581 116.6 134.081C116.43 134.341 116.05 134.451 116.01 134.611C115.81 135.391 116.99 137.061 117.11 138.021C117.53 141.491 117.9 145.041 118.22 148.431C118.32 149.481 118.3 150.871 118.43 151.791C118.45 151.941 118.79 153.271 118.83 153.341C118.92 153.521 119.19 153.661 119.38 153.751L122.93 152.401C124 152.771 123.81 152.291 124.22 152.041C124.41 151.921 125.01 151.761 125.05 151.691C125.14 151.541 125.05 151.131 125.11 150.861C125.77 148.501 127.29 146.181 128.08 143.921C128.5 142.731 128.18 141.571 128.53 140.641C130.01 136.641 131.15 135.271 130.45 130.681C130 127.691 129.43 125.191 129.24 122.121C129.2 121.461 128.9 120.601 128.97 119.981C129.02 119.531 129.38 119.181 129.41 118.661C129.44 118.081 129.06 116.991 129.15 116.421C129.26 115.751 129.87 114.301 130.07 113.611C130.5 112.131 130.75 111.381 131.33 109.991C131.43 109.751 131.24 109.381 131.42 108.991C131.49 108.841 131.87 108.751 131.88 108.431L131.25 107.811C132.39 105.541 133.55 103.251 134.31 100.811C135.07 98.3707 135.24 97.1407 135.13 94.5107C135.11 94.0508 135.32 92.9307 135.27 92.7507C135.21 92.4907 134.79 92.3507 134.68 92.0307C134.61 91.8107 134.68 91.5107 134.6 91.3008C134.03 89.8907 133.23 88.4707 133.02 86.9607V86.9707ZM34.2 92.8207L33.88 92.9007C33.94 93.1107 34.04 93.3207 34.04 93.5508C34.12 95.9108 34.44 98.1807 34.7 100.521C34.83 101.721 34.52 101.541 34.41 102.501C34.33 103.231 34.58 103.821 34.21 104.761C33.99 105.341 33.42 105.721 33.23 105.981C33.19 106.041 33.56 106.541 33.3 107.261C32.59 109.221 31.47 111.051 30.86 113.101C30.67 113.761 30.33 114.531 30.2 115.041C29.26 118.851 28.52 124.341 28.52 128.121C28.52 128.671 28.29 129.231 28.39 129.861C28.47 130.351 28.93 131.131 28.93 131.211C28.94 131.421 28.53 131.881 28.56 132.181C28.58 132.371 28.86 132.551 28.91 132.741C28.95 132.901 28.72 133.041 28.74 133.241C28.95 135.661 29.19 137.521 29.15 139.981C29.15 140.561 28.92 141.091 28.98 141.671C29.55 141.801 29.21 141.151 29.31 140.791C29.67 139.471 30.05 138.261 31.26 137.551C32.83 136.631 35.15 136.661 36.73 135.721L39.52 134.941C39.26 134.731 39.15 134.611 39.05 134.281C38.89 133.761 38.6 131.671 38.56 131.041C38.52 130.481 38.77 129.501 38.73 129.281C38.7 129.131 38.33 129.141 38.25 128.911C38.22 128.831 38.07 127.431 38.07 127.281C38.07 126.901 38.36 126.761 38.37 126.501C38.45 125.251 37.83 123.371 37.83 121.951C37.83 121.311 38.19 119.531 37.91 119.171C37.78 119.001 37.41 118.991 37.4 118.851C37.37 118.511 37.93 118.151 38.03 117.731C38.15 117.231 37.81 116.401 37.79 115.911C37.77 115.241 37.7 113.471 37.78 112.901C37.83 112.571 38.39 109.991 38.46 109.851C38.61 109.561 39.55 109.201 39.66 108.761C39.74 108.451 39.39 108.251 39.36 107.981C39.3 107.531 39.29 106.431 39.51 106.071C39.64 105.851 40.27 105.711 40.31 105.201C40.33 104.931 39.7 104.561 39.75 104.091C39.79 103.701 40.48 103.151 40.5 103.091C40.65 102.381 40.11 102.131 40.06 101.801C40.01 101.531 40.36 100.691 40.15 100.471C40.1 100.411 39.76 100.441 39.6 100.301C38.95 99.7408 38.48 98.8408 37.97 98.1908C36.6 96.4808 35.13 94.7707 34.17 92.8207H34.2ZM150.71 124.141C151.04 124.401 151.67 121.461 151.76 121.221C152.57 119.081 154.28 116.701 154.59 114.481C154.94 111.941 154.79 109.351 154.27 106.861C153.69 106.361 152.64 103.401 152.24 103.201C151.98 103.071 151.91 103.481 151.88 103.651C150.97 108.561 151.01 113.711 150.69 118.701C150.59 120.331 150.57 121.831 150.55 123.441C150.55 123.701 150.67 123.901 150.7 124.151L150.71 124.141ZM47.78 105.201C47.54 105.051 47.27 105.031 47.03 104.891C46.52 104.601 46.28 104.171 45.55 104.171C45.48 106.371 44.67 108.471 44.13 110.621C44.03 111.011 44.15 111.451 44.06 111.851C43.97 112.251 43.36 113.211 43.35 113.521C43.35 113.681 43.57 113.821 43.54 114.091C43.48 114.561 42.96 114.771 42.96 114.821C42.96 116.671 43.12 118.601 43.1 120.491C43.07 122.671 43.04 124.741 43.32 126.931C43.39 127.481 43.7 128.021 43.76 128.451C43.82 128.861 43.86 131.451 44.17 131.441C44.79 130.501 45.51 129.641 46.17 128.741C46.65 128.091 46.75 127.851 47.34 127.151C47.93 126.451 51.02 123.301 51.15 122.851C51.49 121.751 51.05 120.491 51.33 119.371C49.9 115.391 50.41 112.941 53 109.761C53.12 109.611 53.3 109.541 53.49 109.521L53.39 109.201C52.53 108.801 51.45 108.431 50.73 107.831C50.52 107.661 50.44 107.351 50.24 107.191C49.92 106.921 49.18 106.731 49 106.561C48.8 106.381 48.73 105.761 48.59 105.671C48.35 105.521 48.11 105.421 47.77 105.201H47.78ZM118.09 104.501C117.85 104.451 117.73 104.581 117.55 104.691C116.13 105.561 114.79 106.641 113.34 107.461C110.1 109.291 106.21 110.161 102.62 111.181C102.27 111.281 101.91 111.341 101.54 111.321C102.52 112.131 103.41 112.761 103.78 114.021C103.49 115.171 103.64 116.531 103.66 117.741C103.69 119.261 103.92 120.831 103.96 122.271C104 123.711 103.07 125.531 103.02 126.811C102.96 128.631 103.6 131.311 103.79 133.151C103.86 133.811 103.72 135.321 103.86 135.821C104 136.291 104.61 136.741 104.84 137.131C105.32 137.941 105.74 138.891 106.24 139.711C106.59 139.111 107.04 139.321 107.45 138.911C107.41 138.411 107.24 137.861 107.52 137.391C107.62 137.231 107.94 137.181 108.09 136.951C110.58 133.351 112.87 131.381 114.1 126.891C115.13 123.151 115.43 119.601 116.06 115.831C116.12 115.471 116.46 115.051 116.45 114.791C116.45 114.571 116.18 114.381 116.14 114.131C115.92 112.841 117.1 109.521 117.39 108.101C117.63 106.951 117.55 105.581 118.08 104.491L118.09 104.501ZM59.35 111.491C58.52 111.221 58.01 111.601 57.32 111.801C57.17 111.841 56.93 111.671 56.75 111.741C56.08 111.981 54.96 113.921 54.97 114.661C54.97 115.081 55.23 115.411 55.28 115.811C55.41 116.871 55.26 117.721 55.93 118.731C56.66 118.831 56.95 118.211 57.45 117.951C59.77 116.761 62.01 116.081 64.43 115.321C64.83 115.201 65.18 114.841 65.68 114.891C65.52 114.631 64.94 114.321 64.66 114.211C63.14 113.621 62.19 113.261 60.8 112.551C60.56 112.431 59.42 112.171 59.37 112.111L59.35 111.491ZM98.57 114.291C98.53 114.211 98.32 114.171 98.24 114.061C98.1 113.881 98.13 113.541 97.87 113.451C97.63 113.361 96.75 113.401 96.46 113.461C95.59 113.661 93.05 115.411 92.07 115.891C91.41 116.211 89.44 116.631 89.36 117.251L91.97 119.391C92.38 119.981 93.11 121.171 93.59 121.621C93.81 121.821 94.55 121.951 94.67 122.081C94.79 122.211 94.75 122.561 94.89 122.751C95.38 123.401 96.76 124.201 96.47 125.161C96.38 125.441 95.76 125.741 96.04 126.221C96.08 126.291 97.21 127.031 97.4 127.221C97.68 127.501 97.54 127.901 98.04 128.031L98.48 124.911C99.4 122.361 98.7 119.621 98.66 117.061C98.64 116.021 99.15 115.371 98.55 114.291H98.57ZM86.99 121.811C85.54 120.791 85.03 120.931 83.34 120.521C76.93 118.941 71.49 118.531 65.07 120.521C61.94 121.491 58.67 122.951 56.35 125.281C56.38 125.951 56.51 126.631 56.44 127.311C56.4 127.711 56.11 128.191 56.13 128.451C56.14 128.681 56.4 128.861 56.44 129.101C56.64 130.401 55.94 133.481 55.48 134.781C55.35 135.131 54.71 136.751 54.58 136.961C54.47 137.131 52.54 138.921 52.39 138.991C51.02 139.661 48.05 141.201 46.73 141.601C46.12 141.791 45.08 141.461 44.85 141.651C44.58 141.871 44.38 142.811 44.13 143.211C43.68 143.941 42.67 144.431 42.33 145.151C42.16 145.531 42.19 146.011 42.03 146.271C41.94 146.421 41.6 146.451 41.55 146.641C41.49 146.861 41.77 147.291 41.7 147.351C41.67 147.381 41.39 147.291 41.26 147.381C41.22 147.411 40.88 148.101 40.78 148.281C39.49 150.471 37.88 154.811 37.08 157.411C34.69 165.211 32.88 172.781 32.14 180.881C31.69 185.851 31.59 191.251 30.5 196.111C30.42 196.471 30.11 196.601 30.09 196.761C29.99 197.411 30.05 198.301 29.9 199.241C28.28 209.411 27.03 219.471 25.81 229.551C25.32 233.581 25.1 237.111 24.83 241.061C24.81 241.401 24.52 241.731 24.53 242.051C24.53 243.001 25.36 242.641 25.62 242.801C25.94 242.991 25.56 244.591 25.32 244.931C25.21 245.081 24.98 245.131 24.86 245.311C24.29 246.161 24.58 246.641 25.24 247.321C25.57 247.061 25.54 246.601 25.92 246.381C26.04 246.311 28.32 245.611 28.53 245.571C31.02 245.131 36.42 245.441 39.04 245.701C41.89 245.981 44.51 246.851 47.27 247.381C53.43 248.571 59.97 248.421 66.29 248.291C71.87 248.181 77.16 247.501 82.69 247.001C92.31 246.131 101.16 248.841 110.46 249.741C111.8 249.871 113.64 250.021 114.97 249.911C116.3 249.801 116.68 247.831 116.52 246.771C116.22 244.801 116.24 243.301 116.35 241.391C116.5 238.811 116.32 236.201 116.35 233.611C116.41 229.531 116.82 225.491 116.68 221.441C116.54 217.391 117.57 213.651 117.96 209.741C118.53 203.891 118.18 197.941 118.13 192.071C118.08 186.831 117.09 183.341 116.08 178.391C115.31 174.601 115.37 172.001 114.09 168.201C113.78 167.281 114.02 166.261 113.71 165.331C113.58 164.941 113.17 164.571 113.13 164.281C113.1 164.061 113.27 163.811 113.24 163.671C113.19 163.471 112.82 163.491 112.77 163.301C111.77 159.181 110.02 154.351 108.05 150.531C107.44 149.351 104.1 143.831 103.29 143.281C103.01 143.091 102.61 143.151 102.38 142.891C102.15 142.631 100.84 140.791 100.64 140.411C99.65 138.621 99.44 136.561 98.67 134.881C97.35 132.041 94.03 128.951 91.77 126.711C90.32 125.271 90.38 125.551 89.32 123.791C88.95 123.181 87.63 122.211 87.03 121.791L86.99 121.811ZM47.67 136.481C47.97 135.481 49.92 135.481 50.51 134.851C51.23 134.081 51.6 131.701 51.73 130.641L48.81 133.971L47.35 136.401L47.67 136.481ZM152.33 142.971C152.61 142.301 152.24 142.001 152.18 141.581C151.88 139.631 151.77 137.681 151.51 135.751L150.71 133.711C150.44 134.331 150.6 136.201 150.17 136.581C150.05 136.691 149.75 136.651 149.64 136.781C149.58 136.851 149.77 137.281 149.67 137.611C149.44 138.391 148.57 139.801 148.26 140.601C147.95 141.401 147.77 142.431 147.46 143.211C147.23 143.781 146.67 144.461 146.52 144.871C146.44 145.071 146.55 145.431 146.46 145.541C146.41 145.601 146.09 145.561 145.92 145.721C145.57 146.041 143.08 150.481 142.93 151.011C142.57 152.301 142.79 153.081 143.05 154.291C143.1 154.531 142.94 154.791 143.01 154.981C143.2 155.511 144.12 156.511 144.29 156.931C144.47 157.371 144.48 158.251 144.79 158.701C145.64 159.941 146.6 161.271 147.29 162.661C147.58 163.241 147.41 163.051 147.57 163.541C147.7 163.921 148.7 165.611 148.99 164.711C150.33 160.571 151.66 155.261 152.27 150.961C152.63 148.441 152.83 145.981 152.31 143.461L152.8 143.381V142.811L152.31 142.971H152.33ZM113.55 152.221C113.44 151.581 113.47 150.821 113.38 150.201C113.05 147.961 113.27 146.171 113.05 144.041C112.96 143.201 112.5 141.301 112.24 140.471C112.18 140.291 112.18 140.081 111.93 140.051C111.79 140.981 110.99 141.161 110.48 141.601C110.11 141.921 109.89 142.301 109.38 142.611C109.09 142.791 108.25 142.931 108.36 143.201C108.56 143.711 109.61 144.851 109.98 145.471C110.73 146.731 111.62 148.351 112.28 149.661C112.69 150.471 112.86 151.661 113.55 152.201V152.221Z" fill="#181818"/>
<path d="M164.99 202.701C164.1 202.841 162.91 204.241 162.23 203.271C163.14 203.231 163.73 202.501 164.58 202.261L164.98 202.701H164.99Z" fill="#181818"/>
</svg>
