<svg width="158" height="244" viewBox="0 0 158 244" fill="none" xmlns="http://www.w3.org/2000/svg">
<path d="M120.12 56.25H119.23V55.36C119.79 55.26 120.22 55.71 120.12 56.25Z" fill="#181818"/>
<path d="M96.22 76.32C96.3 76.46 96.02 79.26 95.95 79.66C95.43 82.42 91.43 88.26 89.32 90.19C83.85 95.16 72.68 99.84 65.41 98.03C60.19 96.73 55.21 95.17 50.77 92.08C50.2 91.69 47.39 89.39 47.4 88.94C48.18 87.88 48.84 86.79 50.39 87.05C51.33 87.21 55.15 89.62 56.48 90.24C62.88 93.23 66.97 95.52 74.33 93.85C80.1 92.54 89.64 85.98 91.96 80.44C92.39 79.43 92.89 76.28 93.42 75.63C93.58 75.44 93.88 75.17 94.11 75.11C94.74 74.94 95.97 75.89 96.22 76.32Z" fill="#181818"/>
<path d="M93.4 50.19C94.4 51.07 95.67 51.34 94.61 53C92.95 53.04 91.52 52.06 89.87 52.06C88.12 52.06 87.09 53.15 85.39 52.99C84.45 52.9 83.74 52.09 83.35 52.13C81.45 52.31 79.59 56.37 77.37 54.14C76.34 53.11 77.15 51.86 78.09 51.05C80.36 49.1 88.5 45.79 91.05 47.91C91.72 48.46 92.71 49.58 93.4 50.19Z" fill="#181818"/>
<path d="M61.59 54.99C60.94 55.73 57.77 54.92 56.47 55.09C54.09 55.4 50.47 57.03 48.56 58.52C47.06 59.69 46.23 61.95 44.15 60.79C42.07 59.63 44.57 57.32 45.79 56.26C48.4 53.97 53.85 51.43 57.35 51.48C58.44 51.49 59.31 52.4 60.58 51.81C61.29 52.52 62.37 54.09 61.59 54.99Z" fill="#181818"/>
<path d="M55.33 60.78C57.39 60.44 60 63.15 59.52 65.29C59.36 66 57.09 68.43 56.44 68.49C56.03 68.53 53.28 68.08 52.9 67.86C49.62 66.01 52.34 61.27 55.33 60.78Z" fill="#181818"/>
<path d="M89 57.88C91.45 59.85 90.61 62.04 89.69 64.58C88.41 64.91 87.28 64.16 86.17 63.89C85.31 63.68 84.38 64.46 83.68 62.75C82.86 60.74 84.51 59.35 84.67 57.34C85.59 55.85 87.95 57.05 88.99 57.88H89Z" fill="#181818"/>
<path d="M75.1 3.39004C76.04 2.93004 76.48 2.53004 77.29 1.99004C78.96 0.870037 82.34 1.82004 84.35 2.18004C85.38 2.36004 86.78 3.05004 87.65 3.19004C88.18 3.27004 88.89 2.86004 89.61 3.01004C97.87 4.63004 111.28 15.53 117.5 21.23C123.38 26.61 124.38 29.27 127.82 36.07C131.12 42.58 133.94 49.3 134.61 56.55C134.98 60.55 134.76 64.24 135.62 68.24C136.3 71.39 137.71 74.33 137.85 77.65C137.92 79.41 137.31 81.34 137.23 82.99C137.07 86.39 138.37 90.13 135.91 92.98C135.36 93.61 135.01 93.61 134.17 93.56C133.08 93.5 130.28 91.93 130.21 93.26H129.92C130 91.84 127.96 91.59 126.8 90.91C126.29 90.61 126.24 89.59 124.94 90.17L124.65 89.32C124.45 89.94 124.22 90.7 123.88 91.26C120.17 97.38 114.63 103.61 107.87 106.81C106.76 107.34 104.6 107.81 103.81 108.46C103.43 108.77 103.58 109.24 103.13 109.56C102.16 110.25 99.99 110.37 99.85 110.47C98.67 111.26 96.26 113.58 95.04 114.3C94.35 114.71 91.61 114.41 91.01 115.77C93.85 116.1 96.86 117.77 99.46 119.04C110.98 124.69 126.54 137.03 133.98 147.19C150.53 169.8 157.58 202.87 157.57 230.42C157.57 239.34 157.44 212.37 157.43 221.44C157.43 223.69 157.96 227.72 157.43 229.82C157.37 230.05 156.84 229.91 156.82 230.42C156.53 237.71 157.12 229.33 156.29 236.4C155.8 240.61 156.1 232.5 154.78 236.57C154.02 238.91 151.94 238.38 149.82 238.84C140.39 240.86 130.43 241.38 120.67 241.98C102.55 243.09 84.2 241.26 65.99 241.8C49.97 242.28 34.79 243.36 18.58 243.19C16.48 243.17 8.60999 243.72 7.45999 242.65C6.53999 241.79 6.51999 238.32 7.80999 237.95C7.97999 237.9 8.28999 238.14 8.42999 238.07C8.48999 238.04 9.34999 237.16 9.35999 237.1C9.45999 236.77 9.60999 235.13 9.64999 234.63C10.34 225.47 8.81999 228.83 9.35999 219.5C9.92999 209.85 11.6 252.14 12.29 242.53C13.45 226.4 13.3 210.29 14.03 194.15C14.64 180.71 17.85 166.91 22.29 154.24C27.18 140.29 37.5 129.48 50.26 121.7L54.53 119.74C55.75 118.92 52.68 118.3 52.08 118.16C48.63 117.35 44.88 116.51 41.47 115.42C36.82 113.93 25.62 108.3 21.95 105.21C19.41 103.07 15.15 98.5 15.68 95.14C14.26 90.67 13.53 86.1 13.44 81.45C10.85 81.83 9.09999 83.38 7.08999 84.77C5.66999 84.6 2.80999 85.21 1.86999 84.28C0.419994 82.86 1.19999 81.82 1.14999 80.46C0.569994 64.51 8.06999 43.3 15.91 29.38C19.42 23.15 24.82 17.05 29.72 11.7C31.25 10.04 32.95 8.53004 34.68 7.18004C38.79 3.97004 41.2 2.26004 46.3 0.360037C47.1 0.0500369 49.15 -0.00996307 50.09 3.69335e-05C55.44 0.100037 60.86 1.01004 65.92 3.01004C67.54 3.65004 68.93 4.57004 70.42 5.42004C71.87 4.70004 73.69 4.09004 75.1 3.40004V3.39004ZM78.35 18.5L72.35 15.36C72.1 15.25 71.92 15.41 71.72 15.46C70.66 15.74 66.94 19.24 65.84 20.24C52.21 32.54 43.97 45.31 34.87 60.8C33.02 63.95 31.51 68.25 28.99 70.9C28.56 71.35 27.54 71.81 27.35 72.16C27.03 72.74 27.85 73.61 27.25 74.5C26.7 75.31 25.65 74.62 25.09 74.74C24.58 74.85 23.62 76.11 22.56 76.27C22.01 76.35 21.51 76.02 21 76.15C20.28 76.33 18.93 77.7 18.69 78.45C17.33 82.64 18.76 91.74 20.15 95.99C20.46 96.95 21.58 98.17 22.27 98.95C27.36 104.68 39.32 109.63 46.77 112.04C59.01 115.99 69.95 116.81 82.31 113.73C86.28 112.74 87.85 111.06 91.2 109.62C92.37 109.12 93.51 109.33 93.62 109.27C93.7 109.22 93.78 108.67 94.07 108.45C94.35 108.24 96.06 107.22 96.28 107.16C97.1 106.95 97.85 107.61 98.63 107.2C99.15 106.93 99.03 106.24 99.57 105.82C100.01 105.48 101.48 105.29 102.34 104.86C107.24 102.39 115.09 96.36 117.89 91.68C118.9 89.98 119.31 87.75 120.57 86.08L120.54 85.43C119.97 85.29 119.55 85.09 119.1 84.71C116.72 82.66 114.19 79.26 111.76 77.43C111.03 76.88 110.47 76.24 109.45 76.4C109.36 75.75 110.11 75.72 109.92 74.99C109.77 74.39 109 73.66 108.72 73.02C106.04 66.72 103.11 54.91 98.91 49.89C98.48 49.38 96.88 48.3 96.7 47.97C96.56 47.71 96.21 45.58 95.67 44.55C93.49 40.41 91.11 36.37 88.8 32.22C88.43 31.56 88.55 30.92 88.05 30.16C87.37 29.13 85.04 27.56 84.94 27.38C84.72 27 84.98 26.22 84.82 25.66C84.42 24.31 79.92 20.47 78.64 19.29C78.38 19.05 78.5 18.65 78.37 18.52L78.35 18.5ZM111.97 131.91C103.65 125.36 90.33 116.87 79.24 119.21C78.8 119.3 78.32 119.78 77.63 119.91C76.22 120.18 73.62 119.9 73.02 120.82C61.78 117.26 44.52 130.92 37.47 138.68C30.84 145.97 28.25 151.63 25.32 160.78C18.15 183.16 19.39 202.13 18.16 224.79C17.07 244.77 14.17 212.6 13.96 232.67C13.93 235.46 14.05 235.84 14.34 238.61C14.69 241.93 14.14 232.43 14.12 235.73C14.12 236.38 14.59 237.05 14.11 237.77L14.52 238.39C18.02 238.14 21.51 238.45 25.04 238.42C37.53 238.31 50.06 237.18 62.49 236.75C90.27 235.77 119.36 239.48 146.98 234.39C148.26 234.15 149.49 233.67 150.81 233.57L151.3 233.17C151.67 230 152.55 239.51 152.77 236.35C153.06 232.11 152.3 227.72 152.47 223.4C152.68 218.04 153.4 228.78 153.37 223.36C153.32 214.12 153.08 240.74 153.08 231.53C153.06 208.61 148.87 185.41 139.13 164.46C132.98 151.24 123.57 141.02 111.99 131.9L111.97 131.91Z" fill="#181818"/>
</svg>
